<?xml version="1.0" standalone="no"?>
<!DOCTYPE svg PUBLIC "-//W3C//DTD SVG 1.1//EN" "http://www.w3.org/Graphics/SVG/1.1/DTD/svg11.dtd" >
<svg xmlns="http://www.w3.org/2000/svg" xmlns:xlink="http://www.w3.org/1999/xlink" version="1.1">
<metadata>
Created by FontForge 20150318 at Tue Aug  4 20:20:48 2015
 By uniteet7
Copyright (C) 1998; Type Market Ltd. Russia, Moscow, 119136, Box 20; phone:(095)1427712
</metadata>
<defs>
<font id="NokiaSansS60-Bold" horiz-adv-x="708" >
  <font-face 
    font-family="Nokia Sans S60"
    font-weight="400"
    font-stretch="normal"
    units-per-em="1000"
    panose-1="2 11 7 6 3 4 4 3 2 4"
    ascent="700"
    descent="-300"
    x-height="532"
    cap-height="723"
    bbox="-760 -300 1162 1015"
    underline-thickness="102"
    underline-position="-8"
    unicode-range="U+000D-F818"
  />
<missing-glyph horiz-adv-x="500" 
 />
    <glyph glyph-name=".notdef" horiz-adv-x="500" 
 />
    <glyph glyph-name="space" unicode=" " horiz-adv-x="324" 
 />
    <glyph glyph-name="space" unicode="&#xa0;" horiz-adv-x="324" 
 />
    <glyph glyph-name="exclam" unicode="!" horiz-adv-x="290" 
d="M204 131q26 -25 26 -59q0 -36 -26 -61q-25 -24 -60 -24q-84 0 -84 84q0 35 25 60q25 26 59 26t60 -26zM221 617v-288q0 -115 -77 -115q-78 0 -78 115v288q0 114 78 114q77 0 77 -114z" />
    <glyph glyph-name="quotedbl" unicode="&#x22;" horiz-adv-x="331" 
d="M39 655q0 47 47 47t47 -47v-179q0 -47 -47 -47t-47 47v179zM292 655v-179q0 -47 -47 -47t-47 47v179q0 47 47 47t47 -47z" />
    <glyph glyph-name="numbersign" unicode="#" horiz-adv-x="769" 
d="M501 512l59 168q19 51 71 51q40 0 40 -29q0 -5 -3 -17t-6 -21l-53 -152h76q69 0 69 -49t-69 -49h-111l-41 -118h92q69 0 69 -49t-69 -49h-127l-54 -152q-19 -51 -71 -51q-40 0 -40 29q0 5 3 18l6 20l48 136h-119l-54 -152q-19 -51 -71 -51q-40 0 -40 29q0 5 3 18l53 156
h-74q-69 0 -69 49t69 49h109l42 118h-82q-69 0 -69 49t69 49h117l59 168q19 51 71 51q40 0 40 -29q0 -5 -3 -17t-6 -21l-52 -152h118zM303 296h123l42 118h-122z" />
    <glyph glyph-name="dollar" unicode="$" horiz-adv-x="551" 
d="M230 -19q-205 20 -205 114q0 73 80 73q14 0 35 -6l41 -12q27 -9 46 -13q28 -6 52 -6q80 0 80 73q0 39 -34 62q-24 17 -91 37q-107 32 -152 75q-49 46 -49 127q0 83 52 145q54 63 145 81v45q0 54 40 54t40 -54v-45q175 -14 175 -106q0 -69 -73 -69q-13 0 -30 4
q-10 2 -32 9q-21 6 -32 8q-19 4 -33 4q-80 0 -80 -61q0 -34 35 -51q13 -7 41 -16q5 -1 12 -4q2 0 6 -2q5 -1 7 -2l29 -9q196 -65 196 -216q0 -93 -61 -160q-61 -68 -160 -79v-63q0 -55 -40 -55t-40 55v63z" />
    <glyph glyph-name="percent" unicode="%" horiz-adv-x="699" 
d="M271 674q45 -47 45 -113t-45 -113q-45 -46 -108 -46q-64 0 -108 46q-45 46 -45 113t45 113t108 46t108 -46zM112 561q0 -57 51 -57t51 57t-51 57t-51 -57zM644 263q45 -47 45 -113t-45 -113q-45 -46 -108 -46q-64 0 -108 46q-45 46 -45 113t45 113t108 46t108 -46z
M485 150q0 -57 51 -57t51 57t-51 57t-51 -57zM239 40q-33 -57 -70 -57q-57 0 -57 58q0 24 16 52l330 576q33 56 70 56q56 0 56 -56q0 -24 -16 -53z" />
    <glyph glyph-name="ampersand" unicode="&#x26;" horiz-adv-x="721" 
d="M482 680q56 -49 56 -123q0 -109 -121 -182l97 -115q23 27 34 41q17 19 29 30q28 25 53 25q61 0 61 -67q0 -46 -90 -130q34 -40 45 -57q17 -26 17 -49q0 -74 -65 -74q-44 0 -105 80q-88 -80 -225 -80q-104 0 -171 63t-67 157q0 138 164 219q-68 73 -68 146q0 71 56 118
q58 49 150 49t150 -51zM279 313q-87 -40 -87 -110q0 -94 95 -94q62 0 123 54zM409 557q0 61 -70 61q-65 0 -65 -58q0 -38 56 -89q79 33 79 86z" />
    <glyph glyph-name="quotesingle" unicode="'" horiz-adv-x="172" 
d="M133 655v-179q0 -47 -47 -47t-47 47v179q0 47 47 47t47 -47z" />
    <glyph glyph-name="parenleft" unicode="(" horiz-adv-x="324" 
d="M264 707q0 -15 -11 -51l-12 -36q-8 -25 -13 -44q-17 -56 -26 -109q-11 -70 -11 -142q0 -71 11 -141q9 -53 26 -109q5 -19 13 -44l12 -36q11 -37 11 -52q0 -62 -62 -62q-36 0 -66 53q-26 44 -45 124q-17 67 -27 147q-8 70 -8 120q0 59 9 131q10 80 27 146q20 76 46 118
q29 49 64 49q62 0 62 -62z" />
    <glyph glyph-name="parenright" unicode=")" horiz-adv-x="324" 
d="M186 720q26 -42 46 -118q17 -66 27 -146q9 -72 9 -131q0 -50 -8 -120q-10 -80 -27 -147q-19 -80 -45 -124q-30 -53 -66 -53q-62 0 -62 62q0 15 11 52l26 80q16 56 25 109q11 70 11 141q0 72 -11 142q-9 53 -25 109l-26 80q-11 36 -11 51q0 62 62 62q35 0 64 -49z" />
    <glyph glyph-name="asterisk" unicode="*" horiz-adv-x="500" 
d="M211 473q-6 -4 -12 -10l-33 -26q-22 -16 -42 -16q-46 0 -46 50q0 38 95 69q-95 32 -95 69q0 50 46 50q20 0 42 -15l33 -26q6 -6 12 -10l-6 38q-4 21 -4 31q0 54 49 54q50 0 50 -53q0 -12 -4 -33q-1 -1 -1 -4l-3 -14q-2 -10 -3 -19l25 20q13 11 21 16q21 15 41 15
q46 0 46 -50q0 -38 -95 -69q53 -18 70 -28q25 -16 25 -41q0 -50 -46 -50q-19 0 -41 15l-33 26q-7 7 -13 11l6 -33q0 -3 1 -5q4 -21 4 -32q0 -54 -50 -54q-49 0 -49 54q0 10 4 32z" />
    <glyph glyph-name="plus" unicode="+" horiz-adv-x="830" 
d="M665 371q70 0 70 -51t-71 -51h-198v-199q0 -70 -51 -70t-51 71v198h-198q-71 0 -71 51t71 51h198v198q0 71 51 71t51 -71v-198h199z" />
    <glyph glyph-name="comma" unicode="," horiz-adv-x="252" 
d="M217 100q0 -21 -16 -51l-79 -144q-30 -55 -70 -55q-66 0 -66 63q0 22 16 50l79 144q30 55 70 55q66 0 66 -62z" />
    <glyph glyph-name="hyphen" unicode="-" horiz-adv-x="428" 
d="M316 346q78 0 78 -69q0 -66 -79 -66h-203q-78 0 -78 67q0 68 79 68h203z" />
    <glyph glyph-name="hyphen" unicode="&#xad;" horiz-adv-x="428" 
d="M316 346q78 0 78 -69q0 -66 -79 -66h-203q-78 0 -78 67q0 68 79 68h203z" />
    <glyph glyph-name="period" unicode="." horiz-adv-x="252" 
d="M201 148q27 -27 27 -64q0 -39 -27 -65t-64 -26t-63 25q-28 25 -28 66q0 37 27 64t64 27t64 -27z" />
    <glyph glyph-name="slash" unicode="/" horiz-adv-x="370" 
d="M416 671q0 -19 -15 -49l-310 -587q-31 -58 -70 -58q-66 0 -66 63q0 21 14 48l311 587q31 58 70 58q66 0 66 -62z" />
    <glyph glyph-name="zero" unicode="0" horiz-adv-x="651" 
d="M540 632q82 -102 82 -277t-82 -276q-81 -100 -215 -100t-214 100q-82 101 -82 276t82 277q80 99 214 99t215 -99zM197 355q0 -226 129 -226q128 0 128 227q0 225 -128 225q-129 0 -129 -226z" />
    <glyph glyph-name="one" unicode="1" horiz-adv-x="360" 
d="M184 711q91 0 91 -115v-488q0 -115 -81 -115t-81 115v453h-16q-109 0 -109 75t115 75h81z" />
    <glyph glyph-name="two" unicode="2" horiz-adv-x="525" 
d="M425 670q62 -59 62 -150q0 -79 -65 -170q-29 -41 -77 -93l-49 -52l-55 -55h149q115 0 115 -75t-115 -75h-287q-97 0 -97 75q0 26 35 70q13 17 40 46l54 59q48 53 76 86q35 41 57 71q47 66 47 105q0 69 -61 69q-28 0 -47 -24q-8 -10 -16 -25q-5 -9 -14 -29
q-18 -39 -30 -54q-21 -24 -49 -24q-80 0 -80 83q0 85 67 152q72 71 174 71t166 -61z" />
    <glyph glyph-name="three" unicode="3" horiz-adv-x="546" 
d="M410 674q60 -56 60 -137q0 -87 -81 -146q120 -62 120 -182q0 -97 -72 -163q-73 -67 -184 -67q-95 0 -173 65q-74 62 -74 132q0 77 71 77q27 0 49 -19q9 -8 18 -20l17 -23q22 -30 38 -43q24 -19 56 -19q86 0 86 91q0 67 -103 84q-68 11 -68 72q0 55 68 71q75 18 75 73
q0 61 -59 61q-24 0 -45 -14q-8 -5 -17 -14q-4 -3 -8 -8l-17 -16q-4 -5 -8 -8q-9 -9 -18 -14q-22 -14 -47 -14q-67 0 -67 68q0 62 68 115q71 55 162 55q92 0 153 -57z" />
    <glyph glyph-name="four" unicode="4" horiz-adv-x="630" 
d="M509 564v-262h25q90 0 90 -74q0 -76 -99 -76h-16v-71q0 -88 -80 -88q-70 0 -70 94v65h-256q-100 0 -100 64q0 33 39 95l216 342q50 78 122 78q129 0 129 -167zM359 302v273l-170 -273h170z" />
    <glyph glyph-name="five" unicode="5" horiz-adv-x="530" 
d="M387 711q104 0 104 -75t-98 -75h-167l-11 -86q38 9 69 9q91 0 152 -66q62 -67 62 -170q0 -116 -74 -192q-76 -77 -195 -77q-93 0 -161 44q-66 42 -66 97q0 72 67 72q16 0 35 -10l35 -21q24 -15 40 -22q24 -10 48 -10q41 0 70 33q29 32 29 78q0 99 -88 99q-14 0 -31 -4
q-10 -2 -30 -8q-20 -7 -29 -9q-16 -4 -29 -4q-63 0 -63 70q0 11 5 56l23 185q6 53 31 71q21 15 75 15h197z" />
    <glyph glyph-name="six" unicode="6" horiz-adv-x="570" 
d="M341 460q84 0 143 -65q61 -66 61 -164q0 -104 -76 -177q-77 -75 -191 -75q-109 0 -181 72t-72 185q0 151 169 361q108 134 160 134q31 0 54 -21q24 -22 24 -52q0 -29 -46 -81l-48 -53q-30 -36 -54 -70q30 6 57 6zM220 158q27 -29 65 -29t65 29t27 70t-27 69t-65 28
t-65 -28t-27 -69t27 -70z" />
    <glyph glyph-name="seven" unicode="7" horiz-adv-x="480" 
d="M357 711q118 0 118 -89q0 -25 -16 -60l-235 -507q-36 -76 -85 -76q-84 0 -84 79q0 25 22 71l210 432h-184q-109 0 -109 73q0 77 97 77h266z" />
    <glyph glyph-name="eight" unicode="8" horiz-adv-x="570" 
d="M57 531q0 85 65 142q65 58 163 58t164 -58q65 -57 65 -142q0 -84 -66 -142q95 -62 95 -178q0 -98 -71 -164q-74 -68 -187 -68t-187 68q-71 66 -71 164q0 118 95 178q-65 57 -65 142zM218 154q28 -30 67 -30t68 29q28 30 28 73t-28 73t-68 30q-39 0 -67 -30
q-29 -30 -29 -73q0 -42 29 -72zM234 464q22 -23 51 -23q74 0 74 75q0 76 -74 76q-73 0 -73 -76q0 -30 22 -52z" />
    <glyph glyph-name="nine" unicode="9" horiz-adv-x="570" 
d="M229 250q-84 0 -143 65q-61 66 -61 164q0 104 76 177q77 75 191 75q109 0 181 -72t72 -185q0 -151 -169 -361q-108 -134 -160 -134q-31 0 -54 22q-24 21 -24 51q0 29 46 81l48 53q30 36 54 70q-30 -6 -57 -6zM350 552q-27 29 -65 29t-65 -29t-27 -70t27 -69t65 -28t65 28
t27 69t-27 70z" />
    <glyph glyph-name="colon" unicode=":" horiz-adv-x="252" 
d="M201 148q27 -27 27 -64q0 -39 -27 -65t-64 -26t-63 25q-28 25 -28 66q0 37 27 64t64 27t64 -27zM201 451q27 -27 27 -64q0 -39 -27 -65t-64 -26t-63 25q-28 25 -28 66q0 37 27 64t64 27t64 -27z" />
    <glyph glyph-name="semicolon" unicode=";" horiz-adv-x="252" 
d="M201 451q27 -27 27 -64q0 -39 -27 -65t-64 -26t-63 25q-28 25 -28 66q0 37 27 64t64 27t64 -27zM217 100q0 -21 -16 -51l-79 -144q-30 -55 -70 -55q-66 0 -66 63q0 22 16 50l79 144q30 55 70 55q66 0 66 -62z" />
    <glyph glyph-name="less" unicode="&#x3c;" horiz-adv-x="787" 
d="M101 347l541 222q27 10 36 10q39 0 39 -47q0 -40 -41 -56l-437 -178l437 -178q41 -16 41 -58q0 -22 -14 -34q-11 -10 -25 -10q-6 0 -13 2q-9 2 -20 6l-544 224q-31 13 -31 47q0 37 31 50z" />
    <glyph glyph-name="equal" unicode="=" horiz-adv-x="810" 
d="M640 468q70 0 70 -51t-71 -51h-468q-71 0 -71 51t71 51h469zM640 254q70 0 70 -51t-71 -51h-468q-71 0 -71 51t71 51h469z" />
    <glyph glyph-name="greater" unicode="&#x3e;" horiz-adv-x="787" 
d="M686 250l-544 -224q-20 -8 -33 -8q-6 0 -12 2q-8 2 -13 7q-14 11 -14 32q0 44 41 61l437 178l-437 178q-41 17 -41 56q0 47 39 47q5 0 13 -2q10 -3 23 -8l541 -222q31 -13 31 -50q0 -34 -31 -47z" />
    <glyph glyph-name="question" unicode="?" horiz-adv-x="509" 
d="M293 131q26 -25 26 -59q0 -36 -26 -61q-25 -24 -60 -24q-84 0 -84 84q0 35 25 60q25 26 59 26t60 -26zM417 662q66 -64 66 -157q0 -178 -175 -210q0 -98 -78 -98q-76 0 -76 88v63q0 39 16 53q13 12 61 23q82 19 82 88q0 66 -70 66q-32 0 -57 -16q-17 -11 -38 -35l-17 -19
q-10 -10 -18 -16q-20 -16 -43 -16q-65 0 -65 73q0 66 67 120q71 59 171 59q105 0 174 -66z" />
    <glyph glyph-name="at" unicode="@" horiz-adv-x="1000" 
d="M594 342q-12 81 -85 81q-55 0 -96 -60q-42 -61 -42 -146q0 -92 77 -92q93 0 120 111zM425 53q-158 0 -158 166q0 118 69 197q68 78 167 78q84 0 122 -66l8 24q14 42 53 42q37 0 37 -29q0 -20 -9 -56l-56 -227q-2 -12 -2 -16q0 -34 46 -34q70 0 120 84q45 76 45 159
q0 116 -89 191q-91 77 -236 77q-179 0 -294 -111q-114 -110 -114 -277q0 -150 101 -239q101 -90 270 -90q165 0 295 93q21 16 44 16t23 -29q0 -24 -27 -44q-151 -113 -333 -113q-202 0 -330 107q-133 112 -133 298q0 205 146 338q143 131 355 131q178 0 293 -93
q119 -97 119 -257q0 -125 -78 -220q-82 -100 -204 -100q-105 0 -105 80q-52 -80 -145 -80z" />
    <glyph glyph-name="A" unicode="A" horiz-adv-x="637" 
d="M399 284l-81 263l-88 -263h169zM441 629l180 -511q11 -31 11 -51q0 -76 -80 -76q-60 0 -85 79l-20 64h-263l-24 -70q-24 -73 -78 -73q-77 0 -77 78q0 27 8 47l185 502q38 105 124 105q85 0 119 -94z" />
    <glyph glyph-name="B" unicode="B" horiz-adv-x="616" 
d="M308 711q222 0 222 -177q0 -102 -88 -140q144 -36 144 -180q0 -214 -253 -214h-160q-64 0 -87 22t-23 80v495q0 62 22 87q25 27 90 27h133zM225 138h80q111 0 111 81q0 80 -113 80h-78v-161zM225 434h68q80 0 80 69q0 70 -82 70h-66v-139z" />
    <glyph glyph-name="C" unicode="C" horiz-adv-x="630" 
d="M534 699q59 -31 59 -75q0 -29 -21 -52q-21 -24 -49 -24q-12 0 -29 5q-7 1 -17 4l-17 6q-22 6 -37 9q-22 5 -42 5q-78 0 -126 -62q-49 -62 -49 -164q0 -99 49 -158t131 -59q23 0 47 6q17 4 40 14l13 5q3 1 4 2q10 4 17 6q18 6 30 6q25 0 45 -21q20 -22 20 -50
q0 -49 -62 -85q-65 -38 -162 -38q-156 0 -251 102q-97 103 -97 274q0 168 102 274q99 103 249 103q92 0 153 -33z" />
    <glyph glyph-name="D" unicode="D" horiz-adv-x="698" 
d="M321 711q152 0 249 -94q98 -97 98 -254q0 -167 -92 -264q-93 -99 -255 -99h-148q-64 0 -87 22t-23 80v495q0 62 22 87q25 27 90 27h146zM225 150h74q193 0 193 214q0 197 -196 197h-71v-411z" />
    <glyph glyph-name="E" unicode="E" horiz-adv-x="505" 
d="M225 433h114q115 0 115 -75t-115 -75h-114v-133h137q115 0 115 -75t-115 -75h-189q-64 0 -87 22t-23 80v495q0 62 22 87q25 27 90 27h182q115 0 115 -76q0 -74 -115 -74h-132v-128z" />
    <glyph glyph-name="F" unicode="F" horiz-adv-x="490" 
d="M225 433h114q115 0 115 -75t-115 -75h-114v-177q0 -115 -81 -115t-81 115v491q0 62 22 87q25 27 90 27h182q115 0 115 -76q0 -74 -115 -74h-132v-128z" />
    <glyph glyph-name="G" unicode="G" horiz-adv-x="729" 
d="M579 684q72 -44 72 -100q0 -76 -69 -76q-15 0 -37 11q-5 2 -10 5q-5 2 -11 6l-22 13q-29 15 -52 23q-33 11 -66 11q-178 0 -178 -218q0 -104 49 -165q48 -60 128 -60q64 0 104 39q40 40 40 104h-57q-114 0 -114 75t114 75h119q114 0 114 -106q0 -150 -90 -245
q-93 -97 -243 -97q-149 0 -244 104q-96 105 -96 273q0 173 98 275q97 101 261 101q113 0 190 -48z" />
    <glyph glyph-name="H" unicode="H" horiz-adv-x="748" 
d="M523 437v171q0 115 81 115t81 -115v-502q0 -115 -81 -115t-81 115v181h-298v-181q0 -115 -81 -115t-81 115v502q0 115 81 115t81 -115v-171h298z" />
    <glyph glyph-name="I" unicode="I" horiz-adv-x="296" 
d="M229 608v-502q0 -115 -81 -115t-81 115v502q0 115 81 115t81 -115z" />
    <glyph glyph-name="J" unicode="J" horiz-adv-x="458" 
d="M395 608v-391q0 -238 -208 -238q-81 0 -134 36q-51 35 -51 83q0 73 75 73q21 0 54 -18q33 -19 49 -19q53 0 53 135v339q0 115 81 115t81 -115z" />
    <glyph glyph-name="K" unicode="K" horiz-adv-x="635" 
d="M225 608v-179l210 238q50 56 84 56q29 0 51 -22t22 -52q0 -37 -41 -80l-179 -187l217 -236q41 -46 41 -80q0 -31 -24 -53q-22 -22 -51 -22q-24 0 -45 16q-14 10 -42 41l-243 268v-210q0 -115 -81 -115t-81 115v502q0 115 81 115t81 -115z" />
    <glyph glyph-name="L" unicode="L" horiz-adv-x="477" 
d="M225 608v-458h137q115 0 115 -75t-115 -75h-189q-64 0 -87 22t-23 80v506q0 115 81 115t81 -115z" />
    <glyph glyph-name="M" unicode="M" horiz-adv-x="869" 
d="M334 624l108 -425l101 426q24 98 111 98q94 0 114 -120l79 -489q4 -23 4 -39q0 -84 -82 -84q-70 0 -80 94l-50 425h-1l-110 -438q-10 -39 -26 -57q-22 -24 -64 -24q-75 0 -95 81l-104 438h-1l-56 -415q-15 -104 -85 -104q-79 0 -79 84q0 18 6 49l87 485q20 114 110 114
q89 0 113 -99z" />
    <glyph glyph-name="N" unicode="N" horiz-adv-x="748" 
d="M224 667l299 -395v336q0 115 81 115t81 -115v-520q0 -97 -74 -97q-52 0 -112 80l-274 362v-327q0 -115 -81 -115t-81 115v505q0 112 75 112q43 0 86 -56z" />
    <glyph glyph-name="O" unicode="O" horiz-adv-x="758" 
d="M631 629q97 -104 97 -274q0 -168 -96 -272t-253 -104t-253 104q-96 103 -96 272t97 273q96 104 252 104t252 -103zM254 518q-48 -61 -48 -165q0 -100 48 -160q48 -59 125 -59t125 59q48 60 48 160q0 104 -48 165q-47 59 -125 59t-125 -59z" />
    <glyph glyph-name="P" unicode="P" horiz-adv-x="612" 
d="M225 375h70q111 0 111 94q0 93 -111 93h-70v-187zM321 711q121 0 192 -66q69 -65 69 -176q0 -112 -65 -176q-66 -65 -183 -65h-109v-122q0 -115 -81 -115t-81 115v491q0 62 22 87q25 27 90 27h146z" />
    <glyph glyph-name="Q" unicode="Q" horiz-adv-x="758" 
d="M555 23q-71 -44 -176 -44q-157 0 -253 104q-96 103 -96 272t97 273q96 104 252 104q155 0 252 -103q97 -104 97 -273q0 -131 -64 -230l50 -46q35 -32 35 -70q0 -70 -69 -70q-35 0 -71 33zM388 218q0 66 62 66q32 0 81 -47q21 57 21 116q0 104 -48 165q-47 59 -125 59
t-125 -59q-48 -61 -48 -165q0 -101 48 -160t127 -59q26 0 52 10q-45 39 -45 74z" />
    <glyph glyph-name="R" unicode="R" horiz-adv-x="608" 
d="M225 389h75q103 0 103 88q0 84 -101 84h-77v-172zM301 711q129 0 201 -62q70 -59 70 -160q0 -163 -170 -192l128 -142q48 -54 48 -93q0 -71 -77 -71q-44 0 -87 53l-189 237v-175q0 -115 -81 -115t-81 115v491q0 62 22 87q25 27 90 27h126z" />
    <glyph glyph-name="S" unicode="S" horiz-adv-x="566" 
d="M437 700q53 -31 53 -75q0 -69 -73 -69q-13 0 -30 4q-10 2 -32 9l-32 9q-19 4 -33 4q-79 0 -79 -62q0 -34 34 -51q14 -7 41 -16q5 -1 12 -4q2 0 7 -2q5 -1 6 -2l29 -9q196 -65 196 -216q0 -105 -74 -172q-77 -69 -202 -69q-97 0 -165 36q-65 35 -65 80q0 73 80 73
q14 0 35 -6l41 -13q27 -10 46 -14q27 -6 51 -6q80 0 80 76q0 39 -33 62q-24 16 -91 36q-107 32 -152 75q-49 46 -49 127q0 98 70 162q72 65 188 65q86 0 141 -32z" />
    <glyph glyph-name="T" unicode="T" horiz-adv-x="512" 
d="M397 711q115 0 115 -76q0 -74 -115 -74h-60v-455q0 -115 -81 -115t-81 115v455h-60q-115 0 -115 74q0 76 115 76h282z" />
    <glyph glyph-name="U" unicode="U" horiz-adv-x="736" 
d="M225 608v-285q0 -189 143 -189t143 189v285q0 115 81 115t81 -115v-303q0 -157 -83 -242q-80 -84 -222 -84t-222 84q-83 85 -83 242v303q0 115 81 115t81 -115z" />
    <glyph glyph-name="V" unicode="V" horiz-adv-x="616" 
d="M163 653l150 -404l139 398q26 76 80 76q79 0 79 -75q0 -28 -11 -56l-210 -534q-27 -67 -82 -67q-53 0 -77 61l-217 544q-9 23 -9 46q0 81 84 81q48 0 74 -70z" />
    <glyph glyph-name="W" unicode="W" horiz-adv-x="914" 
d="M165 650l85 -452l118 454q19 71 90 71q69 0 88 -73l116 -452l85 441q17 84 82 84q80 0 80 -78q0 -24 -10 -64l-120 -483q-15 -59 -35 -81q-24 -26 -77 -26q-85 0 -108 91l-106 406l-100 -397q-25 -100 -117 -100q-87 0 -111 107l-114 497q-6 30 -6 53q0 75 82 75
q64 0 78 -73z" />
    <glyph glyph-name="X" unicode="X" horiz-adv-x="607" 
d="M205 658l100 -140l102 142q45 63 86 63q27 0 49 -23q22 -22 22 -49q0 -31 -36 -82l-131 -182l173 -244q37 -53 37 -82q0 -27 -22 -48q-22 -22 -52 -22q-45 0 -88 61l-144 202l-143 -201q-43 -62 -85 -62q-29 0 -51 22t-22 49q0 31 36 82l173 241l-130 182q-36 50 -36 80
q0 76 79 76q36 0 83 -65z" />
    <glyph glyph-name="Y" unicode="Y" horiz-adv-x="563" 
d="M161 658l121 -173l123 175q44 63 87 63q27 0 49 -23q22 -22 22 -49q0 -30 -37 -82l-164 -234v-229q0 -115 -81 -115t-81 115v229l-164 232q-36 50 -36 82q0 28 21 51q23 23 56 23q38 0 84 -65z" />
    <glyph glyph-name="Z" unicode="Z" horiz-adv-x="546" 
d="M401 711q139 0 139 -79q0 -36 -47 -99l-283 -383h221q115 0 115 -75t-115 -75h-317q-114 0 -114 81q0 26 13 51q8 16 32 47l288 382h-207q-115 0 -115 76q0 74 115 74h275z" />
    <glyph glyph-name="bracketleft" unicode="[" horiz-adv-x="324" 
d="M194 -41h48q77 0 77 -54q0 -53 -78 -53h-72q-64 0 -88 22q-23 22 -23 80v684q0 62 22 87q25 27 90 27h72q77 0 77 -53q0 -54 -78 -54h-47v-686z" />
    <glyph glyph-name="backslash" unicode="\" horiz-adv-x="370" 
d="M91 675l310 -587q15 -28 15 -48q0 -63 -67 -63q-39 0 -70 58l-310 587q-14 27 -14 49q0 62 66 62q39 0 70 -58z" />
    <glyph glyph-name="bracketright" unicode="]" horiz-adv-x="324" 
d="M130 645h-47q-78 0 -78 54q0 53 77 53h72q65 0 90 -27q22 -25 22 -87v-684q0 -58 -23 -80t-87 -22h-73q-78 0 -78 53q0 54 77 54h48v686z" />
    <glyph glyph-name="asciicircum" unicode="^" horiz-adv-x="700" 
d="M436 686l190 -316q8 -15 13 -30q7 -19 7 -37q0 -55 -55 -55t-95 70l-146 260l-146 -260q-40 -70 -95 -70t-55 55q0 18 7 37q5 15 13 30l189 315q28 46 87 46t86 -45z" />
    <glyph glyph-name="underscore" unicode="_" horiz-adv-x="500" 
d="M500 -136q70 0 70 -51t-71 -51h-499q-71 0 -71 51t71 51h500z" />
    <glyph glyph-name="grave" unicode="`" horiz-adv-x="500" 
d="M238 776l73 -100q17 -23 17 -44q0 -55 -54 -55q-27 0 -54 31l-76 84q-26 29 -26 54q0 62 63 62q34 0 57 -32z" />
    <glyph glyph-name="a" unicode="a" horiz-adv-x="603" 
d="M217 364q-30 -38 -30 -96q0 -60 29 -98q29 -39 73 -39t73 39q30 40 30 98q0 57 -30 96q-30 38 -73 38t-72 -38zM264 -13q-99 0 -168 78q-71 80 -71 201q0 119 72 200q71 80 173 80q78 0 126 -57q28 50 75 50q78 0 78 -114v-317q0 -115 -78 -115q-50 0 -75 55
q-50 -61 -132 -61z" />
    <glyph glyph-name="b" unicode="b" horiz-adv-x="603" 
d="M211 503q49 43 125 43q101 0 171 -78q71 -80 71 -202q0 -115 -73 -198q-71 -81 -169 -81q-78 0 -128 57q-29 -51 -75 -51q-79 0 -79 115v540q0 115 79 115q78 0 78 -115v-145zM211 265q0 -134 102 -134q44 0 74 39q29 38 29 98q0 134 -103 134q-102 0 -102 -137z" />
    <glyph glyph-name="c" unicode="c" horiz-adv-x="497" 
d="M424 518q48 -28 48 -73q0 -67 -65 -67q-9 0 -23 4q-5 1 -13 4q-2 0 -7 2q-5 1 -6 2q-37 12 -62 12q-48 0 -78 -38q-31 -38 -31 -99q0 -134 115 -134q26 0 62 12l6 2q5 2 7 2q7 3 12 4q13 4 21 4q61 0 61 -68q0 -42 -51 -71q-53 -29 -134 -29q-116 0 -188 77
q-73 77 -73 202q0 124 74 201q75 79 197 79q79 0 128 -28z" />
    <glyph glyph-name="d" unicode="d" horiz-adv-x="603" 
d="M268 -13q-98 0 -170 82q-73 83 -73 202q0 118 72 198q70 77 171 77q75 0 124 -42v144q0 115 79 115q78 0 78 -115v-540q0 -115 -78 -115q-47 0 -75 51q-52 -57 -128 -57zM187 268q0 -60 30 -98q29 -39 74 -39q101 0 101 137q0 134 -101 134q-104 0 -104 -134z" />
    <glyph glyph-name="e" unicode="e" horiz-adv-x="572" 
d="M187 223q12 -98 119 -98q27 0 54 8q20 6 45 18l37 17q18 8 30 8q63 0 63 -61q0 -49 -67 -87q-71 -41 -170 -41q-117 0 -195 79q-78 80 -78 200t76 200t189 80q111 0 185 -77q72 -74 72 -182q0 -64 -78 -64h-282zM394 325q-7 93 -103 93q-87 0 -105 -93h208z" />
    <glyph glyph-name="f" unicode="f" horiz-adv-x="370" 
d="M370 684q0 -54 -72 -65q-38 -6 -38 -59v-38h26q100 0 100 -67q0 -68 -100 -68h-26v-279q0 -115 -78 -115q-79 0 -79 115v279h-6q-89 0 -89 68q0 67 95 67v30q0 211 163 211q104 0 104 -79z" />
    <glyph glyph-name="g" unicode="g" horiz-adv-x="599" 
d="M217 364q-30 -39 -30 -98q0 -129 103 -129q105 0 105 129q0 59 -31 98q-30 38 -74 38t-73 -38zM466 539q79 0 79 -114v-317q0 -168 -59 -248q-66 -90 -218 -90q-104 0 -169 35q-62 34 -62 82q0 69 68 69q13 0 31 -7l22 -8q4 -1 5 -2l10 -4q25 -10 45 -14q28 -7 56 -7
q121 0 121 133v19q-51 -73 -142 -73q-95 0 -160 77q-68 78 -68 196q0 119 72 200q71 80 172 80q79 0 127 -57q27 50 70 50z" />
    <glyph glyph-name="h" unicode="h" horiz-adv-x="592" 
d="M212 493q43 46 134 46q192 0 192 -204v-226q0 -116 -78 -116q-79 0 -79 115v178q0 118 -84 118q-86 0 -86 -115v-180q0 -116 -78 -116q-79 0 -79 115v540q0 115 79 115q78 0 78 -115v-155h1z" />
    <glyph glyph-name="i" unicode="i" horiz-adv-x="275" 
d="M216 425v-317q0 -115 -78 -115q-79 0 -79 115v317q0 114 79 114q78 0 78 -114zM202 738q26 -26 26 -64t-26 -65q-26 -26 -64 -26t-65 26q-26 27 -26 65q0 37 27 64q26 26 64 26t64 -26z" />
    <glyph glyph-name="j" unicode="j" horiz-adv-x="275" 
d="M216 425v-530q0 -115 -78 -115q-79 0 -79 115v530q0 114 79 114q78 0 78 -114zM74 738q26 26 64 26t64 -26t26 -64t-26 -65q-26 -26 -64 -26t-65 26q-26 27 -26 65q0 37 27 64z" />
    <glyph glyph-name="k" unicode="k" horiz-adv-x="525" 
d="M211 648v-290l135 139q41 42 81 42q66 0 66 -60q0 -39 -40 -76l-106 -98l147 -173q31 -37 31 -76q0 -63 -74 -63q-46 0 -82 47l-158 210v-142q0 -115 -78 -115q-79 0 -79 115v540q0 115 79 115q78 0 78 -115z" />
    <glyph glyph-name="l" unicode="l" horiz-adv-x="275" 
d="M216 649v-541q0 -115 -78 -115q-79 0 -79 115v541q0 114 79 114q78 0 78 -114z" />
    <glyph glyph-name="m" unicode="m" horiz-adv-x="883" 
d="M209 489q46 50 126 50q103 0 157 -72q65 72 159 72q178 0 178 -205v-226q0 -115 -79 -115q-78 0 -78 115v178q0 118 -72 118q-80 0 -80 -116v-180q0 -115 -79 -115q-78 0 -78 115v178q0 118 -72 118q-80 0 -80 -116v-180q0 -115 -79 -115q-78 0 -78 115v317q0 114 80 114
q47 0 75 -50z" />
    <glyph glyph-name="n" unicode="n" horiz-adv-x="592" 
d="M208 489q46 50 138 50q192 0 192 -204v-226q0 -116 -78 -116q-79 0 -79 115v178q0 118 -84 118q-86 0 -86 -115v-180q0 -116 -78 -116q-79 0 -79 115v317q0 114 79 114q47 0 75 -50z" />
    <glyph glyph-name="o" unicode="o" horiz-adv-x="583" 
d="M484 468q74 -79 74 -202t-74 -201q-75 -78 -192 -78t-192 78t-75 201t75 202q76 78 192 78q117 0 192 -78zM218 365q-31 -38 -31 -98q0 -136 105 -136q104 0 104 137q0 59 -30 97q-30 37 -74 37q-45 0 -74 -37z" />
    <glyph glyph-name="p" unicode="p" horiz-adv-x="603" 
d="M338 546q101 0 170 -77q70 -79 70 -199q0 -118 -71 -201q-71 -82 -171 -82q-70 0 -125 47v-135q0 -115 -78 -115q-79 0 -79 115v530q0 110 79 110q49 0 75 -46q48 53 130 53zM211 267q0 -136 102 -136q103 0 103 137q0 59 -30 97q-29 37 -73 37q-102 0 -102 -135z" />
    <glyph glyph-name="q" unicode="q" horiz-adv-x="603" 
d="M471 539q78 0 78 -110v-530q0 -115 -78 -115q-79 0 -79 115v134q-53 -46 -125 -46q-100 0 -170 82q-72 83 -72 201q0 120 71 199q68 77 169 77q83 0 131 -53q26 46 75 46zM217 365q-30 -38 -30 -97q0 -137 103 -137q102 0 102 137q0 134 -101 134q-45 0 -74 -37z" />
    <glyph glyph-name="r" unicode="r" horiz-adv-x="395" 
d="M315 546q32 0 57 -25q23 -25 23 -57q0 -40 -43 -61q-9 -5 -20 -9l-23 -9q-32 -12 -48 -19q-50 -24 -50 -94v-164q0 -115 -78 -115q-79 0 -79 115v317q0 114 79 114q47 0 75 -50q54 57 107 57z" />
    <glyph glyph-name="s" unicode="s" horiz-adv-x="456" 
d="M370 513q52 -31 52 -74q0 -66 -65 -66q-13 0 -30 6q-7 2 -16 6l-12 5q0 1 -2 1q-1 1 -2 1q-21 9 -32 13q-19 6 -33 6q-36 0 -36 -27q0 -19 29 -33q10 -5 34 -15l45 -18q129 -58 129 -153q0 -76 -58 -126q-60 -52 -153 -52q-87 0 -141 32q-54 31 -54 80q0 69 60 69
q19 0 39 -7q8 -3 18 -8q4 -1 8 -4l17 -8q5 -3 9 -4q9 -5 17 -8q20 -7 39 -7q44 0 44 37q0 26 -87 58q-150 55 -150 161q0 72 55 119q55 49 142 49q80 0 134 -33z" />
    <glyph glyph-name="t" unicode="t" horiz-adv-x="383" 
d="M257 595v-73h21q100 0 100 -67q0 -68 -100 -68h-21v-279q0 -115 -78 -115q-79 0 -79 115v279h-6q-89 0 -89 68q0 67 95 67v73q0 114 79 114q78 0 78 -114z" />
    <glyph glyph-name="u" unicode="u" horiz-adv-x="584" 
d="M211 425v-178q0 -116 81 -116t81 116v178q0 114 79 114q78 0 78 -114v-210q0 -228 -238 -228t-238 228v210q0 114 79 114q78 0 78 -114z" />
    <glyph glyph-name="v" unicode="v" horiz-adv-x="476" 
d="M157 462l86 -274l85 284q20 67 74 67q74 0 74 -79q0 -20 -12 -52l-133 -344q-29 -77 -90 -77q-64 0 -95 82l-132 337q-14 37 -14 55q0 78 76 78q56 0 81 -77z" />
    <glyph glyph-name="w" unicode="w" horiz-adv-x="763" 
d="M157 462l83 -288l67 289q18 76 73 76q61 0 80 -78l72 -283l83 294q19 67 74 67q74 0 74 -79q0 -18 -12 -52l-121 -344q-28 -77 -90 -77q-73 0 -95 82l-65 251l-61 -256q-18 -77 -90 -77q-65 0 -95 82l-125 349q-9 26 -9 43q0 78 76 78q59 0 81 -77z" />
    <glyph glyph-name="x" unicode="x" horiz-adv-x="513" 
d="M163 506l96 -111l88 108q30 36 64 36q33 0 57 -23t24 -54q0 -30 -35 -68l-104 -111l123 -139q19 -21 26 -34q11 -20 11 -44q0 -73 -72 -73q-37 0 -72 41l-113 134l-112 -134q-35 -41 -68 -41q-76 0 -76 78q0 33 33 69l131 144l-110 112q-30 32 -30 64q0 31 22 55t52 24
q36 0 65 -33z" />
    <glyph glyph-name="y" unicode="y" horiz-adv-x="500" 
d="M162 463l89 -238l97 251q25 63 69 63q78 0 78 -75q0 -25 -13 -55l-240 -570q-27 -64 -69 -64q-78 0 -78 76q0 25 13 54l65 141l-159 371q-9 19 -9 44q0 78 77 78q52 0 80 -76z" />
    <glyph glyph-name="z" unicode="z" horiz-adv-x="480" 
d="M376 144q99 0 99 -72t-100 -72h-287q-83 0 -83 49q0 29 24 60l216 279h-136q-99 0 -99 73q0 71 100 71h253q99 0 99 -48q0 -26 -32 -69l-210 -271h156z" />
    <glyph glyph-name="braceleft" unicode="{" horiz-adv-x="500" 
d="M305 213q19 -30 19 -99v-118q0 -57 15 -75q17 -21 69 -21q71 0 71 -51t-70 -51q-118 0 -159 32q-44 34 -44 134v123q0 84 -48 111q-9 5 -26 11l-13 5q-8 2 -13 5q-29 13 -29 41t29 41q5 3 13 5l13 5q17 6 26 11q48 27 48 111v123q0 100 44 134q41 32 159 32q70 0 70 -51
t-71 -51q-52 0 -69 -21q-15 -18 -15 -75v-118q0 -69 -19 -99q-22 -33 -82 -47q60 -14 82 -47z" />
    <glyph glyph-name="bar" unicode="|" horiz-adv-x="274" 
d="M184 717v-906q0 -47 -47 -47t-47 47v906q0 47 47 47t47 -47z" />
    <glyph glyph-name="braceright" unicode="}" horiz-adv-x="500" 
d="M196 307q-19 30 -19 99v118q0 57 -15 75q-17 21 -69 21q-71 0 -71 51t70 51q118 0 159 -32q44 -34 44 -134v-123q0 -84 48 -111q9 -5 26 -11l13 -5q8 -2 13 -5q29 -13 29 -41t-29 -41q-5 -3 -13 -5l-13 -5q-17 -6 -26 -11q-48 -27 -48 -111v-123q0 -100 -44 -134
q-41 -32 -159 -32q-70 0 -70 51t71 51q52 0 69 21q15 18 15 75v118q0 69 19 99q22 33 82 47q-60 14 -82 47z" />
    <glyph glyph-name="asciitilde" unicode="~" horiz-adv-x="833" 
d="M69 269q0 36 71 75q72 39 137 39q43 0 85 -10l35 -11q14 -4 34 -12l31 -12q18 -7 32 -11q36 -10 69 -10q28 0 58 11q23 8 49 24l37 24q18 11 25 11q37 0 37 -57q0 -36 -71 -75q-71 -40 -136 -40q-33 0 -72 10q-15 4 -34 11q-8 2 -17 6l-52 18q-20 7 -36 11q-40 10 -76 10
q-28 0 -58 -11q-23 -8 -49 -23l-37 -24q-18 -11 -25 -11q-37 0 -37 57z" />
    <glyph glyph-name="afii10052" unicode="&#x403;" horiz-adv-x="490" 
d="M357 711q115 0 115 -76q0 -74 -115 -74h-132v-455q0 -115 -81 -115t-81 115v491q0 62 22 87q25 27 90 27h182zM415 955q0 -27 -26 -56l-76 -84q-28 -31 -54 -31q-54 0 -54 55q0 20 17 44l73 100q22 32 57 32q63 0 63 -60z" />
    <glyph glyph-name="afii10100" unicode="&#x453;" horiz-adv-x="432" 
d="M308 532q99 0 99 -70q0 -65 -99 -65h-97v-289q0 -115 -78 -115q-79 0 -79 115v286q0 138 98 138h156zM362 743q0 -25 -25 -54l-74 -81q-28 -31 -52 -31q-53 0 -53 54q0 20 17 42l70 97q22 32 56 32q61 0 61 -59z" />
    <glyph glyph-name="quotedblbase" unicode="&#x201e;" horiz-adv-x="501" 
d="M217 100q0 -21 -16 -51l-79 -144q-30 -55 -70 -55q-66 0 -66 63q0 22 16 50l79 144q30 55 70 55q66 0 66 -62zM466 100q0 -21 -16 -51l-79 -144q-30 -55 -70 -55q-66 0 -66 63q0 22 16 50l79 144q30 55 70 55q66 0 66 -62z" />
    <glyph glyph-name="ellipsis" unicode="&#x2026;" horiz-adv-x="998" 
d="M230 148q27 -26 27 -64t-27 -65q-26 -26 -64 -26t-65 26q-26 27 -26 65t27 64q27 27 64 27q38 0 64 -27zM563 148q27 -26 27 -64t-27 -65q-26 -26 -64 -26t-65 26q-26 27 -26 65t27 64q27 27 64 27q38 0 64 -27zM896 148q27 -26 27 -64t-27 -65q-26 -26 -64 -26t-65 26
q-26 27 -26 65t27 64q27 27 64 27q38 0 64 -27z" />
    <glyph glyph-name="dagger" unicode="&#x2020;" horiz-adv-x="537" 
d="M336 632v-118h99q77 0 77 -57q0 -58 -78 -58h-98v-473q0 -100 -67 -100q-68 0 -68 100v473h-98q-78 0 -78 58q0 57 79 57h97v118q0 99 68 99q67 0 67 -99z" />
    <glyph glyph-name="Euro" unicode="&#x20ac;" horiz-adv-x="651" 
d="M573 567q-18 111 -138 111q-82 0 -125 -66q-38 -60 -48 -178h274l-23 -53h-254l-1 -32q0 -24 1 -32h225l-23 -53h-200q17 -232 175 -232q53 0 88 25q40 29 49 85h27l-8 -104q-28 -28 -67 -41q-49 -17 -125 -17q-266 0 -300 284h-79l23 53h48q-2 20 -2 34l1 30h-70l23 53
h52q19 144 87 217q75 80 217 80q77 0 128 -17q39 -14 64 -39l8 -108h-27z" />
    <glyph glyph-name="afii10058" unicode="&#x409;" horiz-adv-x="1021" 
d="M289 561v-101q0 -43 -3 -81q-3 -45 -11 -87q-17 -99 -59 -186q-55 -115 -121 -115q-77 0 -77 69q0 35 32 79q82 111 82 242v216q0 64 25 89q24 25 87 25h274q63 0 88 -25q24 -25 24 -89v-141h87q119 0 190 -52q84 -60 84 -181q0 -93 -67 -156q-71 -67 -186 -67h-160
q-63 0 -86 21q-24 21 -24 81v459h-179zM630 138h81q110 0 110 91q0 89 -113 89h-78v-180z" />
    <glyph glyph-name="afii10059" unicode="&#x40a;" horiz-adv-x="1045" 
d="M492 456v152q0 115 81 115t81 -115v-152h87q119 0 190 -52q84 -60 84 -181q0 -93 -67 -156q-71 -67 -186 -67h-160q-63 0 -86 21q-24 21 -24 81v216h-267v-212q0 -115 -81 -115t-81 115v502q0 115 81 115t81 -115v-152h267zM654 138h81q110 0 110 91q0 89 -113 89h-78
v-180z" />
    <glyph glyph-name="afii10061" unicode="&#x40c;" horiz-adv-x="635" 
d="M225 608v-179l210 238q50 56 84 56q29 0 51 -22t22 -52q0 -37 -41 -80l-179 -187l217 -236q41 -46 41 -80q0 -31 -24 -53q-22 -22 -51 -22q-24 0 -45 16q-14 10 -42 41l-243 268v-210q0 -115 -81 -115t-81 115v502q0 115 81 115t81 -115zM481 955q0 -27 -26 -56l-76 -84
q-28 -31 -54 -31q-54 0 -54 55q0 20 17 44l73 100q22 32 57 32q63 0 63 -60z" />
    <glyph glyph-name="afii10060" unicode="&#x40b;" horiz-adv-x="760" 
d="M337 390q31 12 59 19q35 8 63 8q54 0 94 -10q46 -11 78 -36q74 -58 74 -198v-67q0 -115 -81 -115t-81 115v55q0 70 -23 97q-20 24 -70 24q-63 0 -113 -31v-145q0 -115 -81 -115t-81 115v455h-60q-115 0 -115 74q0 76 115 76h336q115 0 115 -76q0 -74 -115 -74h-114v-171z
" />
    <glyph glyph-name="afii10145" unicode="&#x40f;" horiz-adv-x="749" 
d="M524 150v458q0 115 81 115t81 -115v-493q0 -115 -81 -115h-152v-126q0 -115 -78 -115q-79 0 -79 115v126h-152q-81 0 -81 115v493q0 115 81 115t81 -115v-458h299z" />
    <glyph glyph-name="afii10099" unicode="&#x452;" horiz-adv-x="592" 
d="M211 648v-7h164q91 0 91 -60t-85 -60h-170v-115h1q43 46 134 46q192 0 192 -204v-197q0 -199 -64 -279q-58 -72 -191 -72q-62 0 -104 22q-51 26 -51 75q0 65 62 65q16 0 31 -4l53 -19q15 -4 29 -4q78 0 78 208v156q0 118 -84 118q-86 0 -86 -115v-93q0 -116 -78 -116
q-79 0 -79 115v413h-6q-85 0 -85 60t91 60v7q0 115 79 115q78 0 78 -115z" />
    <glyph glyph-name="quoteleft" unicode="&#x2018;" horiz-adv-x="250" 
d="M246 745q0 -21 -16 -51l-79 -144q-30 -55 -70 -55q-66 0 -66 63q0 22 16 50l79 144q30 55 70 55q66 0 66 -62z" />
    <glyph glyph-name="quoteright" unicode="&#x2019;" horiz-adv-x="250" 
d="M246 745q0 -21 -16 -51l-79 -144q-30 -55 -70 -55q-66 0 -66 63q0 22 16 50l79 144q30 55 70 55q66 0 66 -62z" />
    <glyph glyph-name="quotedblleft" unicode="&#x201c;" horiz-adv-x="471" 
d="M246 745q0 -21 -16 -51l-79 -144q-30 -55 -70 -55q-66 0 -66 63q0 22 16 50l79 144q30 55 70 55q66 0 66 -62zM467 745q0 -21 -16 -51l-79 -144q-30 -55 -70 -55q-66 0 -66 63q0 22 16 50l79 144q30 55 70 55q66 0 66 -62z" />
    <glyph glyph-name="quotedblright" unicode="&#x201d;" horiz-adv-x="471" 
d="M246 745q0 -21 -16 -51l-79 -144q-30 -55 -70 -55q-66 0 -66 63q0 22 16 50l79 144q30 55 70 55q66 0 66 -62zM467 745q0 -21 -16 -51l-79 -144q-30 -55 -70 -55q-66 0 -66 63q0 22 16 50l79 144q30 55 70 55q66 0 66 -62z" />
    <glyph glyph-name="bullet" unicode="&#x2022;" horiz-adv-x="465" 
d="M104 501q53 53 129 53q75 0 129 -53q53 -53 53 -129q0 -75 -54 -129t-129 -54q-76 0 -129 54q-53 53 -53 129t54 129z" />
    <glyph glyph-name="endash" unicode="&#x2013;" horiz-adv-x="540" 
d="M450 329q70 0 70 -51t-71 -51h-358q-71 0 -71 51t71 51h359z" />
    <glyph glyph-name="emdash" unicode="&#x2014;" horiz-adv-x="1020" 
d="M940 329q70 0 70 -51t-71 -51h-858q-71 0 -71 51t71 51h859z" />
    <glyph glyph-name="trademark" unicode="&#x2122;" horiz-adv-x="833" 
d="M595 674q15 40 61 40q50 0 50 -50v-189q0 -28 -33 -28t-33 28v172l-66 -176q-9 -24 -24 -24t-24 24l-68 176v-172q0 -28 -33 -28t-33 28v199q0 40 51 40q45 0 61 -42l46 -120zM329 714q21 0 21 -27q0 -28 -21 -28h-73v-180q0 -32 -35 -32q-38 0 -38 32v180h-73
q-21 0 -21 28q0 27 21 27h219z" />
    <glyph glyph-name="afii10106" unicode="&#x459;" horiz-adv-x="835" 
d="M215 397v-182q0 -88 -35 -154q-38 -74 -98 -74q-64 0 -64 66q0 16 8 34q3 7 8 16l10 17q12 22 18 37q8 23 8 46v214q0 115 83 115h268q84 0 84 -115v-56h68q127 0 186 -49q51 -42 51 -121q0 -84 -64 -137q-65 -54 -172 -54h-147q-79 0 -79 113v284h-133zM505 126h71
q77 0 77 64q0 59 -77 59h-71v-123z" />
    <glyph glyph-name="afii10107" unicode="&#x45a;" horiz-adv-x="861" 
d="M374 361v63q0 115 80 115q77 0 77 -115v-63h68q127 0 186 -49q51 -42 51 -121q0 -84 -64 -137q-65 -54 -172 -54h-147q-79 0 -79 113v136h-163v-140q0 -116 -79 -116q-78 0 -78 115v316q0 115 83 115q74 0 74 -114v-64h163zM531 126h71q77 0 77 64q0 59 -77 59h-71v-123z
" />
    <glyph glyph-name="afii10109" unicode="&#x45c;" horiz-adv-x="525" 
d="M211 424v-66l135 139q41 42 81 42q66 0 66 -60q0 -39 -40 -76l-106 -98l147 -173q31 -37 31 -76q0 -63 -74 -63q-46 0 -82 47l-158 210v-142q0 -115 -78 -115q-79 0 -79 115v316q0 115 79 115q78 0 78 -115zM431 743q0 -25 -25 -54l-74 -81q-28 -31 -52 -31q-53 0 -53 54
q0 20 17 42l70 97q22 32 56 32q61 0 61 -59z" />
    <glyph glyph-name="afii10108" unicode="&#x45b;" horiz-adv-x="592" 
d="M211 648v-7h164q91 0 91 -60t-85 -60h-170v-115h1q43 46 134 46q192 0 192 -204v-139q0 -116 -78 -116q-79 0 -79 115v91q0 118 -84 118q-86 0 -86 -115v-93q0 -116 -78 -116q-79 0 -79 115v413h-6q-85 0 -85 60t91 60v7q0 115 79 115q78 0 78 -115z" />
    <glyph glyph-name="afii10193" unicode="&#x45f;" horiz-adv-x="585" 
d="M375 135v289q0 115 80 115q77 0 77 -115v-311q0 -113 -81 -113h-83v-67q0 -115 -75 -115t-75 115v67h-83q-81 0 -81 113v311q0 115 83 115q74 0 74 -114v-290h164z" />
    <glyph glyph-name="afii10062" unicode="&#x40e;" horiz-adv-x="580" 
d="M150 702q16 -15 34 -48l130 -234l111 227q19 39 35 55q22 21 54 21q61 0 61 -71q0 -25 -28 -76l-263 -490q-50 -95 -103 -95q-69 0 -69 64q0 31 22 65l99 159l-182 285q-33 53 -33 88q0 33 28 54q24 17 55 17q28 0 49 -21zM197 782q-53 37 -53 85q0 55 52 55q18 0 33 -10
q9 -6 25 -22q16 -17 26 -23q15 -10 34 -10q16 0 28 10q5 4 10 11l10 12q12 15 22 22q16 10 37 10q53 0 53 -55q0 -48 -52 -86q-51 -36 -113 -36q-61 0 -112 37z" />
    <glyph glyph-name="afii10110" unicode="&#x45e;" horiz-adv-x="500" 
d="M162 463l89 -238l97 251q25 63 69 63q78 0 78 -75q0 -25 -13 -55l-240 -570q-27 -64 -69 -64q-78 0 -78 76q0 25 13 54l65 141l-159 371q-9 19 -9 44q0 78 77 78q52 0 80 -76zM166 592q-45 32 -45 73q0 46 45 46q23 0 48 -27q25 -28 45 -28q19 0 45 28q26 27 53 27
q44 0 44 -46q0 -42 -44 -73q-43 -31 -96 -31q-52 0 -95 31z" />
    <glyph glyph-name="afii10057" unicode="&#x408;" horiz-adv-x="458" 
d="M395 608v-391q0 -238 -208 -238q-81 0 -134 36q-51 35 -51 83q0 73 75 73q21 0 54 -18q33 -19 49 -19q53 0 53 135v339q0 115 81 115t81 -115z" />
    <glyph glyph-name="currency" unicode="&#xa4;" horiz-adv-x="606" 
d="M194 474q-48 -48 -48 -120q0 -69 43 -117q47 -52 120 -52q66 0 113 49q46 50 46 120q0 72 -46 119t-113 47q-69 0 -115 -46zM117 589l39 -41q56 53 153 53q42 0 80 -13q42 -14 68 -40l45 45q7 8 19 8q34 0 34 -37q0 -12 -10 -22l-39 -39q49 -55 49 -151q0 -90 -49 -148
l39 -39q10 -9 10 -25q0 -36 -36 -36q-9 0 -29 20l-33 35q-57 -55 -150 -55q-91 0 -149 55l-45 -43q-12 -12 -21 -12q-11 0 -22 12q-11 13 -11 26q0 6 4 13q3 6 7 10l37 39q-48 61 -48 147q0 94 48 152l-37 39q-11 13 -11 23q0 36 35 36q12 0 23 -12z" />
    <glyph glyph-name="afii10050" unicode="&#x490;" horiz-adv-x="490" 
d="M332 711v59q0 108 68 108q72 0 72 -108v-105q0 -104 -82 -104h-165v-455q0 -115 -81 -115t-81 115v491q0 62 22 87q25 27 90 27h157z" />
    <glyph glyph-name="section" unicode="&#xa7;" horiz-adv-x="541" 
d="M57 553q0 78 55 128q57 51 149 51q98 0 160 -47q57 -44 57 -105q0 -68 -64 -68q-34 0 -62 50q-30 53 -87 53q-67 0 -67 -50q0 -26 35 -48q15 -9 43 -23l60 -29q50 -24 80 -42q37 -22 60 -44q50 -49 50 -118q0 -99 -90 -152q48 -48 48 -115q0 -77 -57 -125
q-58 -50 -154 -50t-160 46q-61 44 -61 105q0 68 67 68q34 0 63 -50q30 -52 91 -52q70 0 70 50q0 26 -35 48q-14 9 -43 22l-20 10q-1 1 -4 2l-35 17q-50 24 -80 42q-37 23 -60 45q-51 48 -51 118q0 102 91 151q-49 48 -49 112zM389 243q0 28 -43 57q-41 28 -151 76
q-43 -27 -43 -68q0 -46 194 -133q43 23 43 68z" />
    <glyph glyph-name="afii10023" unicode="&#xa8;" horiz-adv-x="505" 
d="M225 433h114q115 0 115 -75t-115 -75h-114v-133h137q115 0 115 -75t-115 -75h-189q-64 0 -87 22t-23 80v495q0 62 22 87q25 27 90 27h182q115 0 115 -76q0 -74 -115 -74h-132v-128zM243 866q0 -72 -73 -72q-72 0 -72 72q0 73 72 73q73 0 73 -73zM446 866q0 -72 -73 -72
q-72 0 -72 72q0 73 72 73q73 0 73 -73z" />
    <glyph glyph-name="afii10023" unicode="&#x401;" horiz-adv-x="505" 
d="M225 433h114q115 0 115 -75t-115 -75h-114v-133h137q115 0 115 -75t-115 -75h-189q-64 0 -87 22t-23 80v495q0 62 22 87q25 27 90 27h182q115 0 115 -76q0 -74 -115 -74h-132v-128zM243 866q0 -72 -73 -72q-72 0 -72 72q0 73 72 73q73 0 73 -73zM446 866q0 -72 -73 -72
q-72 0 -72 72q0 73 72 73q73 0 73 -73z" />
    <glyph glyph-name="afii10053" unicode="&#x404;" horiz-adv-x="632" 
d="M520 703q73 -33 73 -86q0 -67 -70 -67q-19 0 -34 4l-24 10q-16 6 -31 9q-22 4 -53 4q-62 0 -109 -39q-48 -40 -56 -102h172q114 0 114 -76q0 -74 -114 -74h-175q30 -152 173 -152q17 0 36 6l30 12q1 0 2 1l2 1q22 9 35 13q20 6 38 6q73 0 73 -71q0 -56 -64 -90
q-62 -33 -160 -33q-156 0 -252 103q-96 104 -96 273q0 165 99 271q98 106 251 106q77 0 140 -29z" />
    <glyph glyph-name="guillemotleft" unicode="&#xab;" horiz-adv-x="509" 
d="M256 419q0 -24 -33 -63l-83 -99l83 -99q33 -39 33 -63q0 -36 -44 -36q-34 0 -71 46l-126 152l126 152q37 46 71 46q44 0 44 -36zM489 419q0 -24 -33 -63l-83 -99l83 -99q33 -39 33 -63q0 -36 -44 -36q-34 0 -71 46l-126 152l126 152q37 46 71 46q44 0 44 -36z" />
    <glyph glyph-name="logicalnot" unicode="&#xac;" horiz-adv-x="468" 
d="M378 329q70 0 70 -51v-151q0 -70 -51 -70t-51 71v99h-251q-71 0 -71 51t71 51h283z" />
    <glyph glyph-name="registered" unicode="&#xae;" horiz-adv-x="833" 
d="M677 613q103 -105 103 -255q0 -153 -107 -257q-109 -106 -257 -106q-150 0 -258 110q-104 106 -104 253q0 99 53 189q103 175 309 175q154 0 261 -109zM206 576q-92 -92 -92 -217t87 -212q90 -92 215 -92q121 0 215 89q89 86 89 209q0 130 -86 218q-89 91 -217 91
q-125 0 -211 -86zM424 567q172 0 172 -116q0 -85 -88 -107l90 -180h-109l-77 165h-48v-165h-98v403h158zM364 388h48q83 0 83 57q0 60 -88 60h-43v-117z" />
    <glyph glyph-name="afii10056" unicode="&#x407;" horiz-adv-x="296" 
d="M229 608v-502q0 -115 -81 -115t-81 115v502q0 115 81 115t81 -115zM112 866q0 -72 -73 -72q-72 0 -72 72q0 73 72 73q73 0 73 -73zM329 866q0 -72 -73 -72q-72 0 -72 72q0 73 72 73q73 0 73 -73z" />
    <glyph glyph-name="degree" unicode="&#xb0;" horiz-adv-x="366" 
d="M98 567q0 -36 25 -61t60 -25t60 25q25 26 25 61q0 34 -24 59q-25 26 -61 26q-85 0 -85 -85zM289 670q42 -44 42 -104q0 -61 -43 -104q-44 -44 -106 -44t-104 43q-43 43 -43 105q0 60 42 104q43 45 106 45t106 -45z" />
    <glyph glyph-name="plusminus" unicode="&#xb1;" horiz-adv-x="830" 
d="M665 102q70 0 70 -51t-71 -51h-498q-71 0 -71 51q0 53 71 51h499zM665 482q70 0 70 -51t-71 -51h-198v-151q0 -70 -51 -70t-51 71v150h-198q-71 0 -71 51t71 51h198v150q0 71 51 71t51 -71v-150h199z" />
    <glyph glyph-name="afii10055" unicode="&#x406;" horiz-adv-x="296" 
d="M229 608v-502q0 -115 -81 -115t-81 115v502q0 115 81 115t81 -115z" />
    <glyph glyph-name="afii10103" unicode="&#x456;" horiz-adv-x="275" 
d="M216 425v-317q0 -115 -78 -115q-79 0 -79 115v317q0 114 79 114q78 0 78 -114zM202 738q26 -26 26 -64t-26 -65q-26 -26 -64 -26t-65 26q-26 27 -26 65q0 37 27 64q26 26 64 26t64 -26z" />
    <glyph glyph-name="afii10098" unicode="&#x491;" horiz-adv-x="432" 
d="M277 532v54q0 104 65 104t65 -104v-80q0 -55 -14 -80q-16 -29 -59 -29h-123v-289q0 -115 -78 -115q-79 0 -79 115v286q0 138 98 138h125z" />
    <glyph glyph-name="paragraph" unicode="&#xb6;" horiz-adv-x="520" 
d="M301 647v-808q0 -70 -51 -70t-51 71v543q-78 0 -128 46q-51 47 -51 123q0 79 55 126q53 44 136 44h192q76 0 76 -83v-800q0 -70 -51 -70t-51 71v807h-76z" />
    <glyph glyph-name="afii10071" unicode="&#xb8;" horiz-adv-x="572" 
d="M187 223q12 -98 119 -98q27 0 54 8q20 6 45 18l37 17q18 8 30 8q63 0 63 -61q0 -49 -67 -87q-71 -41 -170 -41q-117 0 -195 79q-78 80 -78 200t76 200t189 80q111 0 185 -77q72 -74 72 -182q0 -64 -78 -64h-282zM394 325q-7 93 -103 93q-87 0 -105 -93h208zM249 700
q0 -72 -73 -72q-72 0 -72 72q0 73 72 73q73 0 73 -73zM465 700q0 -72 -73 -72q-72 0 -72 72q0 73 72 73q73 0 73 -73z" />
    <glyph glyph-name="afii10071" unicode="&#x451;" horiz-adv-x="572" 
d="M187 223q12 -98 119 -98q27 0 54 8q20 6 45 18l37 17q18 8 30 8q63 0 63 -61q0 -49 -67 -87q-71 -41 -170 -41q-117 0 -195 79q-78 80 -78 200t76 200t189 80q111 0 185 -77q72 -74 72 -182q0 -64 -78 -64h-282zM394 325q-7 93 -103 93q-87 0 -105 -93h208zM249 700
q0 -72 -73 -72q-72 0 -72 72q0 73 72 73q73 0 73 -73zM465 700q0 -72 -73 -72q-72 0 -72 72q0 73 72 73q73 0 73 -73z" />
    <glyph glyph-name="afii61352" unicode="&#x2116;" horiz-adv-x="1193" 
d="M224 667l299 -395v336q0 115 81 115t81 -115v-520q0 -97 -74 -97q-52 0 -112 80l-274 362v-327q0 -115 -81 -115t-81 115v505q0 112 75 112q43 0 86 -56zM878 460q0 -39 22 -66q23 -28 59 -28q79 0 79 94q0 92 -79 92q-81 0 -81 -92zM1102 601q56 -56 56 -143
q0 -86 -56 -142q-56 -55 -143 -55q-88 0 -145 55q-56 56 -56 142q0 88 58 144q57 55 143 55t143 -56zM1052 194q78 0 78 -68q0 -67 -79 -67h-203q-78 0 -78 68q0 67 78 67h204z" />
    <glyph glyph-name="afii10101" unicode="&#x454;" horiz-adv-x="503" 
d="M415 522q58 -28 58 -75q0 -63 -67 -63q-13 0 -25 4l-21 10q-14 6 -26 9q-18 4 -40 4q-79 0 -107 -69h110q101 0 101 -68q0 -58 -89 -58h-122q30 -94 117 -94q17 0 32 5q9 2 24 10q15 7 23 9q14 5 30 5q59 0 59 -59q0 -43 -53 -74t-132 -31q-114 0 -189 83q-73 80 -73 196
q0 125 75 202q75 78 196 78q69 0 119 -24z" />
    <glyph glyph-name="guillemotright" unicode="&#xbb;" horiz-adv-x="509" 
d="M368 409l126 -152l-126 -152q-37 -46 -71 -46q-44 0 -44 36q0 24 33 63l83 99l-83 99q-33 39 -33 63q0 36 44 36q34 0 71 -46zM135 409l126 -152l-126 -152q-37 -46 -71 -46q-44 0 -44 36q0 24 33 63l83 99l-83 99q-33 39 -33 63q0 36 44 36q34 0 71 -46z" />
    <glyph glyph-name="afii10105" unicode="&#x458;" horiz-adv-x="275" 
d="M216 425v-530q0 -115 -78 -115q-79 0 -79 115v530q0 114 79 114q78 0 78 -114zM74 738q26 26 64 26t64 -26t26 -64t-26 -65q-26 -26 -64 -26t-65 26q-26 27 -26 65q0 37 27 64z" />
    <glyph glyph-name="afii10054" unicode="&#x405;" horiz-adv-x="566" 
d="M437 700q53 -31 53 -75q0 -69 -73 -69q-13 0 -30 4q-10 2 -32 9l-32 9q-19 4 -33 4q-79 0 -79 -62q0 -34 34 -51q14 -7 41 -16q5 -1 12 -4q2 0 7 -2q5 -1 6 -2l29 -9q196 -65 196 -216q0 -105 -74 -172q-77 -69 -202 -69q-97 0 -165 36q-65 35 -65 80q0 73 80 73
q14 0 35 -6l41 -13q27 -10 46 -14q27 -6 51 -6q80 0 80 76q0 39 -33 62q-24 16 -91 36q-107 32 -152 75q-49 46 -49 127q0 98 70 162q72 65 188 65q86 0 141 -32z" />
    <glyph glyph-name="afii10102" unicode="&#x455;" horiz-adv-x="456" 
d="M370 513q52 -31 52 -74q0 -66 -65 -66q-13 0 -30 6q-7 2 -16 6l-12 5q0 1 -2 1q-1 1 -2 1q-21 9 -32 13q-19 6 -33 6q-36 0 -36 -27q0 -19 29 -33q10 -5 34 -15l45 -18q129 -58 129 -153q0 -76 -58 -126q-60 -52 -153 -52q-87 0 -141 32q-54 31 -54 80q0 69 60 69
q19 0 39 -7q8 -3 18 -8q4 -1 8 -4l17 -8q5 -3 9 -4q9 -5 17 -8q20 -7 39 -7q44 0 44 37q0 26 -87 58q-150 55 -150 161q0 72 55 119q55 49 142 49q80 0 134 -33z" />
    <glyph glyph-name="afii10104" unicode="&#x457;" horiz-adv-x="275" 
d="M216 425v-317q0 -115 -78 -115q-79 0 -79 115v317q0 114 79 114q78 0 78 -114zM101 709q0 -72 -73 -72q-72 0 -72 72q0 73 72 73q73 0 73 -73zM319 709q0 -72 -73 -72q-72 0 -72 72q0 73 72 73q73 0 73 -73z" />
    <glyph glyph-name="afii10017" unicode="&#x410;" horiz-adv-x="637" 
d="M399 284l-81 263l-88 -263h169zM441 629l180 -511q11 -31 11 -51q0 -76 -80 -76q-60 0 -85 79l-20 64h-263l-24 -70q-24 -73 -78 -73q-77 0 -77 78q0 27 8 47l185 502q38 105 124 105q85 0 119 -94z" />
    <glyph glyph-name="afii10018" unicode="&#x411;" horiz-adv-x="616" 
d="M225 434h88q57 0 103 -10q51 -11 87 -35q83 -55 83 -175q0 -91 -66 -151q-71 -63 -187 -63h-160q-63 0 -86 20q-24 22 -24 82v495q0 64 25 89q24 25 87 25h221q115 0 115 -68q0 -70 -114 -70h-172v-139zM225 138h81q110 0 110 81q0 80 -113 80h-78v-161z" />
    <glyph glyph-name="afii10019" unicode="&#x412;" horiz-adv-x="616" 
d="M308 711q222 0 222 -177q0 -102 -88 -140q144 -36 144 -180q0 -214 -253 -214h-160q-64 0 -87 22t-23 80v495q0 62 22 87q25 27 90 27h133zM225 138h80q111 0 111 81q0 80 -113 80h-78v-161zM225 434h68q80 0 80 69q0 70 -82 70h-66v-139z" />
    <glyph glyph-name="afii10020" unicode="&#x413;" horiz-adv-x="490" 
d="M357 711q115 0 115 -76q0 -74 -115 -74h-132v-455q0 -115 -81 -115t-81 115v491q0 62 22 87q25 27 90 27h182z" />
    <glyph glyph-name="afii10021" unicode="&#x414;" horiz-adv-x="830" 
d="M175 0v-89q0 -115 -79 -115q-78 0 -78 115v117q0 122 97 122q42 41 59 114q14 58 14 149v184q0 64 25 89q24 25 87 25h300q63 0 88 -25q24 -25 24 -89v-447q43 0 68 -25q32 -31 32 -97v-117q0 -115 -78 -115q-79 0 -79 115v89h-480zM550 561h-205v-42q0 -63 -3 -113
q-3 -59 -10 -105q-18 -108 -59 -151h277v411z" />
    <glyph glyph-name="afii10022" unicode="&#x415;" horiz-adv-x="505" 
d="M225 433h114q115 0 115 -75t-115 -75h-114v-133h137q115 0 115 -75t-115 -75h-189q-64 0 -87 22t-23 80v495q0 62 22 87q25 27 90 27h182q115 0 115 -76q0 -74 -115 -74h-132v-128z" />
    <glyph glyph-name="afii10024" unicode="&#x416;" horiz-adv-x="982" 
d="M572 608v-179l210 238q50 56 84 56q29 0 51 -22t22 -52q0 -37 -41 -80l-179 -187l217 -236q41 -46 41 -80q0 -31 -24 -53q-22 -22 -51 -22q-24 0 -45 16q-14 10 -42 41l-243 268v-210q0 -115 -81 -115t-81 115v210l-243 -268q-28 -31 -42 -41q-21 -16 -45 -16
q-29 0 -51 22q-24 22 -24 53q0 34 41 80l217 236l-179 187q-41 43 -41 80q0 30 22 52t51 22q34 0 84 -56l210 -238v179q0 115 81 115t81 -115z" />
    <glyph glyph-name="afii10025" unicode="&#x417;" horiz-adv-x="613" 
d="M489 679q67 -53 67 -142q0 -99 -95 -146q122 -47 122 -182q0 -89 -78 -158q-81 -72 -195 -72q-67 0 -124 18q-51 16 -88 45q-72 55 -72 123q0 22 20 42q24 24 56 24q28 0 50 -18q9 -7 19 -18l17 -21q23 -27 42 -39q29 -18 69 -18q57 0 89 38q25 30 25 66q0 35 -18 57
q-23 27 -70 27h-59q-68 0 -68 70q0 65 68 65h36q92 0 92 86q0 68 -86 68q-56 0 -90 -20q-22 -13 -45 -44q-29 -38 -64 -38q-29 0 -45 23q-14 19 -14 46q0 66 72 117q76 54 182 54q117 0 185 -53z" />
    <glyph glyph-name="afii10026" unicode="&#x418;" horiz-adv-x="748" 
d="M225 608v-336l299 395q43 56 87 56q74 0 74 -112v-505q0 -115 -81 -115t-81 115v327l-293 -387q-41 -55 -93 -55q-74 0 -74 97v520q0 115 81 115t81 -115z" />
    <glyph glyph-name="afii10027" unicode="&#x419;" horiz-adv-x="748" 
d="M225 608v-336l299 395q43 56 87 56q74 0 74 -112v-505q0 -115 -81 -115t-81 115v327l-293 -387q-41 -55 -93 -55q-74 0 -74 97v520q0 115 81 115t81 -115zM278 782q-53 37 -53 85q0 55 52 55q18 0 33 -10q9 -6 25 -22q16 -17 26 -23q15 -10 34 -10q16 0 28 10q5 4 10 11
l7 8q2 2 3 4q12 15 22 22q16 10 37 10q53 0 53 -55q0 -48 -52 -86q-51 -36 -113 -36q-61 0 -112 37z" />
    <glyph glyph-name="afii10028" unicode="&#x41a;" horiz-adv-x="635" 
d="M225 608v-179l210 238q50 56 84 56q29 0 51 -22t22 -52q0 -37 -41 -80l-179 -187l217 -236q41 -46 41 -80q0 -31 -24 -53q-22 -22 -51 -22q-24 0 -45 16q-14 10 -42 41l-243 268v-210q0 -115 -81 -115t-81 115v502q0 115 81 115t81 -115z" />
    <glyph glyph-name="afii10029" unicode="&#x41b;" horiz-adv-x="719" 
d="M289 561v-101q0 -43 -3 -81q-3 -45 -11 -87q-17 -99 -59 -186q-55 -115 -121 -115q-77 0 -77 69q0 35 32 79q82 111 82 242v216q0 64 25 89q24 25 87 25h300q63 0 88 -25q24 -25 24 -89v-491q0 -115 -81 -115t-81 115v455h-205z" />
    <glyph glyph-name="afii10030" unicode="&#x41c;" horiz-adv-x="869" 
d="M334 624l108 -425l101 426q24 98 111 98q94 0 114 -120l79 -489q4 -23 4 -39q0 -84 -82 -84q-70 0 -80 94l-50 425h-1l-110 -438q-10 -39 -26 -57q-22 -24 -64 -24q-75 0 -95 81l-104 438h-1l-56 -415q-15 -104 -85 -104q-79 0 -79 84q0 18 6 49l87 485q20 114 110 114
q89 0 113 -99z" />
    <glyph glyph-name="afii10031" unicode="&#x41d;" horiz-adv-x="748" 
d="M523 437v171q0 115 81 115t81 -115v-502q0 -115 -81 -115t-81 115v181h-298v-181q0 -115 -81 -115t-81 115v502q0 115 81 115t81 -115v-171h298z" />
    <glyph glyph-name="afii10032" unicode="&#x41e;" horiz-adv-x="758" 
d="M631 629q97 -104 97 -274q0 -168 -96 -272t-253 -104t-253 104q-96 103 -96 272t97 273q96 104 252 104t252 -103zM254 518q-48 -61 -48 -165q0 -100 48 -160q48 -59 125 -59t125 59q48 60 48 160q0 104 -48 165q-47 59 -125 59t-125 -59z" />
    <glyph glyph-name="afii10033" unicode="&#x41f;" horiz-adv-x="748" 
d="M225 561v-455q0 -115 -81 -115t-81 115v491q0 64 25 89q24 25 87 25h398q63 0 88 -25q24 -25 24 -89v-491q0 -115 -81 -115t-81 115v455h-298z" />
    <glyph glyph-name="afii10034" unicode="&#x420;" horiz-adv-x="612" 
d="M225 375h70q111 0 111 94q0 93 -111 93h-70v-187zM321 711q121 0 192 -66q69 -65 69 -176q0 -112 -65 -176q-66 -65 -183 -65h-109v-122q0 -115 -81 -115t-81 115v491q0 62 22 87q25 27 90 27h146z" />
    <glyph glyph-name="afii10035" unicode="&#x421;" horiz-adv-x="630" 
d="M534 699q59 -31 59 -75q0 -29 -21 -52q-21 -24 -49 -24q-12 0 -29 5q-7 1 -17 4l-17 6q-22 6 -37 9q-22 5 -42 5q-78 0 -126 -62q-49 -62 -49 -164q0 -99 49 -158t131 -59q23 0 47 6q17 4 40 14l13 5q3 1 4 2q10 4 17 6q18 6 30 6q25 0 45 -21q20 -22 20 -50
q0 -49 -62 -85q-65 -38 -162 -38q-156 0 -251 102q-97 103 -97 274q0 168 102 274q99 103 249 103q92 0 153 -33z" />
    <glyph glyph-name="afii10036" unicode="&#x422;" horiz-adv-x="512" 
d="M397 711q115 0 115 -76q0 -74 -115 -74h-60v-455q0 -115 -81 -115t-81 115v455h-60q-115 0 -115 74q0 76 115 76h282z" />
    <glyph glyph-name="afii10037" unicode="&#x423;" horiz-adv-x="580" 
d="M150 702q16 -15 34 -48l130 -234l111 227q19 39 35 55q22 21 54 21q61 0 61 -71q0 -25 -28 -76l-263 -490q-50 -95 -103 -95q-69 0 -69 64q0 31 22 65l99 159l-182 285q-33 53 -33 88q0 33 28 54q24 17 55 17q28 0 49 -21z" />
    <glyph glyph-name="afii10038" unicode="&#x424;" horiz-adv-x="914" 
d="M538 625v-20h86q119 0 189 -64q71 -65 71 -178q0 -110 -71 -177q-69 -64 -176 -64h-99v-31q0 -100 -81 -100t-81 100v31h-99q-247 0 -247 241q0 113 70 178q70 64 190 64h86v20q0 98 81 98t81 -98zM538 259h60q110 0 110 104t-110 104h-60v-208zM376 467h-60
q-110 0 -110 -104t110 -104h60v208z" />
    <glyph glyph-name="afii10039" unicode="&#x425;" horiz-adv-x="607" 
d="M205 658l100 -140l102 142q45 63 86 63q27 0 49 -23q22 -22 22 -49q0 -31 -36 -82l-131 -182l173 -244q37 -53 37 -82q0 -27 -22 -48q-22 -22 -52 -22q-45 0 -88 61l-144 202l-143 -201q-43 -62 -85 -62q-29 0 -51 22t-22 49q0 31 36 82l173 241l-130 182q-36 50 -36 80
q0 76 79 76q36 0 83 -65z" />
    <glyph glyph-name="afii10040" unicode="&#x426;" horiz-adv-x="813" 
d="M523 150v458q0 115 81 115t81 -115v-458q62 0 85 -25q25 -27 25 -98v-116q0 -115 -78 -115q-79 0 -79 115v89h-494q-81 0 -81 115v493q0 115 81 115t81 -115v-458h298z" />
    <glyph glyph-name="afii10041" unicode="&#x427;" horiz-adv-x="696" 
d="M212 608v-112q0 -69 29 -97q24 -24 76 -24q83 0 154 62v171q0 115 81 115t81 -115v-502q0 -115 -81 -115t-81 115v181q-30 -18 -72 -31q-51 -16 -91 -16q-54 0 -96 10q-48 11 -82 36q-38 28 -58 74q-22 51 -22 124v124q0 115 81 115t81 -115z" />
    <glyph glyph-name="afii10042" unicode="&#x428;" horiz-adv-x="1042" 
d="M440 150v458q0 115 81 115t81 -115v-458h215v458q0 115 81 115t81 -115v-493q0 -115 -81 -115h-754q-81 0 -81 115v493q0 115 81 115t81 -115v-458h215z" />
    <glyph glyph-name="afii10043" unicode="&#x429;" horiz-adv-x="1107" 
d="M440 150v458q0 115 81 115t81 -115v-458h215v458q0 115 81 115t81 -115v-458q62 0 85 -25q25 -27 25 -98v-116q0 -115 -78 -115q-79 0 -79 115v89h-788q-81 0 -81 115v493q0 115 81 115t81 -115v-458h215z" />
    <glyph glyph-name="afii10044" unicode="&#x42a;" horiz-adv-x="733" 
d="M261 711q81 0 81 -115v-140h87q119 0 190 -52q84 -60 84 -181q0 -93 -67 -156q-71 -67 -186 -67h-160q-63 0 -86 21q-24 21 -24 81v459h-59q-66 0 -92 18q-24 16 -24 56q0 39 24 57q26 19 92 19h140zM342 138h81q110 0 110 91q0 89 -113 89h-78v-180z" />
    <glyph glyph-name="afii10045" unicode="&#x42b;" horiz-adv-x="868" 
d="M805 608v-502q0 -115 -81 -115t-81 115v502q0 115 81 115t81 -115zM225 608v-152h87q119 0 190 -52q84 -60 84 -181q0 -93 -67 -156q-71 -67 -186 -67h-160q-63 0 -86 21q-24 21 -24 81v506q0 115 81 115t81 -115zM225 138h81q110 0 110 91q0 89 -113 89h-78v-180z" />
    <glyph glyph-name="afii10046" unicode="&#x42c;" horiz-adv-x="616" 
d="M225 608v-152h87q119 0 190 -52q84 -60 84 -181q0 -93 -67 -156q-71 -67 -186 -67h-160q-63 0 -86 21q-24 21 -24 81v506q0 115 81 115t81 -115zM225 138h81q110 0 110 91q0 89 -113 89h-78v-180z" />
    <glyph glyph-name="afii10047" unicode="&#x42d;" horiz-adv-x="632" 
d="M504 626q98 -106 98 -271q0 -169 -96 -273q-96 -103 -252 -103q-98 0 -160 33q-64 34 -64 90q0 71 73 71q18 0 38 -6q13 -4 35 -13l2 -1q1 -1 2 -1l30 -12q19 -6 36 -6q143 0 173 152h-175q-114 0 -114 74q0 76 114 76h172q-8 62 -56 102q-47 39 -109 39q-31 0 -53 -4
q-15 -3 -31 -9l-24 -10q-15 -4 -34 -4q-70 0 -70 67q0 53 73 86q63 29 140 29q153 0 252 -106z" />
    <glyph glyph-name="afii10048" unicode="&#x42e;" horiz-adv-x="1080" 
d="M359 437q23 135 114 215q93 80 228 80q156 0 252 -103q97 -104 97 -274q0 -168 -96 -272t-253 -104q-140 0 -233 84q-92 83 -111 224h-132v-181q0 -115 -81 -115t-81 115v502q0 115 81 115t81 -115v-171h134zM576 518q-48 -61 -48 -165q0 -100 48 -160q48 -59 125 -59
t125 59q48 60 48 160q0 104 -48 165q-47 59 -125 59t-125 -59z" />
    <glyph glyph-name="afii10049" unicode="&#x42f;" horiz-adv-x="621" 
d="M446 711q63 0 88 -25q24 -25 24 -89v-491q0 -115 -81 -115t-81 115v165l-199 -227q-46 -53 -98 -53q-69 0 -69 71q0 42 52 93l136 130q-170 51 -170 214q0 95 62 151q68 61 196 61h140zM396 562h-77q-101 0 -101 -85q0 -98 103 -98h75v183z" />
    <glyph glyph-name="afii10065" unicode="&#x430;" horiz-adv-x="603" 
d="M217 364q-30 -38 -30 -96q0 -60 29 -98q29 -39 73 -39t73 39q30 40 30 98q0 57 -30 96q-30 38 -73 38t-72 -38zM264 -13q-99 0 -168 78q-71 80 -71 201q0 119 72 200q71 80 173 80q78 0 126 -57q28 50 75 50q78 0 78 -114v-317q0 -115 -78 -115q-50 0 -75 55
q-50 -61 -132 -61z" />
    <glyph glyph-name="afii10066" unicode="&#x431;" horiz-adv-x="612" 
d="M513 65q-75 -78 -192 -78q-118 0 -191 72q-76 75 -76 207v97q0 62 5 108q6 57 19 102q33 105 117 164q35 25 77 43q31 13 74 26l26 7q2 1 9 2q22 6 33 10q36 11 59 22q25 13 49 13q65 0 65 -68q0 -44 -44 -74q-36 -23 -99 -42l-123 -34q-40 -11 -64 -21q-32 -14 -53 -34
q-50 -46 -50 -140q35 46 75 69q50 30 112 30q106 0 173 -68q73 -75 73 -212q0 -123 -74 -201zM216 268q0 -60 29 -98q29 -39 76 -39q104 0 104 137q0 57 -25 94q-28 40 -79 40q-105 0 -105 -134z" />
    <glyph glyph-name="afii10067" unicode="&#x432;" horiz-adv-x="572" 
d="M494 254q48 -37 48 -95q0 -76 -59 -119q-54 -40 -136 -40h-212q-81 0 -81 113v311q0 115 95 115h205q161 0 161 -125q0 -44 -34 -79q-30 -31 -71 -44q48 -8 84 -37zM211 327h91q63 0 63 49q0 18 -11 29q-14 15 -47 15h-96v-93zM211 126h98q78 0 78 58q0 49 -78 49h-98
v-107z" />
    <glyph glyph-name="afii10068" unicode="&#x433;" horiz-adv-x="432" 
d="M308 532q99 0 99 -70q0 -65 -99 -65h-97v-289q0 -115 -78 -115q-79 0 -79 115v286q0 138 98 138h156z" />
    <glyph glyph-name="afii10069" unicode="&#x434;" horiz-adv-x="635" 
d="M463 532q42 0 62 -23q22 -27 22 -92v-282q76 0 76 -100v-102q0 -115 -75 -115t-75 115v67h-318v-67q0 -115 -76 -115q-74 0 -74 115v102q0 54 13 74q16 26 63 26q31 47 31 104v178q0 68 22 94q18 21 61 21h268zM257 397v-182q0 -18 -9 -46q-4 -12 -8 -21q-5 -10 -9 -13
h159v262h-133z" />
    <glyph glyph-name="afii10070" unicode="&#x435;" horiz-adv-x="572" 
d="M187 223q12 -98 119 -98q27 0 54 8q20 6 45 18l37 17q18 8 30 8q63 0 63 -61q0 -49 -67 -87q-71 -41 -170 -41q-117 0 -195 79q-78 80 -78 200t76 200t189 80q111 0 185 -77q72 -74 72 -182q0 -64 -78 -64h-282zM394 325q-7 93 -103 93q-87 0 -105 -93h208z" />
    <glyph glyph-name="afii10072" unicode="&#x436;" horiz-adv-x="795" 
d="M476 425v-67l134 139q41 42 82 42q65 0 65 -60q0 -39 -40 -76l-106 -98l147 -173q31 -37 31 -76q0 -63 -74 -63q-46 0 -82 47l-157 210v-142q0 -115 -80 -115q-77 0 -77 114v142l-157 -210q-35 -46 -82 -46q-74 0 -74 62q0 39 31 76l147 173l-106 98q-40 37 -40 76
q0 61 66 61q39 0 81 -43l134 -139v67q0 115 77 115q80 0 80 -114z" />
    <glyph glyph-name="afii10073" unicode="&#x437;" horiz-adv-x="533" 
d="M429 512q57 -37 57 -104q0 -41 -28 -74q-23 -28 -64 -47q109 -24 109 -121q0 -80 -70 -130q-70 -49 -181 -49q-92 0 -160 41q-67 40 -67 92q0 62 59 62q26 0 43 -11q7 -5 14 -12q3 -2 7 -6l4 -4q1 -2 3 -3q18 -17 36 -25q27 -11 68 -11q87 0 87 70q0 49 -71 49h-35
q-57 0 -57 51q0 47 57 47h27q62 0 62 50q0 46 -70 46q-27 0 -52 -8q-18 -6 -38 -17l-16 -9q-9 -6 -15 -8q-15 -8 -26 -8q-25 0 -45 20q-20 19 -20 42q0 48 72 80q68 31 159 31q96 0 151 -34z" />
    <glyph glyph-name="afii10074" unicode="&#x438;" horiz-adv-x="583" 
d="M211 424v-172l161 241q31 46 78 46q79 0 79 -115v-316q0 -115 -79 -115q-78 0 -78 115v166l-182 -253q-20 -28 -58 -28q-78 0 -78 115v316q0 115 78 115q79 0 79 -115z" />
    <glyph glyph-name="afii10075" unicode="&#x439;" horiz-adv-x="583" 
d="M211 424v-172l161 241q31 46 78 46q79 0 79 -115v-316q0 -115 -79 -115q-78 0 -78 115v166l-182 -253q-20 -28 -58 -28q-78 0 -78 115v316q0 115 78 115q79 0 79 -115zM203 592q-45 32 -45 73q0 46 45 46q23 0 48 -27q25 -28 45 -28q19 0 45 28q26 27 53 27q44 0 44 -46
q0 -42 -44 -73q-43 -31 -96 -31q-52 0 -95 31z" />
    <glyph glyph-name="afii10076" unicode="&#x43a;" horiz-adv-x="525" 
d="M211 424v-66l135 139q41 42 81 42q66 0 66 -60q0 -39 -40 -76l-106 -98l147 -173q31 -37 31 -76q0 -63 -74 -63q-46 0 -82 47l-158 210v-142q0 -115 -78 -115q-79 0 -79 115v316q0 115 79 115q78 0 78 -115z" />
    <glyph glyph-name="afii10077" unicode="&#x43b;" horiz-adv-x="559" 
d="M215 397v-182q0 -88 -35 -154q-38 -74 -98 -74q-64 0 -64 66q0 16 8 34q3 7 8 16l10 17q12 22 18 37q8 23 8 46v214q0 115 83 115h268q84 0 84 -115v-309q0 -115 -79 -115q-78 0 -78 115v289h-133z" />
    <glyph glyph-name="afii10078" unicode="&#x43c;" horiz-adv-x="809" 
d="M242 482l167 -287l165 298q25 46 74 46q42 0 62 -21q24 -26 29 -94l25 -337q0 -94 -70 -94q-77 0 -86 115l-13 163l-116 -216q-33 -62 -75 -62q-39 0 -75 67l-114 211l-14 -163q-10 -115 -86 -115q-70 0 -70 93l26 338q5 64 29 91q20 24 61 24q48 0 81 -57z" />
    <glyph glyph-name="afii10079" unicode="&#x43d;" horiz-adv-x="585" 
d="M374 342v82q0 115 80 115q77 0 77 -115v-316q0 -115 -79 -115q-78 0 -78 115v108h-163v-107q0 -116 -79 -116q-78 0 -78 115v316q0 115 83 115q74 0 74 -114v-83h163z" />
    <glyph glyph-name="afii10080" unicode="&#x43e;" horiz-adv-x="583" 
d="M484 468q74 -79 74 -202t-74 -201q-75 -78 -192 -78t-192 78t-75 201t75 202q76 78 192 78q117 0 192 -78zM218 365q-31 -38 -31 -98q0 -136 105 -136q104 0 104 137q0 59 -30 97q-30 37 -74 37q-45 0 -74 -37z" />
    <glyph glyph-name="afii10081" unicode="&#x43f;" horiz-adv-x="585" 
d="M531 108q0 -115 -78 -115q-79 0 -79 115v289h-163v-289q0 -115 -77 -115q-80 0 -80 115v309q0 64 21 91q18 24 59 24h319q40 0 57 -21q21 -27 21 -94v-309z" />
    <glyph glyph-name="afii10082" unicode="&#x440;" horiz-adv-x="603" 
d="M338 546q101 0 170 -77q70 -79 70 -199q0 -118 -71 -201q-71 -82 -171 -82q-70 0 -125 47v-135q0 -115 -78 -115q-79 0 -79 115v530q0 110 79 110q49 0 75 -46q48 53 130 53zM211 267q0 -136 102 -136q103 0 103 137q0 59 -30 97q-29 37 -73 37q-102 0 -102 -135z" />
    <glyph glyph-name="afii10083" unicode="&#x441;" horiz-adv-x="497" 
d="M424 518q48 -28 48 -73q0 -67 -65 -67q-9 0 -23 4q-5 1 -13 4q-2 0 -7 2q-5 1 -6 2q-37 12 -62 12q-48 0 -78 -38q-31 -38 -31 -99q0 -134 115 -134q26 0 62 12l6 2q5 2 7 2q7 3 12 4q13 4 21 4q61 0 61 -68q0 -42 -51 -71q-53 -29 -134 -29q-116 0 -188 77
q-73 77 -73 202q0 124 74 201q75 79 197 79q79 0 128 -28z" />
    <glyph glyph-name="afii10084" unicode="&#x442;" horiz-adv-x="500" 
d="M395 532q95 0 95 -67q0 -68 -96 -68h-66v-289q0 -115 -77 -115q-80 0 -80 115v289h-70q-91 0 -91 68q0 67 89 67h296z" />
    <glyph glyph-name="afii10085" unicode="&#x443;" horiz-adv-x="500" 
d="M162 463l89 -238l97 251q25 63 69 63q78 0 78 -75q0 -25 -13 -55l-240 -570q-27 -64 -69 -64q-78 0 -78 76q0 25 13 54l65 141l-159 371q-9 19 -9 44q0 78 77 78q52 0 80 -76z" />
    <glyph glyph-name="afii10086" unicode="&#x444;" horiz-adv-x="939" 
d="M548 649v-157q49 54 126 54q101 0 170 -80q70 -81 70 -200q0 -117 -70 -198t-172 -81q-74 0 -124 42v-134q0 -115 -79 -115q-78 0 -78 115v134q-51 -42 -125 -42q-101 0 -171 82t-70 199q0 119 70 199q69 79 171 79q76 0 125 -54v157q0 115 78 115q79 0 79 -115zM576 362
q-28 -39 -28 -98q0 -133 101 -133q103 0 103 133q0 58 -29 98t-74 40q-44 0 -73 -40zM216 362q-29 -39 -29 -97q0 -134 102 -134t102 133q0 59 -28 98q-28 40 -73 40t-74 -40z" />
    <glyph glyph-name="afii10087" unicode="&#x445;" horiz-adv-x="513" 
d="M163 506l96 -111l88 108q30 36 64 36q33 0 57 -23t24 -54q0 -30 -35 -68l-104 -111l123 -139q19 -21 26 -34q11 -20 11 -44q0 -73 -72 -73q-37 0 -72 41l-113 134l-112 -134q-35 -41 -68 -41q-76 0 -76 78q0 33 33 69l131 144l-110 112q-30 32 -30 64q0 31 22 55t52 24
q36 0 65 -33z" />
    <glyph glyph-name="afii10088" unicode="&#x446;" horiz-adv-x="622" 
d="M373 135v289q0 115 79 115q78 0 78 -119v-285q37 0 55 -20q22 -24 22 -80v-102q0 -119 -72 -119q-78 0 -78 115v71h-324q-79 0 -79 115v309q0 115 79 115q78 0 78 -115v-289h162z" />
    <glyph glyph-name="afii10089" unicode="&#x447;" horiz-adv-x="561" 
d="M187 424v-53q0 -83 75 -83q88 0 88 66v70q0 115 78 115q79 0 79 -115v-316q0 -115 -79 -115q-78 0 -78 115v91q0 -3 -31 -13q-18 -6 -38 -9q-25 -4 -51 -4q-86 0 -139 43q-61 48 -61 141v67q0 115 80 115q77 0 77 -115z" />
    <glyph glyph-name="afii10090" unicode="&#x448;" horiz-adv-x="899" 
d="M371 135v289q0 115 78 115q79 0 79 -115v-289h160v289q0 115 78 115q79 0 79 -115v-309q0 -115 -76 -115h-638q-77 0 -77 115v308q0 116 77 116q80 0 80 -115v-289h160z" />
    <glyph glyph-name="afii10091" unicode="&#x449;" horiz-adv-x="937" 
d="M371 135v289q0 115 78 115q79 0 79 -115v-289h160v289q0 115 78 115q79 0 79 -115v-289q37 0 55 -20q22 -24 22 -80v-102q0 -119 -72 -119q-78 0 -78 115v71h-641q-77 0 -77 115v308q0 116 77 116q80 0 80 -115v-289h160z" />
    <glyph glyph-name="afii10092" unicode="&#x44a;" horiz-adv-x="663" 
d="M239 532q78 0 78 -115v-56h84q127 0 186 -49q51 -42 51 -121q0 -84 -64 -137q-65 -54 -172 -54h-163q-79 0 -79 113v284h-67q-88 0 -88 65q0 70 95 70h139zM317 126h87q77 0 77 64q0 59 -77 59h-87v-123z" />
    <glyph glyph-name="afii10093" unicode="&#x44b;" horiz-adv-x="796" 
d="M742 425v-317q0 -115 -78 -115q-79 0 -79 115v317q0 114 79 114q78 0 78 -114zM211 424v-63h84q127 0 186 -49q51 -42 51 -121q0 -84 -64 -137q-65 -54 -172 -54h-163q-79 0 -79 113v311q0 115 79 115q78 0 78 -115zM211 126h87q77 0 77 64q0 59 -77 59h-87v-123z" />
    <glyph glyph-name="afii10094" unicode="&#x44c;" horiz-adv-x="557" 
d="M211 424v-63h84q127 0 186 -49q51 -42 51 -121q0 -84 -64 -137q-65 -54 -172 -54h-163q-79 0 -79 113v311q0 115 79 115q78 0 78 -115zM211 126h87q77 0 77 64q0 59 -77 59h-87v-123z" />
    <glyph glyph-name="afii10095" unicode="&#x44d;" horiz-adv-x="503" 
d="M403 468q75 -77 75 -202q0 -116 -73 -196q-75 -83 -189 -83q-79 0 -132 31t-53 74q0 59 59 59q16 0 30 -5q8 -2 23 -9q15 -8 24 -10q15 -5 32 -5q87 0 117 94h-103q-89 0 -89 58q0 68 101 68h91q-28 69 -107 69q-22 0 -40 -4q-12 -3 -26 -9l-21 -10q-12 -4 -25 -4
q-67 0 -67 63q0 47 58 75q50 24 119 24q121 0 196 -78z" />
    <glyph glyph-name="afii10096" unicode="&#x44e;" horiz-adv-x="835" 
d="M284 332q16 96 89 155q72 59 171 59q117 0 191 -78q75 -78 75 -202q0 -123 -74 -201q-75 -78 -192 -78q-101 0 -170 54q-74 58 -90 165h-73v-98q0 -115 -79 -115q-78 0 -78 115v316q0 115 83 115q74 0 74 -115v-92h73zM440 268q0 -137 103 -137q105 0 105 137
q0 134 -104 134t-104 -134z" />
    <glyph glyph-name="afii10097" unicode="&#x44f;" horiz-adv-x="572" 
d="M518 93q0 -100 -80 -100q-38 0 -59 31q-18 28 -18 69v114h-54l-140 -173q-34 -41 -75 -41q-62 0 -62 67q0 39 50 91l87 88q-120 32 -120 153q0 66 50 107q50 40 127 40h200q94 0 94 -115v-331zM361 424h-85q-41 0 -58 -18q-14 -15 -14 -40t14 -40q18 -21 58 -21h85v119z
" />
    <glyph glyph-name="tilde" unicode="&#x2dc;" horiz-adv-x="500" 
d="M180 610l-17 -5q-5 -2 -11 -3q-22 0 -32 14q-12 14 -12 39q0 37 24 62q25 25 60 25q18 0 47 -10q30 -7 45 -9q14 0 35 9q20 9 29 9q19 0 32 -15q12 -15 12 -39q0 -36 -24 -62q-24 -25 -60 -25q-17 0 -47 9q-29 10 -46 10q-15 0 -35 -9z" />
    <glyph glyph-name="afii10051" unicode="&#x402;" horiz-adv-x="760" 
d="M337 408q31 12 59 19q35 8 63 8q108 0 172 -48q74 -56 74 -168q0 -113 -61 -168q-56 -51 -166 -51q-102 0 -102 68q0 67 97 67q70 0 70 83q0 82 -93 82q-63 0 -113 -31v-163q0 -115 -81 -115t-81 115v455h-60q-115 0 -115 74q0 76 115 76h336q115 0 115 -76
q0 -74 -115 -74h-114v-153z" />
    <glyph glyph-name="uni000D" unicode="&#xd;" horiz-adv-x="0" 
 />
    <glyph glyph-name="exclamdown" unicode="&#xa1;" horiz-adv-x="290" 
d="M86 493q-26 25 -26 59q0 36 26 61q25 24 60 24q84 0 84 -84q0 -35 -25 -60q-25 -26 -59 -26t-60 26zM69 7v288q0 115 77 115q78 0 78 -115v-288q0 -114 -78 -114q-77 0 -77 114z" />
    <glyph glyph-name="cent" unicode="&#xa2;" horiz-adv-x="497" 
d="M424 518q48 -28 48 -73q0 -67 -65 -67q-9 0 -23 4q-5 1 -13 4q-2 0 -7 2q-5 1 -6 2q-37 12 -62 12q-48 0 -78 -38q-31 -38 -31 -99q0 -134 115 -134q26 0 62 12l6 2q5 2 7 2q7 3 12 4q13 4 21 4q61 0 61 -68q0 -42 -51 -71q-53 -29 -134 -29q-116 0 -188 77
q-73 77 -73 202q0 124 74 201q75 79 197 79q79 0 128 -28zM372 -75q0 -72 -73 -72q-72 0 -72 72q0 73 72 73q73 0 73 -73zM372 598q0 -72 -73 -72q-72 0 -72 72q0 73 72 73q73 0 73 -73z" />
    <glyph glyph-name="sterling" unicode="&#xa3;" horiz-adv-x="618" 
d="M557 672q72 -55 72 -123q0 -77 -70 -77q-24 0 -44 18l-26 28l-8 11q-23 27 -43 39q-30 18 -69 18q-91 0 -91 -74q0 -26 19 -80h103q115 0 115 -75t-115 -75h-82q0 -77 -43 -132h241q115 0 115 -75t-115 -75h-281q-81 0 -111 13q-40 17 -40 67q0 23 12 48l28 43
q18 28 27 49q12 29 12 62h-29q-115 0 -115 75t104 75h9q-16 48 -16 92q0 89 69 147q70 60 178 60q115 0 194 -59z" />
    <glyph glyph-name="yen" unicode="&#xa5;" horiz-adv-x="563" 
d="M161 658l121 -173l123 175q44 63 87 63q27 0 49 -23q22 -22 22 -49q0 -30 -37 -82l-164 -234v-229q0 -115 -81 -115t-81 115v229l-164 232q-36 50 -36 82q0 28 21 51q23 23 56 23q38 0 84 -65zM471 400q56 0 56 -51t-57 -51h-377q-57 0 -57 51t57 51h378zM471 186
q56 0 56 -51t-57 -51h-377q-57 0 -57 51t57 51h378z" />
    <glyph glyph-name="brokenbar" unicode="&#xa6;" horiz-adv-x="274" 
d="M184 819.305v-389.573q0 -20.21 -47 -20.21t-47 20.21v389.573q0 20.21 47 20.21t47 -20.21zM184 249.305v-389.573q0 -20.21 -47 -20.21t-47 20.21v389.573q0 20.21 47 20.21t47 -20.21z" />
    <glyph glyph-name="dieresis" horiz-adv-x="296" 
d="M117 623q0 -72 -73 -72q-72 0 -72 72q0 73 72 73q73 0 73 -73zM334 623q0 -72 -73 -72q-72 0 -72 72q0 73 72 73q73 0 73 -73z" />
    <glyph glyph-name="copyright" unicode="&#xa9;" horiz-adv-x="833" 
d="M677 613q103 -105 103 -255q0 -153 -107 -257q-109 -106 -257 -106q-150 0 -258 110q-104 106 -104 253q0 99 53 189q103 175 309 175q154 0 261 -109zM206 576q-92 -92 -92 -217t87 -212q90 -92 215 -92q121 0 215 89q89 86 89 209q0 130 -86 218q-89 91 -217 91
q-125 0 -211 -86zM512 542q32 -21 32 -54q0 -49 -43 -49q-6 0 -15 2q-3 1 -8 3q-2 1 -5 2t-4 1q-24 9 -40 9q-32 0 -52 -28t-20 -73q0 -99 76 -99q16 0 40 9l4 1q3 1 4 2q5 2 8 3q9 2 14 2q40 0 40 -50q0 -31 -33 -52q-35 -22 -88 -22q-76 0 -123 57q-48 57 -48 150
q0 91 48 149q49 58 130 58q51 0 83 -21z" />
    <glyph glyph-name="ordfeminine" unicode="&#xaa;" horiz-adv-x="425" 
d="M152.214 613.391q-19.7988 -22.7988 -19.7988 -57.5977q0 -35.998 19.1396 -58.7969q19.1387 -23.3994 48.1777 -23.3994t48.1777 23.3994q19.7988 23.999 19.7988 58.7969q0 34.1992 -19.7988 57.5977q-19.7988 22.7998 -48.1777 22.7998t-47.5186 -22.7998z
M183.232 387.2q-65.3369 0 -110.875 46.7979q-46.8584 47.998 -46.8584 120.596q0 71.3965 47.5186 119.995q46.8574 47.998 114.175 47.998q51.4785 0 83.1572 -34.1992q18.4785 29.999 49.498 29.999q51.4775 0 51.4775 -68.3975v-190.192q0 -68.9971 -51.4775 -68.9971
q-32.999 0 -49.498 32.999q-32.999 -36.5986 -87.1172 -36.5986zM323 286q35 0 35 -51t-35.5 -51h-249.5q-35.5 0 -35.5 51t35.5 51h250z" />
    <glyph glyph-name="macron" unicode="&#xaf;" horiz-adv-x="428" 
d="M316 702q78 0 78 -69q0 -66 -79 -66h-203q-78 0 -78 67q0 68 79 68h203z" />
    <glyph glyph-name="uni00B2" unicode="&#xb2;" horiz-adv-x="525" 
d="M388 690q48 -35 48 -89q0 -47 -50 -101q-23 -24 -60 -55l-37 -30l-43 -33h115q89 0 89 -45q0 -44 -89 -44h-221q-75 0 -75 44q0 16 27 42q10 10 31 27l42 35q36 31 58 51q27 25 44 42q36 39 36 62q0 41 -47 41q-21 0 -36 -14q-6 -6 -13 -15q-3 -5 -10 -17
q-14 -23 -24 -32q-15 -14 -37 -14q-62 0 -62 49q0 50 52 90q55 42 134 42t128 -36z" />
    <glyph glyph-name="uni00B3" unicode="&#xb3;" horiz-adv-x="546" 
d="M410 693q50 -32 50 -79q0 -50 -68 -84q101 -36 101 -105q0 -55 -61 -93q-62 -39 -155 -39q-80 0 -145 37q-63 36 -63 76q0 45 60 45q23 0 41 -11q7 -5 16 -12l14 -13q18 -17 31 -24q21 -12 48 -12q72 0 72 53q0 39 -86 48q-58 7 -58 42q0 32 58 40q63 11 63 43
q0 35 -50 35q-20 0 -38 -8q-7 -3 -14 -8q-3 -2 -7 -5l-14 -9q-4 -3 -7 -5q-8 -5 -15 -8q-18 -8 -40 -8q-56 0 -56 39q0 36 57 66q60 32 137 32t129 -33z" />
    <glyph glyph-name="acute" unicode="&#xb4;" horiz-adv-x="500" 
d="M358 642q0 -27 -26 -56l-76 -84q-28 -31 -54 -31q-54 0 -54 55q0 20 17 44l73 100q22 32 57 32q63 0 63 -60z" />
    <glyph glyph-name="mu" unicode="&#xb5;" horiz-adv-x="809" 
d="M242 482l167 -287l165 298q25 46 74 46q42 0 62 -21q24 -26 29 -94l25 -337q0 -94 -70 -94q-77 0 -86 115l-13 163l-116 -216q-33 -62 -75 -62q-39 0 -75 67l-114 211l-31 -358q-10 -115 -86 -115q-70 0 -70 93l43 533q5 64 29 91q20 24 61 24q48 0 81 -57z" />
    <glyph glyph-name="periodcentered" unicode="&#xb7;" horiz-adv-x="324" 
d="M177.845 415.797q22.9502 -22.9502 22.9502 -54.3984q0 -33.1494 -22.9502 -55.249q-22.9492 -22.0996 -54.3984 -22.0996q-31.4482 0 -53.5479 21.25q-23.7998 21.249 -23.7998 56.0986q0 31.4482 22.9492 54.3984q22.9502 22.9492 54.3984 22.9492
q31.4492 0 54.3984 -22.9492z" />
    <glyph glyph-name="cedilla" horiz-adv-x="345" 
d="M153 -154q-54 -12 -84 15q-35 30 -5 64q15 17 52 18t50 16q13 14 10 52q-4 38 14 58q29 33 63 2q32 -27 26 -81q-5 -53 -40 -93q-34 -39 -86 -51z" />
    <glyph glyph-name="uni00B9" unicode="&#xb9;" horiz-adv-x="360" 
d="M219 707q78 0 78 -66v-277q0 -66 -69 -66q-70 0 -70 66v258h-14q-93 0 -93 42q0 43 99 43h69z" />
    <glyph glyph-name="ordmasculine" unicode="&#xba;" horiz-adv-x="402" 
d="M328.427 675.789q48.8379 -47.3984 48.8379 -121.195t-48.8379 -120.596q-49.498 -46.7979 -126.715 -46.7979t-126.715 46.7979q-49.498 46.7988 -49.498 120.596t49.498 121.195q50.1582 46.7979 126.715 46.7979q77.2168 0 126.715 -46.7979zM152.874 613.991
q-20.459 -22.7988 -20.459 -58.7979q0 -81.5967 69.2969 -81.5967q68.6377 0 68.6377 82.1963q0 35.3994 -19.7998 58.1982q-19.7988 22.1992 -48.8379 22.1992q-29.6982 0 -48.8379 -22.1992zM326 286q35 0 35 -51t-35.5 -51h-249.5q-35.5 0 -35.5 51t35.5 51h250z" />
    <glyph glyph-name="onequarter" unicode="&#xbc;" horiz-adv-x="1034" 
d="M219 707q78 0 78 -66v-277q0 -66 -69 -66q-70 0 -70 66v258h-14q-93 0 -93 42q0 43 99 43h69zM661 680q0 -19 -15 -49l-310 -587q-31 -58 -70 -58q-66 0 -66 63q0 21 14 48l311 587q31 58 70 58q66 0 66 -62zM888 335v-154h21q75 0 75 -43q0 -45 -83 -45h-13v-41
q0 -52 -67 -52q-59 0 -59 55v38h-214q-84 0 -84 38q0 19 33 56l181 200q42 46 102 46q108 0 108 -98zM762 181v160l-142 -160h142z" />
    <glyph glyph-name="onehalf" unicode="&#xbd;" horiz-adv-x="1029" 
d="M219 707q78 0 78 -66v-277q0 -66 -69 -66q-70 0 -70 66v258h-14q-93 0 -93 42q0 43 99 43h69zM691 671q0 -19 -15 -49l-310 -587q-31 -58 -70 -58q-66 0 -66 63q0 21 14 48l311 587q31 58 70 58q66 0 66 -62zM910 393q48 -35 48 -89q0 -47 -50 -101q-23 -24 -60 -55
l-37 -30l-43 -33h115q89 0 89 -45q0 -44 -89 -44h-221q-75 0 -75 44q0 16 27 42q10 10 31 27l42 35q36 31 58 51q27 25 44 42q36 39 36 62q0 41 -47 41q-21 0 -36 -14q-6 -6 -13 -15q-3 -5 -10 -17q-14 -23 -24 -32q-15 -14 -37 -14q-62 0 -62 49q0 50 52 90q55 42 134 42
t128 -36z" />
    <glyph glyph-name="threequarters" unicode="&#xbe;" horiz-adv-x="1217" 
d="M410 693q50 -32 50 -79q0 -50 -68 -84q101 -36 101 -105q0 -55 -61 -93q-62 -39 -155 -39q-80 0 -145 37q-63 36 -63 76q0 45 60 45q23 0 41 -11q7 -5 16 -12l14 -13q18 -17 31 -24q21 -12 48 -12q72 0 72 53q0 39 -86 48q-58 7 -58 42q0 32 58 40q63 11 63 43
q0 35 -50 35q-20 0 -38 -8q-7 -3 -14 -8q-3 -2 -7 -5l-14 -9q-4 -3 -7 -5q-8 -5 -15 -8q-18 -8 -40 -8q-56 0 -56 39q0 36 57 66q60 32 137 32t129 -33zM841 675q0 -19 -15 -49l-310 -587q-31 -58 -70 -58q-66 0 -66 63q0 21 14 48l311 587q31 58 70 58q66 0 66 -62z
M1066 330v-154h21q75 0 75 -43q0 -45 -83 -45h-13v-41q0 -52 -67 -52q-59 0 -59 55v38h-214q-84 0 -84 38q0 19 33 56l181 200q42 46 102 46q108 0 108 -98zM940 176v160l-142 -160h142z" />
    <glyph glyph-name="questiondown" unicode="&#xbf;" horiz-adv-x="509" 
d="M195 395q-26 25 -26 59q0 36 26 61q25 24 60 24q84 0 84 -84q0 -35 -25 -60q-25 -26 -59 -26t-60 26zM71 -136q-66 64 -66 157q0 178 175 210q0 98 78 98q76 0 76 -88v-63q0 -39 -16 -53q-13 -12 -61 -23q-82 -19 -82 -88q0 -66 70 -66q32 0 57 16q17 11 38 35l17 19
q10 10 18 16q20 16 43 16q65 0 65 -73q0 -66 -67 -120q-71 -59 -171 -59q-105 0 -174 66z" />
    <glyph glyph-name="circumflex" unicode="&#x2c6;" horiz-adv-x="500" 
d="M163 507q-25 -15 -46 -15q-47 0 -47 51q0 30 30 54l109 85q21 16 41 16t41 -16l109 -85q30 -24 30 -54q0 -51 -47 -51q-20 0 -46 15l-87 53z" />
    <glyph glyph-name="caron" unicode="&#x2c7;" horiz-adv-x="500" 
d="M246 633l87 53q26 15 46 15q47 0 47 -51q0 -30 -30 -54l-109 -85q-21 -16 -41 -16t-41 16l-109 85q-30 24 -30 54q0 51 47 51q21 0 46 -15z" />
    <glyph glyph-name="uni02C9" unicode="&#x2c9;" horiz-adv-x="428" 
d="M316 702q78 0 78 -69q0 -66 -79 -66h-203q-78 0 -78 67q0 68 79 68h203z" />
    <glyph glyph-name="breve" unicode="&#x2d8;" horiz-adv-x="345" 
d="M71 575q-45 32 -45 73q0 46 45 46q23 0 48 -27q25 -28 45 -28q19 0 45 28q26 27 53 27q44 0 44 -46q0 -42 -44 -73q-43 -31 -96 -31q-52 0 -95 31z" />
    <glyph glyph-name="dotaccent" unicode="&#x2d9;" horiz-adv-x="324" 
d="M203.845 701.797q22.9502 -22.9502 22.9502 -54.3984q0 -33.1494 -22.9502 -55.249q-22.9492 -22.0996 -54.3984 -22.0996q-31.4482 0 -53.5479 21.25q-23.7998 21.249 -23.7998 56.0986q0 31.4482 22.9492 54.3984q22.9502 22.9492 54.3984 22.9492
q31.4492 0 54.3984 -22.9492z" />
    <glyph glyph-name="ring" unicode="&#x2da;" horiz-adv-x="400" 
d="M205 656q-31 0 -54 -22q-23 -23 -23 -55q0 -34 23 -56q22 -21 54 -21t55 22t23 55q0 31 -23 54t-55 23zM316 680q45 -43 45 -102q0 -62 -46 -104q-45 -41 -108 -41q-64 0 -108 39q-47 42 -47 106q0 60 46 103q46 42 109 42t109 -43z" />
    <glyph glyph-name="ogonek" unicode="&#x2db;" horiz-adv-x="1024" 
d="M231 -46.25q0 -15.75 -16 -38.25l-79 -108q-30 -41.25 -70 -41.25q-66 0 -66 47.25q0 16.5 16 37.5l79 108q30 41.25 70 41.25q66 0 66 -46.5z" />
    <glyph glyph-name="hungarumlaut" unicode="&#x2dd;" horiz-adv-x="1024" 
d="M41 642q0 -27 -26 -56l-76 -84q-28 -31 -54 -31q-54 0 -54 55q0 20 17 44l73 100q22 32 57 32q63 0 63 -60zM251 642q0 -27 -26 -56l-76 -84q-28 -31 -54 -31q-54 0 -54 55q0 20 17 44l73 100q22 32 57 32q63 0 63 -60z" />
    <glyph glyph-name="gravecomb" unicode="&#x300;" horiz-adv-x="0" 
d="M-580 776l73 -100q17 -23 17 -44q0 -55 -54 -55q-27 0 -54 31l-76 84q-26 29 -26 54q0 62 63 62q34 0 57 -32z" />
    <glyph glyph-name="acutecomb" unicode="&#x301;" horiz-adv-x="0" 
d="M-460 642q0 -27 -26 -56l-76 -84q-28 -31 -54 -31q-54 0 -54 55q0 20 17 44l73 100q22 32 57 32q63 0 63 -60z" />
    <glyph glyph-name="tildecomb" unicode="&#x303;" horiz-adv-x="0" 
d="M-688 610l-17 -5q-5 -2 -11 -3q-22 0 -32 14q-12 14 -12 39q0 37 24 62q25 25 60 25q18 0 47 -10q30 -7 45 -9q14 0 35 9q20 9 29 9q19 0 32 -15q12 -15 12 -39q0 -36 -24 -62q-24 -25 -60 -25q-17 0 -47 9q-29 10 -46 10q-15 0 -35 -9z" />
    <glyph glyph-name="hookabovecomb" unicode="&#x309;" horiz-adv-x="0" 
d="M-481.854 513.847q14.2998 -8.74902 14.2998 -20.6484q0 -12.5986 -14.2998 -21.3486q-13.75 -8.39941 -32.999 -8.39941q-46.1992 0 -46.1992 29.3984q0 12.249 13.75 20.998q13.749 9.09961 32.4492 9.09961q18.6992 0 32.999 -9.09961zM-413.655 699.684
q36.2998 -22.3984 36.2998 -54.9463q0 -62.2949 -96.248 -73.4941q0 -34.2979 -42.8994 -34.2979q-41.7988 0 -41.7988 30.7979v22.0479q0 13.6494 8.7998 18.5488q7.14941 4.2002 33.5488 8.0498q45.0996 6.64941 45.0996 30.7979q0 23.0986 -38.499 23.0986
q-17.5996 0 -31.3496 -5.59961q-9.34961 -3.84961 -20.8994 -12.249l-9.34961 -6.65039q-5.5 -3.49902 -9.90039 -5.59961q-11 -5.59961 -23.6494 -5.59961q-35.749 0 -35.749 25.5488q0 23.0986 36.8496 41.9971q39.0488 20.6484 94.0479 20.6484
q57.748 0 95.6973 -23.0986z" />
    <glyph glyph-name="dotbelowcomb" unicode="&#x323;" horiz-adv-x="0" 
d="M-428.155 -146.203q22.9502 -22.9502 22.9502 -54.3984q0 -33.1494 -22.9502 -55.249q-22.9492 -22.0996 -54.3984 -22.0996q-31.4482 0 -53.5479 21.25q-23.7998 21.249 -23.7998 56.0986q0 31.4482 22.9492 54.3984q22.9502 22.9492 54.3984 22.9492
q31.4492 0 54.3984 -22.9492z" />
    <glyph glyph-name="uni037E" unicode="&#x37e;" horiz-adv-x="252" 
d="M201 451q27 -27 27 -64q0 -39 -27 -65t-64 -26t-63 25q-28 25 -28 66q0 37 27 64t64 27t64 -27zM217 100q0 -21 -16 -51l-79 -144q-30 -55 -70 -55q-66 0 -66 63q0 22 16 50l79 144q30 55 70 55q66 0 66 -62z" />
    <glyph glyph-name="glyph249" horiz-adv-x="530" 
d="M379 703q87 0 87 -41q0 -42 -82 -42h-140l-9 -48q32 5 58 5q76 0 127 -36q52 -37 52 -94q0 -64 -62 -106q-64 -43 -163 -43q-78 0 -135 24q-55 23 -55 54q0 40 56 40q13 0 29 -6l30 -12q19 -8 33 -12q20 -5 40 -5q35 0 59 18t24 43q0 55 -74 55q-11 0 -25 -2
q-9 -1 -25 -5q-17 -3 -25 -4q-14 -3 -24 -3q-53 0 -53 39q0 6 4 31l20 102q5 30 26 40q17 8 62 8h165z" />
    <glyph glyph-name="glyph250" horiz-adv-x="480" 
d="M344 711q103 0 103 -50q0 -14 -14 -34l-205 -286q-31 -43 -74 -43q-73 0 -73 45q0 14 19 40l183 243h-160q-95 0 -95 42q0 43 84 43h232z" />
    <glyph glyph-name="glyph251" horiz-adv-x="570" 
d="M107 616q0 49 54 82q55 33 137 33t137 -33t55 -82q0 -48 -56 -82q80 -36 80 -102q0 -57 -60 -95q-61 -39 -156 -39t-156 39q-60 38 -60 95q0 67 80 102q-55 33 -55 82zM241 399q24 -18 57 -18t57 17q23 17 23 42t-23 42q-24 18 -57 18t-57 -18q-23 -17 -23 -42
q0 -24 23 -41zM255 577q19 -13 43 -13q62 0 62 43q0 44 -62 44q-61 0 -61 -44q0 -17 18 -30z" />
    <glyph glyph-name="uni2010" unicode="&#x2010;" horiz-adv-x="428" 
d="M316 346q78 0 78 -69q0 -66 -79 -66h-203q-78 0 -78 67q0 68 79 68h203z" />
    <glyph glyph-name="uni2011" unicode="&#x2011;" horiz-adv-x="428" 
d="M316 346q78 0 78 -69q0 -66 -79 -66h-203q-78 0 -78 67q0 68 79 68h203z" />
    <glyph glyph-name="figuredash" unicode="&#x2012;" horiz-adv-x="651" 
d="M440 413q70 0 70 -51t-71 -51h-358q-71 0 -71 51t71 51h359z" />
    <glyph glyph-name="afii00208" unicode="&#x2015;" horiz-adv-x="1020" 
d="M940 329q70 0 70 -51t-71 -51h-858q-71 0 -71 51t71 51h859z" />
    <glyph glyph-name="underscoredbl" unicode="&#x2017;" horiz-adv-x="500" 
d="M505 -181q70 0 70 -51t-71 -51h-499q-71 0 -71 51t71 51h500zM505 -24q70 0 70 -51t-71 -51h-499q-71 0 -71 51t71 51h500z" />
    <glyph glyph-name="quotesinglbase" unicode="&#x201a;" horiz-adv-x="250" 
d="M246 94q0 -21 -16 -51l-79 -144q-30 -55 -70 -55q-66 0 -66 63q0 22 16 50l79 144q30 55 70 55q66 0 66 -62z" />
    <glyph glyph-name="quotereversed" unicode="&#x201b;" horiz-adv-x="250" 
d="M15 745q0 -21 16 -51l79 -144q30 -55 70 -55q66 0 66 63q0 22 -16 50l-79 144q-30 55 -70 55q-66 0 -66 -62z" />
    <glyph glyph-name="uni201F" unicode="&#x201f;" horiz-adv-x="471" 
d="M236 745q0 -21 16 -51l79 -144q30 -55 70 -55q66 0 66 63q0 22 -16 50l-79 144q-30 55 -70 55q-66 0 -66 -62zM15 745q0 -21 16 -51l79 -144q30 -55 70 -55q66 0 66 63q0 22 -16 50l-79 144q-30 55 -70 55q-66 0 -66 -62z" />
    <glyph glyph-name="daggerdbl" unicode="&#x2021;" horiz-adv-x="537" 
d="M336 632v-118h99q77 0 77 -57q0 -58 -78 -58h-98v-473q0 -100 -67 -100q-68 0 -68 100v473h-98q-78 0 -78 58q0 57 79 57h97v118q0 99 68 99q67 0 67 -99zM481 200q34 0 34 -51t-35 -51h-418q-35 0 -35 51t35 51h419z" />
    <glyph glyph-name="perthousand" unicode="&#x2030;" horiz-adv-x="898" 
d="M271 674q45 -47 45 -113t-45 -113q-45 -46 -108 -46q-64 0 -108 46q-45 46 -45 113t45 113t108 46t108 -46zM112 561q0 -57 51 -57t51 57t-51 57t-51 -57zM827 569q45 -47 45 -113t-45 -113q-45 -46 -108 -46q-64 0 -108 46q-45 46 -45 113t45 113t108 46t108 -46z
M668 456q0 -57 51 -57t51 57t-51 57t-51 -57zM239 40q-33 -57 -70 -57q-57 0 -57 58q0 24 16 52l330 576q33 56 70 56q56 0 56 -56q0 -24 -16 -53zM644 263q45 -47 45 -113t-45 -113q-45 -46 -108 -46q-64 0 -108 46q-45 46 -45 113t45 113t108 46t108 -46zM485 150
q0 -57 51 -57t51 57t-51 57t-51 -57z" />
    <glyph glyph-name="minute" unicode="&#x2032;" horiz-adv-x="172" 
d="M133 655v-179q0 -47 -47 -47t-47 47v179q0 47 47 47t47 -47z" />
    <glyph glyph-name="second" unicode="&#x2033;" horiz-adv-x="360" 
d="M133 655v-179q0 -47 -47 -47t-47 47v179q0 47 47 47t47 -47zM321 655v-179q0 -47 -47 -47t-47 47v179q0 47 47 47t47 -47z" />
    <glyph glyph-name="guilsinglleft" unicode="&#x2039;" horiz-adv-x="509" 
d="M375 415q0 -24 -33 -63l-83 -99l83 -99q33 -39 33 -63q0 -36 -44 -36q-34 0 -71 46l-126 152l126 152q37 46 71 46q44 0 44 -36z" />
    <glyph glyph-name="guilsinglright" unicode="&#x203a;" horiz-adv-x="509" 
d="M178 451q34 0 71 -46l126 -152l-126 -152q-37 -46 -71 -46q-44 0 -44 36q0 24 33 63l83 99l-83 99q-33 39 -33 63q0 36 44 36z" />
    <glyph glyph-name="exclamdbl" unicode="&#x203c;" horiz-adv-x="580" 
d="M204 131q26 -25 26 -59q0 -36 -26 -61q-25 -24 -60 -24q-84 0 -84 84q0 35 25 60q25 26 59 26t60 -26zM221 617v-288q0 -115 -77 -115q-78 0 -78 115v288q0 114 78 114q77 0 77 -114zM494 131q26 -25 26 -59q0 -36 -26 -61q-25 -24 -60 -24q-84 0 -84 84q0 35 25 60
q25 26 59 26t60 -26zM511 617v-288q0 -115 -77 -115q-78 0 -78 115v288q0 114 78 114q77 0 77 -114z" />
    <glyph glyph-name="uni203E" unicode="&#x203e;" horiz-adv-x="500" 
d="M500 884q70 0 70 -51t-71 -51h-499q-71 0 -71 51t71 51h500z" />
    <glyph glyph-name="fraction" unicode="&#x2044;" horiz-adv-x="370" 
d="M416 671q0 -19 -15 -49l-310 -587q-31 -58 -70 -58q-66 0 -66 63q0 21 14 48l311 587q31 58 70 58q66 0 66 -62z" />
    <glyph glyph-name="uni2074" unicode="&#x2074;" horiz-adv-x="630" 
d="M478 628v-154h21q75 0 75 -43q0 -45 -83 -45h-13v-41q0 -52 -67 -52q-59 0 -59 55v38h-214q-84 0 -84 38q0 19 33 56l181 200q42 46 102 46q108 0 108 -98zM352 474v160l-142 -160h142z" />
    <glyph glyph-name="uni2075" unicode="&#x2075;" horiz-adv-x="530" 
d="M379 703q87 0 87 -41q0 -42 -82 -42h-140l-9 -48q32 5 58 5q76 0 127 -36q52 -37 52 -94q0 -64 -62 -106q-64 -43 -163 -43q-78 0 -135 24q-55 23 -55 54q0 40 56 40q13 0 29 -6l30 -12q19 -8 33 -12q20 -5 40 -5q35 0 59 18t24 43q0 55 -74 55q-11 0 -25 -2
q-9 -1 -25 -5q-17 -3 -25 -4q-14 -3 -24 -3q-53 0 -53 39q0 6 4 31l20 102q5 30 26 40q17 8 62 8h165z" />
    <glyph glyph-name="uni2077" unicode="&#x2077;" horiz-adv-x="480" 
d="M344 711q103 0 103 -50q0 -14 -14 -34l-205 -286q-31 -43 -74 -43q-73 0 -73 45q0 14 19 40l183 243h-160q-95 0 -95 42q0 43 84 43h232z" />
    <glyph glyph-name="uni2078" unicode="&#x2078;" horiz-adv-x="570" 
d="M107 616q0 49 54 82q55 33 137 33t137 -33t55 -82q0 -48 -56 -82q80 -36 80 -102q0 -57 -60 -95q-61 -39 -156 -39t-156 39q-60 38 -60 95q0 67 80 102q-55 33 -55 82zM241 399q24 -18 57 -18t57 17q23 17 23 42t-23 42q-24 18 -57 18t-57 -18q-23 -17 -23 -42
q0 -24 23 -41zM255 577q19 -13 43 -13q62 0 62 43q0 44 -62 44q-61 0 -61 -44q0 -17 18 -30z" />
    <glyph glyph-name="uni207F" unicode="&#x207f;" horiz-adv-x="592" 
d="M208 673q46 50 138 50q192 0 192 -204v-226q0 -116 -78 -116q-79 0 -79 115v178q0 118 -84 118q-86 0 -86 -115v-180q0 -116 -78 -116q-79 0 -79 115v317q0 114 79 114q47 0 75 -50z" />
    <glyph glyph-name="franc" unicode="&#x20a3;" horiz-adv-x="651" 
d="M225 433h114q115 0 115 -75t-115 -75h-114v-177q0 -115 -81 -115t-81 115v491q0 62 22 87q25 27 90 27h182q115 0 115 -76q0 -74 -115 -74h-132v-128zM434 227q70 0 70 -51t-71 -51h-499q-71 0 -71 51t71 51h500z" />
    <glyph glyph-name="lira" unicode="&#x20a4;" horiz-adv-x="618" 
d="M557 672q72 -55 72 -123q0 -77 -70 -77q-24 0 -44 18l-26 28l-8 11q-23 27 -43 39q-30 18 -69 18q-91 0 -91 -74q0 -26 19 -80h103q115 0 115 -75t-115 -75h-82q0 -77 -43 -132h241q115 0 115 -75t-115 -75h-281q-81 0 -111 13q-40 17 -40 67q0 23 12 48l28 43
q18 28 27 49q12 29 12 62h-29q-115 0 -115 75t104 75h9q-16 48 -16 92q0 89 69 147q70 60 178 60q115 0 194 -59z" />
    <glyph glyph-name="peseta" unicode="&#x20a7;" horiz-adv-x="1139" 
d="M208.506 375h63.001q99.9033 0 99.9033 94q0 93 -99.9033 93h-63.001v-187zM294.908 711q108.902 0 172.805 -66q62.1016 -65 62.1016 -176q0 -112 -58.502 -176q-59.4014 -65 -164.704 -65h-98.1025v-122q0 -115 -72.9023 -115t-72.9023 115v491q0 62 19.8008 87
q22.501 27 81.002 27h131.404zM689 595v-73h21q100 0 100 -67q0 -68 -100 -68h-21v-279q0 -115 -78 -115q-79 0 -79 115v279h-6q-89 0 -89 68q0 67 95 67v73q0 114 79 114q78 0 78 -114zM1053 513q52 -31 52 -74q0 -66 -65 -66q-13 0 -30 6q-7 2 -16 6l-12 5q0 1 -2 1
q-1 1 -2 1q-21 9 -32 13q-19 6 -33 6q-36 0 -36 -27q0 -19 29 -33q10 -5 34 -15l45 -18q129 -58 129 -153q0 -76 -58 -126q-60 -52 -153 -52q-87 0 -141 32q-54 31 -54 80q0 69 60 69q19 0 39 -7q8 -3 18 -8q4 -1 8 -4l17 -8q5 -3 9 -4q9 -5 17 -8q20 -7 39 -7q44 0 44 37
q0 26 -87 58q-150 55 -150 161q0 72 55 119q55 49 142 49q80 0 134 -33z" />
    <glyph glyph-name="afii57636" unicode="&#x20aa;" horiz-adv-x="756" 
d="M528 94q35 0 45 13q12 16 12 41v419h102v-427q0 -58 -35 -99t-111 -41h-298v363h102v-269h183zM413 420q0 30 -13.5 42.5t-43.5 12.5h-182v-475h-103v568h299q70 0 108 -39t38 -101v-223h-103v215z" />
    <glyph glyph-name="dong" unicode="&#x20ab;" horiz-adv-x="561" 
d="M390 187q-55 -75 -148 -75q-97 0 -148.5 64t-51.5 173q0 92 54.5 161t153.5 69q68 0 106 -42v102h-120v76h120v58h133v-58h62v-76h-62v-519h-76zM271 500q-43 0 -68 -38.5t-25 -108.5t24.5 -114.5t67.5 -44.5q40 0 64.5 26.5t24.5 98.5q0 181 -88 181zM489 0h-424v80h424
v-80z" />
    <glyph glyph-name="afii61248" unicode="&#x2105;" horiz-adv-x="995" 
d="M324 702.5q36 -21 36 -54.75q0 -50.25 -48.75 -50.25q-6.75 0 -17.25 3q-3.75 0.75 -9.75 3q-1.5 0 -5.25 1.5q-3.75 0.75 -4.5 1.5q-27.75 9 -46.5 9q-36 0 -58.5 -28.5q-23.25 -28.5 -23.25 -74.25q0 -100.5 86.25 -100.5q19.5 0 46.5 9l4.5 1.5q3.75 1.5 5.25 1.5
q5.25 2.25 9 3q9.75 3 15.75 3q45.75 0 45.75 -51q0 -31.5 -38.25 -53.25q-39.75 -21.75 -100.5 -21.75q-87 0 -141 57.75q-54.75 57.75 -54.75 151.5q0 93 55.5 150.75q56.25 59.25 147.75 59.25q59.25 0 96 -21zM705 671q0 -19 -15 -49l-310 -587q-31 -58 -70 -58
q-66 0 -66 63q0 21 14 48l311 587q31 58 70 58q66 0 66 -62zM903 356q55.5 -59.25 55.5 -151.5t-55.5 -150.75q-56.25 -58.5 -144 -58.5t-144 58.5t-56.25 150.75t56.25 151.5q57 58.5 144 58.5q87.75 0 144 -58.5zM703.5 278.75q-23.25 -28.5 -23.25 -73.5
q0 -102 78.75 -102q78 0 78 102.75q0 44.25 -22.5 72.75q-22.5 27.75 -55.5 27.75q-33.75 0 -55.5 -27.75z" />
    <glyph glyph-name="afii61289" unicode="&#x2113;" horiz-adv-x="408" 
d="M236 500l30 45q20 31 27.5 56t7.5 51q0 20 -9 33t-22 13q-16 0 -25 -17t-9 -65v-116zM104 332v245q0 98 40.5 150.5t123.5 52.5q58 0 95.5 -37t37.5 -92q0 -24 -4.5 -45.5t-12 -41t-16.5 -36t-18 -29.5l-114 -162v-189q0 -23 6.5 -33.5t23.5 -10.5t45 17t59 46v-119
q-19 -21 -54 -37.5t-76 -16.5q-70 0 -103 39.5t-33 114.5v31l-34 -45l-70 57z" />
    <glyph glyph-name="uni2120" unicode="&#x2120;" horiz-adv-x="685" 
d="M212.655 720.018q23.8506 -12.4014 23.8506 -30.002q0 -27.6016 -32.8506 -27.6016q-5.85059 0 -13.501 1.59961q-4.5 0.799805 -14.4004 3.60059l-14.4004 3.59961q-8.5498 1.60059 -14.8496 1.60059q-35.5518 0 -35.5518 -24.8018q0 -13.6006 15.3008 -20.4014
q6.2998 -2.7998 18.4502 -6.40039q2.25 -0.400391 5.40039 -1.59961q0.900391 0 3.15039 -0.800781q2.25 -0.399414 2.7002 -0.799805l13.0498 -3.60059q88.2031 -26.001 88.2031 -86.4043q0 -42.0029 -33.3018 -68.8047q-34.6504 -27.6016 -90.9023 -27.6016
q-43.6514 0 -74.252 14.4004q-29.251 14.001 -29.251 32.002q0 29.2021 36.001 29.2021q6.30078 0 15.751 -2.40039l18.4502 -5.2002q12.1504 -4 20.7002 -5.60059q12.1504 -2.39941 22.9512 -2.39941q36.001 0 36.001 30.4014q0 15.6006 -14.8506 24.8018
q-10.7998 6.40039 -40.9512 14.4004q-48.1514 12.8008 -68.4014 30.002q-22.0508 18.4014 -22.0508 50.8037q0 39.2021 31.501 64.8037q32.4004 26.002 84.6016 26.002q38.7012 0 63.4521 -12.8008zM433.304 683.615l48.6016 -170.011l45.4512 170.411
q10.8008 39.2021 49.9512 39.2021q42.3018 0 51.3018 -48.0029l35.5508 -195.612q1.7998 -9.2002 1.7998 -15.6006q0 -33.6025 -36.9004 -33.6025q-31.501 0 -36.001 37.6025l-22.501 170.011h-0.450195l-49.501 -175.211q-4.5 -15.6006 -11.7002 -22.8018
q-9.90039 -9.60059 -28.8008 -9.60059q-33.751 0 -42.751 32.4023l-46.8018 175.211h-0.450195l-25.2002 -166.011q-6.75 -41.6025 -38.251 -41.6025q-35.5508 0 -35.5508 33.6025q0 7.2002 2.7002 19.6016l39.1504 194.012q9 45.6025 49.502 45.6025
q40.0508 0 50.8506 -39.6025z" />
    <glyph glyph-name="Omega" unicode="&#x2126;" horiz-adv-x="995" 
d="M272 -21q-81 0 -81 115v303q0 157 83 243q80 83 222 83t222 -83q83 -86 83 -243v-303q0 -115 -81 -115t-81 115v285q0 189 -143 189t-143 -189v-285q0 -115 -81 -115zM271 132q70 0 70 -75q0 -76 -71 -76h-205q-71 0 -71 76q0 75 71 75h206zM918 132q70 0 70 -75
q0 -76 -71 -76h-205q-71 0 -71 76q0 75 71 75h206z" />
    <glyph glyph-name="estimated" unicode="&#x212e;" horiz-adv-x="533" 
d="M180 329h181q0 101 -21.5 139t-62.5 38q-46 0 -70 -41t-27 -136zM298 -8q-128 0 -192 74t-64 221q0 130 62.5 211t175.5 81q103 0 157 -68.5t54 -253.5h-311q0 -92 35 -138t106 -46q58 0 147 25v-81q-82 -25 -170 -25z" />
    <glyph glyph-name="oneeighth" unicode="&#x215b;" horiz-adv-x="1021" 
d="M219 707q78 0 78 -66v-277q0 -66 -69 -66q-70 0 -70 66v258h-14q-93 0 -93 42q0 43 99 43h69zM669 680q0 -19 -15 -49l-310 -587q-31 -58 -70 -58q-66 0 -66 63q0 21 14 48l311 587q31 58 70 58q66 0 66 -62zM556 303q0 49 54 82q55 33 137 33t137 -33t55 -82
q0 -48 -56 -82q80 -36 80 -102q0 -57 -60 -95q-61 -39 -156 -39t-156 39q-60 38 -60 95q0 67 80 102q-55 33 -55 82zM690 86q24 -18 57 -18t57 17q23 17 23 42t-23 42q-24 18 -57 18t-57 -18q-23 -17 -23 -42q0 -24 23 -41zM704 264q19 -13 43 -13q62 0 62 43q0 44 -62 44
q-61 0 -61 -44q0 -17 18 -30z" />
    <glyph glyph-name="threeeighths" unicode="&#x215c;" horiz-adv-x="1183" 
d="M410 693q50 -32 50 -79q0 -50 -68 -84q101 -36 101 -105q0 -55 -61 -93q-62 -39 -155 -39q-80 0 -145 37q-63 36 -63 76q0 45 60 45q23 0 41 -11q7 -5 16 -12l14 -13q18 -17 31 -24q21 -12 48 -12q72 0 72 53q0 39 -86 48q-58 7 -58 42q0 32 58 40q63 11 63 43
q0 35 -50 35q-20 0 -38 -8q-7 -3 -14 -8q-3 -2 -7 -5l-14 -9q-4 -3 -7 -5q-8 -5 -15 -8q-18 -8 -40 -8q-56 0 -56 39q0 36 57 66q60 32 137 32t129 -33zM822 667q0 -19 -15 -49l-310 -587q-31 -58 -70 -58q-66 0 -66 63q0 21 14 48l311 587q31 58 70 58q66 0 66 -62z
M713 299q0 49 54 82q55 33 137 33t137 -33t55 -82q0 -48 -56 -82q80 -36 80 -102q0 -57 -60 -95q-61 -39 -156 -39t-156 39q-60 38 -60 95q0 67 80 102q-55 33 -55 82zM847 82q24 -18 57 -18t57 17q23 17 23 42t-23 42q-24 18 -57 18t-57 -18q-23 -17 -23 -42q0 -24 23 -41z
M861 260q19 -13 43 -13q62 0 62 43q0 44 -62 44q-61 0 -61 -44q0 -17 18 -30z" />
    <glyph glyph-name="fiveeighths" unicode="&#x215d;" horiz-adv-x="1174" 
d="M379 703q87 0 87 -41q0 -42 -82 -42h-140l-9 -48q32 5 58 5q76 0 127 -36q52 -37 52 -94q0 -64 -62 -106q-64 -43 -163 -43q-78 0 -135 24q-55 23 -55 54q0 40 56 40q13 0 29 -6l30 -12q19 -8 33 -12q20 -5 40 -5q35 0 59 18t24 43q0 55 -74 55q-11 0 -25 -2
q-9 -1 -25 -5q-17 -3 -25 -4q-14 -3 -24 -3q-53 0 -53 39q0 6 4 31l20 102q5 30 26 40q17 8 62 8h165zM819 671q0 -19 -15 -49l-310 -587q-31 -58 -70 -58q-66 0 -66 63q0 21 14 48l311 587q31 58 70 58q66 0 66 -62zM705 290q0 49 54 82q55 33 137 33t137 -33t55 -82
q0 -48 -56 -82q80 -36 80 -102q0 -57 -60 -95q-61 -39 -156 -39t-156 39q-60 38 -60 95q0 67 80 102q-55 33 -55 82zM839 73q24 -18 57 -18t57 17q23 17 23 42t-23 42q-24 18 -57 18t-57 -18q-23 -17 -23 -42q0 -24 23 -41zM853 251q19 -13 43 -13q62 0 62 43q0 44 -62 44
q-61 0 -61 -44q0 -17 18 -30z" />
    <glyph glyph-name="seveneighths" unicode="&#x215e;" horiz-adv-x="1055" 
d="M344 711q103 0 103 -50q0 -14 -14 -34l-205 -286q-31 -43 -74 -43q-73 0 -73 45q0 14 19 40l183 243h-160q-95 0 -95 42q0 43 84 43h232zM691 683q0 -19 -15 -49l-310 -587q-31 -58 -70 -58q-66 0 -66 63q0 21 14 48l311 587q31 58 70 58q66 0 66 -62zM586 307
q0 49 54 82q55 33 137 33t137 -33t55 -82q0 -48 -56 -82q80 -36 80 -102q0 -57 -60 -95q-61 -39 -156 -39t-156 39q-60 38 -60 95q0 67 80 102q-55 33 -55 82zM720 90q24 -18 57 -18t57 17q23 17 23 42t-23 42q-24 18 -57 18t-57 -18q-23 -17 -23 -42q0 -24 23 -41zM734 268
q19 -13 43 -13q62 0 62 43q0 44 -62 44q-61 0 -61 -44q0 -17 18 -30z" />
    <glyph glyph-name="arrowleft" unicode="&#x2190;" horiz-adv-x="1000" 
d="M240 237q-59 66 -102 100.5t-100 64.5v22q57 30 99.5 64t102.5 100h37q-23 -46 -38 -71.5t-43 -60.5h764v-86h-764q27 -34 43 -60t38 -73h-37z" />
    <glyph glyph-name="arrowup" unicode="&#x2191;" horiz-adv-x="500" 
d="M74 613q66 59 100.5 102t64.5 99h22q29 -56 63 -98.5t101 -102.5v-37q-47 22 -72.5 37.5t-60.5 43.5v-706h-85v706q-34 -27 -60 -43t-73 -38v37z" />
    <glyph glyph-name="arrowright" unicode="&#x2192;" horiz-adv-x="1000" 
d="M759 588q59 -66 102 -100t99 -64v-22q-56 -30 -98.5 -64t-102.5 -101h-37q22 48 37.5 73t43.5 60h-765v86h765q-27 33 -43 59.5t-38 72.5h37z" />
    <glyph glyph-name="arrowdown" unicode="&#x2193;" horiz-adv-x="500" 
d="M425 153q-66 -60 -100.5 -102.5t-63.5 -99.5h-22q-30 57 -64.5 99t-100.5 103v37q47 -23 72.5 -38.5t60.5 -42.5v705h85v-705q34 26 60 42t73 39v-37z" />
    <glyph glyph-name="arrowboth" unicode="&#x2194;" horiz-adv-x="903" 
d="M262 445h377v143h32l183 -159v-31l-183 -159h-32v143h-377v-143h-31l-183 159v31l183 159h31v-143z" />
    <glyph glyph-name="arrowupdn" unicode="&#x2195;" horiz-adv-x="500" 
d="M292 717v-607q33 26 59.5 42.5t73.5 38.5v-37q-66 -59 -100.5 -102t-63.5 -100h-22q-30 57 -64.5 99.5t-100.5 102.5v37q47 -23 72 -38t61 -43v607q-34 -27 -60 -43t-73 -38v37q66 59 100.5 102t64.5 100h22q29 -57 63 -99.5t101 -102.5v-37q-47 22 -72.5 37.5
t-60.5 43.5z" />
    <glyph glyph-name="arrowupdnbse" unicode="&#x21a8;" horiz-adv-x="500" 
d="M292 717v-607q33 26 59.5 42.5t73.5 38.5v-37q-66 -59 -100.5 -102t-63.5 -100h-22q-30 57 -64.5 99.5t-100.5 102.5v37q47 -23 72 -38t61 -43v607q-34 -27 -60 -43t-73 -38v37q66 59 100.5 102t64.5 100h22q29 -57 63 -99.5t101 -102.5v-37q-47 22 -72.5 37.5
t-60.5 43.5zM74 -84h351v-86h-351v86z" />
    <glyph glyph-name="uni21B2" unicode="&#x21b2;" horiz-adv-x="712" 
d="M553 191h-287q55 -62 79 -132h-35q-68 100 -190 144v24q122 44 190 144h35q-24 -70 -79 -132h239v352h48v-400z" />
    <glyph glyph-name="uni21B3" unicode="&#x21b3;" horiz-adv-x="712" 
d="M593 203q-121 -44 -190 -144h-35q23 70 79 132h-287v400h48v-352h239q-56 62 -79 132h35q69 -100 190 -144v-24z" />
    <glyph glyph-name="uni21B9" unicode="&#x21b9;" horiz-adv-x="1000" 
d="M961 547h-642q26 -33 42.5 -59.5t38.5 -72.5h-37q-59 65 -102 99.5t-100 64.5v22q57 30 99.5 64t102.5 101h37q-23 -47 -38 -72.5t-43 -60.5h642v-86zM124 766v-351h-85v351h85zM39 281h643q-26 33 -42.5 59.5t-38.5 73.5h37q59 -66 102 -100.5t100 -63.5v-22
q-57 -30 -99.5 -64.5t-102.5 -100.5h-37q22 47 37.5 72t43.5 61h-643v85zM876 63v351h86v-351h-86z" />
    <glyph glyph-name="uni21EE" unicode="&#x21ee;" horiz-adv-x="1000" 
d="M196 456h607q-27 33 -43 59.5t-38 73.5h37q59 -66 102 -100t99 -65v-22q-56 -29 -98.5 -63t-102.5 -101h-37q22 47 37.5 72t43.5 61h-607q27 -34 43 -60t38 -73h-37q-59 66 -102 100.5t-100 63.5v23q57 30 99.5 63.5t102.5 100.5h37q-23 -47 -38 -72t-43 -61z" />
    <glyph glyph-name="partialdiff" unicode="&#x2202;" horiz-adv-x="494" 
d="M113 599q24 66 69.5 102.5t106.5 36.5q84 0 135 -62t51 -203q0 -111 -18 -208.5t-54.5 -158.5t-86 -89t-108.5 -28q-79 0 -130 47t-51 130q0 117 90.5 204.5t256.5 90.5q0 100 -21 138.5t-66 38.5q-31 0 -52.5 -17.5t-42.5 -62.5zM366 364l-21 1q-41 0 -70 -7.5t-60 -34
t-48.5 -62.5t-17.5 -85q0 -84 67 -84q71 0 104.5 78.5t45.5 193.5z" />
    <glyph glyph-name="Delta" unicode="&#x2206;" horiz-adv-x="611" 
d="M599 0h-586l306 711zM483 40l-194 506l-215 -506h409z" />
    <glyph glyph-name="product" unicode="&#x220f;" horiz-adv-x="748" 
d="M225 561v-455q0 -115 -81 -115t-81 115v491q0 64 25 89q24 25 87 25h398q63 0 88 -25q24 -25 24 -89v-491q0 -115 -81 -115t-81 115v455h-298z" />
    <glyph glyph-name="summation" unicode="&#x2211;" horiz-adv-x="546" 
d="M352 352l-142 -197h221q115 0 115 -78q0 -77 -115 -77h-317q-114 0 -114 83q0 27 13 53q8 17 32 49l144 196zM185 321l-144 196q-24 32 -32 49q-13 26 -13 53q0 83 114 83h317q115 0 115 -77q0 -78 -115 -78h-221l142 -197z" />
    <glyph glyph-name="minus" unicode="&#x2212;" horiz-adv-x="651" 
d="M440 413q70 0 70 -51t-71 -51h-358q-71 0 -71 51t71 51h359z" />
    <glyph glyph-name="uni2215" unicode="&#x2215;" horiz-adv-x="370" 
d="M416 671q0 -19 -15 -49l-310 -587q-31 -58 -70 -58q-66 0 -66 63q0 21 14 48l311 587q31 58 70 58q66 0 66 -62z" />
    <glyph glyph-name="uni2218" unicode="&#x2218;" horiz-adv-x="465" 
d="M104 501q53 53 129 53q75 0 129 -53q53 -53 53 -129q0 -75 -54 -129t-129 -54q-76 0 -129 54q-53 53 -53 129t54 129zM322.199 461.706q-37.1016 37.1006 -90.3018 37.1006q-52.501 0 -90.3018 -37.1006q-37.1006 -37.1006 -37.1006 -90.3018q0 -52.501 37.8008 -90.3018
q37.8008 -37.7998 90.3018 -37.7998q53.2002 0 90.3008 37.7998q37.1006 37.1006 37.1006 90.3018t-37.7998 90.3018z" />
    <glyph glyph-name="uni2219" unicode="&#x2219;" horiz-adv-x="324" 
d="M184.845 415.797q22.9502 -22.9502 22.9502 -54.3984q0 -33.1494 -22.9502 -55.249q-22.9492 -22.0996 -54.3984 -22.0996q-31.4482 0 -53.5479 21.25q-23.7998 21.249 -23.7998 56.0986q0 31.4482 22.9492 54.3984q22.9502 22.9492 54.3984 22.9492
q31.4492 0 54.3984 -22.9492z" />
    <glyph glyph-name="radical" unicode="&#x221a;" horiz-adv-x="558" 
d="M539 835l-168 -835h-131l-127 344l-101 -50l-37 74l190 94h26l108 -326h4h4l130 699h102z" />
    <glyph glyph-name="infinity" unicode="&#x221e;" horiz-adv-x="712" 
d="M331 421q66 108 158 108q67 0 111 -47t44 -128q0 -83 -44 -129.5t-111 -46.5q-90 0 -158 108q-30 -40 -68 -60.5t-72 -20.5q-50 0 -86.5 39.5t-36.5 109.5q0 42 14.5 73.5t42.5 52.5t66 21q79 0 140 -80zM383 355q43 -68 64 -81.5t44 -13.5q34 0 53 26.5t19 68.5
q0 45 -20.5 68.5t-50.5 23.5q-26 0 -50 -19.5t-59 -72.5zM283 356q-45 63 -86 63q-21 0 -35.5 -16.5t-14.5 -46.5t13.5 -47.5t36.5 -17.5q39 0 86 65z" />
    <glyph glyph-name="orthogonal" unicode="&#x221f;" horiz-adv-x="1000" 
d="M60 0v870h66v-804h814v-66h-880z" />
    <glyph glyph-name="intersection" unicode="&#x2229;" horiz-adv-x="718" 
d="M637 0h-95v385q0 135 -52 196.5t-138 61.5q-55 0 -94.5 -24t-61 -64.5t-27 -80t-5.5 -99.5v-375h-96v372q0 79 6.5 124t30 91.5t60 80.5t84.5 52t104 18q74 0 131 -29t93 -80.5t48 -107.5t12 -140v-381z" />
    <glyph glyph-name="integral" unicode="&#x222b;" horiz-adv-x="273" 
d="M212 910q24 0 42.5 -17t18.5 -36q0 -21 -12.5 -35.5t-31.5 -14.5q-17 0 -38 17q-13 10 -19 10q-20 0 -20 -31q0 -16 5 -71q18 -201 18 -325q0 -13 -4 -163t-7.5 -187.5t-13 -72t-23.5 -54t-31 -28.5t-38 -9q-26 0 -42 16t-16 43q0 23 12 35t32 12q19 0 34 -17
q13 -13 24 -13q19 0 19 30q0 16 -5 58q-19 165 -19 323q0 43 5 204t8 185q7 47 22 79.5t37 47t43 14.5z" />
    <glyph glyph-name="approxequal" unicode="&#x2248;" horiz-adv-x="833" 
d="M69 419q0 36 71 75q72 39 137 39q43 0 85 -10l35 -11q14 -4 34 -12l31 -12q18 -7 32 -11q36 -10 69 -10q28 0 58 11q23 8 49 24l37 24q18 11 25 11q37 0 37 -57q0 -36 -71 -75q-71 -40 -136 -40q-33 0 -72 10q-15 4 -34 11q-8 2 -17 6l-52 18q-20 7 -36 11q-40 10 -76 10
q-28 0 -58 -11q-23 -8 -49 -23l-37 -24q-18 -11 -25 -11q-37 0 -37 57zM69 244q0 36 71 75q72 39 137 39q43 0 85 -10l35 -11q14 -4 34 -12l31 -12q18 -7 32 -11q36 -10 69 -10q28 0 58 11q23 8 49 24l37 24q18 11 25 11q37 0 37 -57q0 -36 -71 -75q-71 -40 -136 -40
q-33 0 -72 10q-15 4 -34 11q-8 2 -17 6l-52 18q-20 7 -36 11q-40 10 -76 10q-28 0 -58 -11q-23 -8 -49 -23l-37 -24q-18 -11 -25 -11q-37 0 -37 57z" />
    <glyph glyph-name="notequal" unicode="&#x2260;" horiz-adv-x="810" 
d="M640 468q70 0 70 -51t-71 -51h-468q-71 0 -71 51t71 51h469zM640 254q70 0 70 -51t-71 -51h-468q-71 0 -71 51t71 51h469zM628 477.5q0 -9.5 -15 -24.5l-310 -293.5q-31 -29 -70 -29q-66 0 -66 31.5q0 10.5 14 24l311 293.5q31 29 70 29q66 0 66 -31z" />
    <glyph glyph-name="equivalence" unicode="&#x2261;" horiz-adv-x="651" 
d="M440 413q70 0 70 -51t-71 -51h-358q-71 0 -71 51t71 51h359zM440 209q70 0 70 -51t-71 -51h-358q-71 0 -71 51t71 51h359zM440 617q70 0 70 -51t-71 -51h-358q-71 0 -71 51t71 51h359z" />
    <glyph glyph-name="lessequal" unicode="&#x2264;" horiz-adv-x="787" 
d="M92 449l541 222q27 10 36 10q39 0 39 -47q0 -40 -41 -56l-437 -178l437 -178q41 -16 41 -58q0 -22 -14 -34q-11 -10 -25 -10q-6 0 -13 2q-9 2 -20 6l-544 224q-31 13 -31 47q0 37 31 50zM555 103q70 0 70 -51t-71 -51h-358q-71 0 -71 51t71 51h359z" />
    <glyph glyph-name="greaterequal" unicode="&#x2265;" horiz-adv-x="787" 
d="M699 373l-544 -224q-20 -8 -33 -8q-6 0 -12 2q-8 2 -13 7q-14 11 -14 32q0 44 41 61l437 178l-437 178q-41 17 -41 56q0 47 39 47q5 0 13 -2q10 -3 23 -8l541 -222q31 -13 31 -50q0 -34 -31 -47zM593 107q70 0 70 -51t-71 -51h-358q-71 0 -71 51t71 51h359z" />
    <glyph glyph-name="uni22F2" unicode="&#x22f2;" horiz-adv-x="833" 
d="M69 419q0 35 71 75q72 39 137 39q43 0 85 -11l35 -10q14 -5 34 -12l31 -13q18 -6 32 -10q36 -10 69 -10q28 0 58 10q23 9 49 25l37 24q18 11 25 11q37 0 37 -57q0 -37 -71 -76t-136 -39q-33 0 -72 10q-15 4 -34 10q-8 3 -17 6l-52 19q-20 6 -36 10q-40 11 -76 11
q-28 0 -58 -11q-23 -8 -49 -24l-37 -24q-18 -10 -25 -10q-37 0 -37 57zM69 244q0 35 71 75q72 39 137 39q43 0 85 -11l35 -10q14 -5 34 -12l31 -13q18 -6 32 -10q36 -10 69 -10q28 0 58 10q23 9 49 25l37 24q18 11 25 11q37 0 37 -57q0 -37 -71 -76t-136 -39q-33 0 -72 10
q-15 4 -34 10q-8 3 -17 6l-52 19q-20 6 -36 10q-40 11 -76 11q-28 0 -58 -11q-23 -8 -49 -24l-37 -24q-18 -10 -25 -10q-37 0 -37 57z" />
    <glyph glyph-name="house" unicode="&#x2302;" horiz-adv-x="600" 
d="M74 0v310l225 253l226 -253v-310h-451zM114 40h371v253l-186 208l-185 -208v-253z" />
    <glyph glyph-name="revlogicalnot" unicode="&#x2310;" horiz-adv-x="583" 
d="M537 417h-375v-218h-95v313h470v-95z" />
    <glyph glyph-name="integraltp" unicode="&#x2320;" horiz-adv-x="604" 
d="M337 -170h-71v803q0 107 43.5 161t99.5 54q32 0 49.5 -16t17.5 -37q0 -20 -12.5 -32.5t-30.5 -12.5q-15 0 -28 7q-9 5 -20.5 23t-22.5 18q-8 0 -15 -6q-5 -4 -7 -13q-3 -16 -3 -68v-881z" />
    <glyph glyph-name="integralbt" unicode="&#x2321;" horiz-adv-x="604" 
d="M266 848h71v-803q0 -107 -43.5 -161t-99.5 -54q-32 0 -49.5 16t-17.5 37q0 20 12.5 32.5t29.5 12.5q16 0 29 -8q9 -4 20.5 -22t22.5 -18q8 0 15 6q5 4 7 14q3 16 3 67v881z" />
    <glyph glyph-name="Agrave" unicode="&#xc0;" horiz-adv-x="637" 
d="M399 284l-81 263l-88 -263h169zM441 629l180 -511q11 -31 11 -51q0 -76 -80 -76q-60 0 -85 79l-20 64h-263l-24 -70q-24 -73 -78 -73q-77 0 -77 78q0 27 8 47l185 502q38 105 124 105q85 0 119 -94z" />
    <glyph glyph-name="Aacute" unicode="&#xc1;" horiz-adv-x="616" 
d="M225 434h88q57 0 103 -10q51 -11 87 -35q83 -55 83 -175q0 -91 -66 -151q-71 -63 -187 -63h-160q-63 0 -86 20q-24 22 -24 82v495q0 64 25 89q24 25 87 25h221q115 0 115 -68q0 -70 -114 -70h-172v-139zM225 138h81q110 0 110 81q0 80 -113 80h-78v-161z" />
    <glyph glyph-name="Acircumflex" unicode="&#xc2;" horiz-adv-x="616" 
d="M308 711q222 0 222 -177q0 -102 -88 -140q144 -36 144 -180q0 -214 -253 -214h-160q-64 0 -87 22t-23 80v495q0 62 22 87q25 27 90 27h133zM225 138h80q111 0 111 81q0 80 -113 80h-78v-161zM225 434h68q80 0 80 69q0 70 -82 70h-66v-139z" />
    <glyph glyph-name="Atilde" unicode="&#xc3;" horiz-adv-x="490" 
d="M357 711q115 0 115 -76q0 -74 -115 -74h-132v-455q0 -115 -81 -115t-81 115v491q0 62 22 87q25 27 90 27h182z" />
    <glyph glyph-name="Adieresis" unicode="&#xc4;" horiz-adv-x="830" 
d="M175 0v-89q0 -115 -79 -115q-78 0 -78 115v117q0 122 97 122q42 41 59 114q14 58 14 149v184q0 64 25 89q24 25 87 25h300q63 0 88 -25q24 -25 24 -89v-447q43 0 68 -25q32 -31 32 -97v-117q0 -115 -78 -115q-79 0 -79 115v89h-480zM550 561h-205v-42q0 -63 -3 -113
q-3 -59 -10 -105q-18 -108 -59 -151h277v411z" />
    <glyph glyph-name="Aring" unicode="&#xc5;" horiz-adv-x="505" 
d="M225 433h114q115 0 115 -75t-115 -75h-114v-133h137q115 0 115 -75t-115 -75h-189q-64 0 -87 22t-23 80v495q0 62 22 87q25 27 90 27h182q115 0 115 -76q0 -74 -115 -74h-132v-128z" />
    <glyph glyph-name="AE" unicode="&#xc6;" horiz-adv-x="982" 
d="M572 608v-179l210 238q50 56 84 56q29 0 51 -22t22 -52q0 -37 -41 -80l-179 -187l217 -236q41 -46 41 -80q0 -31 -24 -53q-22 -22 -51 -22q-24 0 -45 16q-14 10 -42 41l-243 268v-210q0 -115 -81 -115t-81 115v210l-243 -268q-28 -31 -42 -41q-21 -16 -45 -16
q-29 0 -51 22q-24 22 -24 53q0 34 41 80l217 236l-179 187q-41 43 -41 80q0 30 22 52t51 22q34 0 84 -56l210 -238v179q0 115 81 115t81 -115z" />
    <glyph glyph-name="Ccedilla" unicode="&#xc7;" horiz-adv-x="613" 
d="M489 679q67 -53 67 -142q0 -99 -95 -146q122 -47 122 -182q0 -89 -78 -158q-81 -72 -195 -72q-67 0 -124 18q-51 16 -88 45q-72 55 -72 123q0 22 20 42q24 24 56 24q28 0 50 -18q9 -7 19 -18l17 -21q23 -27 42 -39q29 -18 69 -18q57 0 89 38q25 30 25 66q0 35 -18 57
q-23 27 -70 27h-59q-68 0 -68 70q0 65 68 65h36q92 0 92 86q0 68 -86 68q-56 0 -90 -20q-22 -13 -45 -44q-29 -38 -64 -38q-29 0 -45 23q-14 19 -14 46q0 66 72 117q76 54 182 54q117 0 185 -53z" />
    <glyph glyph-name="Egrave" unicode="&#xc8;" horiz-adv-x="748" 
d="M225 608v-336l299 395q43 56 87 56q74 0 74 -112v-505q0 -115 -81 -115t-81 115v327l-293 -387q-41 -55 -93 -55q-74 0 -74 97v520q0 115 81 115t81 -115z" />
    <glyph glyph-name="Eacute" unicode="&#xc9;" horiz-adv-x="748" 
d="M225 608v-336l299 395q43 56 87 56q74 0 74 -112v-505q0 -115 -81 -115t-81 115v327l-293 -387q-41 -55 -93 -55q-74 0 -74 97v520q0 115 81 115t81 -115zM278 782q-53 37 -53 85q0 55 52 55q18 0 33 -10q9 -6 25 -22q16 -17 26 -23q15 -10 34 -10q16 0 28 10q5 4 10 11
l7 8q2 2 3 4q12 15 22 22q16 10 37 10q53 0 53 -55q0 -48 -52 -86q-51 -36 -113 -36q-61 0 -112 37z" />
    <glyph glyph-name="Ecircumflex" unicode="&#xca;" horiz-adv-x="635" 
d="M225 608v-179l210 238q50 56 84 56q29 0 51 -22t22 -52q0 -37 -41 -80l-179 -187l217 -236q41 -46 41 -80q0 -31 -24 -53q-22 -22 -51 -22q-24 0 -45 16q-14 10 -42 41l-243 268v-210q0 -115 -81 -115t-81 115v502q0 115 81 115t81 -115z" />
    <glyph glyph-name="Edieresis" unicode="&#xcb;" horiz-adv-x="719" 
d="M289 561v-101q0 -43 -3 -81q-3 -45 -11 -87q-17 -99 -59 -186q-55 -115 -121 -115q-77 0 -77 69q0 35 32 79q82 111 82 242v216q0 64 25 89q24 25 87 25h300q63 0 88 -25q24 -25 24 -89v-491q0 -115 -81 -115t-81 115v455h-205z" />
    <glyph glyph-name="Igrave" unicode="&#xcc;" horiz-adv-x="869" 
d="M334 624l108 -425l101 426q24 98 111 98q94 0 114 -120l79 -489q4 -23 4 -39q0 -84 -82 -84q-70 0 -80 94l-50 425h-1l-110 -438q-10 -39 -26 -57q-22 -24 -64 -24q-75 0 -95 81l-104 438h-1l-56 -415q-15 -104 -85 -104q-79 0 -79 84q0 18 6 49l87 485q20 114 110 114
q89 0 113 -99z" />
    <glyph glyph-name="Iacute" unicode="&#xcd;" horiz-adv-x="748" 
d="M523 437v171q0 115 81 115t81 -115v-502q0 -115 -81 -115t-81 115v181h-298v-181q0 -115 -81 -115t-81 115v502q0 115 81 115t81 -115v-171h298z" />
    <glyph glyph-name="Icircumflex" unicode="&#xce;" horiz-adv-x="758" 
d="M631 629q97 -104 97 -274q0 -168 -96 -272t-253 -104t-253 104q-96 103 -96 272t97 273q96 104 252 104t252 -103zM254 518q-48 -61 -48 -165q0 -100 48 -160q48 -59 125 -59t125 59q48 60 48 160q0 104 -48 165q-47 59 -125 59t-125 -59z" />
    <glyph glyph-name="Idieresis" unicode="&#xcf;" horiz-adv-x="748" 
d="M225 561v-455q0 -115 -81 -115t-81 115v491q0 64 25 89q24 25 87 25h398q63 0 88 -25q24 -25 24 -89v-491q0 -115 -81 -115t-81 115v455h-298z" />
    <glyph glyph-name="Eth" unicode="&#xd0;" horiz-adv-x="612" 
d="M225 375h70q111 0 111 94q0 93 -111 93h-70v-187zM321 711q121 0 192 -66q69 -65 69 -176q0 -112 -65 -176q-66 -65 -183 -65h-109v-122q0 -115 -81 -115t-81 115v491q0 62 22 87q25 27 90 27h146z" />
    <glyph glyph-name="Ntilde" unicode="&#xd1;" horiz-adv-x="630" 
d="M534 699q59 -31 59 -75q0 -29 -21 -52q-21 -24 -49 -24q-12 0 -29 5q-7 1 -17 4l-17 6q-22 6 -37 9q-22 5 -42 5q-78 0 -126 -62q-49 -62 -49 -164q0 -99 49 -158t131 -59q23 0 47 6q17 4 40 14l13 5q3 1 4 2q10 4 17 6q18 6 30 6q25 0 45 -21q20 -22 20 -50
q0 -49 -62 -85q-65 -38 -162 -38q-156 0 -251 102q-97 103 -97 274q0 168 102 274q99 103 249 103q92 0 153 -33z" />
    <glyph glyph-name="Ograve" unicode="&#xd2;" horiz-adv-x="512" 
d="M397 711q115 0 115 -76q0 -74 -115 -74h-60v-455q0 -115 -81 -115t-81 115v455h-60q-115 0 -115 74q0 76 115 76h282z" />
    <glyph glyph-name="Oacute" unicode="&#xd3;" horiz-adv-x="580" 
d="M150 702q16 -15 34 -48l130 -234l111 227q19 39 35 55q22 21 54 21q61 0 61 -71q0 -25 -28 -76l-263 -490q-50 -95 -103 -95q-69 0 -69 64q0 31 22 65l99 159l-182 285q-33 53 -33 88q0 33 28 54q24 17 55 17q28 0 49 -21z" />
    <glyph glyph-name="Ocircumflex" unicode="&#xd4;" horiz-adv-x="914" 
d="M538 625v-20h86q119 0 189 -64q71 -65 71 -178q0 -110 -71 -177q-69 -64 -176 -64h-99v-31q0 -100 -81 -100t-81 100v31h-99q-247 0 -247 241q0 113 70 178q70 64 190 64h86v20q0 98 81 98t81 -98zM538 259h60q110 0 110 104t-110 104h-60v-208zM376 467h-60
q-110 0 -110 -104t110 -104h60v208z" />
    <glyph glyph-name="Otilde" unicode="&#xd5;" horiz-adv-x="607" 
d="M205 658l100 -140l102 142q45 63 86 63q27 0 49 -23q22 -22 22 -49q0 -31 -36 -82l-131 -182l173 -244q37 -53 37 -82q0 -27 -22 -48q-22 -22 -52 -22q-45 0 -88 61l-144 202l-143 -201q-43 -62 -85 -62q-29 0 -51 22t-22 49q0 31 36 82l173 241l-130 182q-36 50 -36 80
q0 76 79 76q36 0 83 -65z" />
    <glyph glyph-name="Odieresis" unicode="&#xd6;" horiz-adv-x="813" 
d="M523 150v458q0 115 81 115t81 -115v-458q62 0 85 -25q25 -27 25 -98v-116q0 -115 -78 -115q-79 0 -79 115v89h-494q-81 0 -81 115v493q0 115 81 115t81 -115v-458h298z" />
    <glyph glyph-name="multiply" unicode="&#xd7;" horiz-adv-x="696" 
d="M212 608v-112q0 -69 29 -97q24 -24 76 -24q83 0 154 62v171q0 115 81 115t81 -115v-502q0 -115 -81 -115t-81 115v181q-30 -18 -72 -31q-51 -16 -91 -16q-54 0 -96 10q-48 11 -82 36q-38 28 -58 74q-22 51 -22 124v124q0 115 81 115t81 -115z" />
    <glyph glyph-name="Oslash" unicode="&#xd8;" horiz-adv-x="1042" 
d="M440 150v458q0 115 81 115t81 -115v-458h215v458q0 115 81 115t81 -115v-493q0 -115 -81 -115h-754q-81 0 -81 115v493q0 115 81 115t81 -115v-458h215z" />
    <glyph glyph-name="Ugrave" unicode="&#xd9;" horiz-adv-x="1107" 
d="M440 150v458q0 115 81 115t81 -115v-458h215v458q0 115 81 115t81 -115v-458q62 0 85 -25q25 -27 25 -98v-116q0 -115 -78 -115q-79 0 -79 115v89h-788q-81 0 -81 115v493q0 115 81 115t81 -115v-458h215z" />
    <glyph glyph-name="Uacute" unicode="&#xda;" horiz-adv-x="733" 
d="M261 711q81 0 81 -115v-140h87q119 0 190 -52q84 -60 84 -181q0 -93 -67 -156q-71 -67 -186 -67h-160q-63 0 -86 21q-24 21 -24 81v459h-59q-66 0 -92 18q-24 16 -24 56q0 39 24 57q26 19 92 19h140zM342 138h81q110 0 110 91q0 89 -113 89h-78v-180z" />
    <glyph glyph-name="Ucircumflex" unicode="&#xdb;" horiz-adv-x="868" 
d="M805 608v-502q0 -115 -81 -115t-81 115v502q0 115 81 115t81 -115zM225 608v-152h87q119 0 190 -52q84 -60 84 -181q0 -93 -67 -156q-71 -67 -186 -67h-160q-63 0 -86 21q-24 21 -24 81v506q0 115 81 115t81 -115zM225 138h81q110 0 110 91q0 89 -113 89h-78v-180z" />
    <glyph glyph-name="Udieresis" unicode="&#xdc;" horiz-adv-x="616" 
d="M225 608v-152h87q119 0 190 -52q84 -60 84 -181q0 -93 -67 -156q-71 -67 -186 -67h-160q-63 0 -86 21q-24 21 -24 81v506q0 115 81 115t81 -115zM225 138h81q110 0 110 91q0 89 -113 89h-78v-180z" />
    <glyph glyph-name="Yacute" unicode="&#xdd;" horiz-adv-x="632" 
d="M504 626q98 -106 98 -271q0 -169 -96 -273q-96 -103 -252 -103q-98 0 -160 33q-64 34 -64 90q0 71 73 71q18 0 38 -6q13 -4 35 -13l2 -1q1 -1 2 -1l30 -12q19 -6 36 -6q143 0 173 152h-175q-114 0 -114 74q0 76 114 76h172q-8 62 -56 102q-47 39 -109 39q-31 0 -53 -4
q-15 -3 -31 -9l-24 -10q-15 -4 -34 -4q-70 0 -70 67q0 53 73 86q63 29 140 29q153 0 252 -106z" />
    <glyph glyph-name="Thorn" unicode="&#xde;" horiz-adv-x="1080" 
d="M359 437q23 135 114 215q93 80 228 80q156 0 252 -103q97 -104 97 -274q0 -168 -96 -272t-253 -104q-140 0 -233 84q-92 83 -111 224h-132v-181q0 -115 -81 -115t-81 115v502q0 115 81 115t81 -115v-171h134zM576 518q-48 -61 -48 -165q0 -100 48 -160q48 -59 125 -59
t125 59q48 60 48 160q0 104 -48 165q-47 59 -125 59t-125 -59z" />
    <glyph glyph-name="germandbls" unicode="&#xdf;" horiz-adv-x="621" 
d="M446 711q63 0 88 -25q24 -25 24 -89v-491q0 -115 -81 -115t-81 115v165l-199 -227q-46 -53 -98 -53q-69 0 -69 71q0 42 52 93l136 130q-170 51 -170 214q0 95 62 151q68 61 196 61h140zM396 562h-77q-101 0 -101 -85q0 -98 103 -98h75v183z" />
    <glyph glyph-name="agrave" unicode="&#xe0;" horiz-adv-x="603" 
d="M217 364q-30 -38 -30 -96q0 -60 29 -98q29 -39 73 -39t73 39q30 40 30 98q0 57 -30 96q-30 38 -73 38t-72 -38zM264 -13q-99 0 -168 78q-71 80 -71 201q0 119 72 200q71 80 173 80q78 0 126 -57q28 50 75 50q78 0 78 -114v-317q0 -115 -78 -115q-50 0 -75 55
q-50 -61 -132 -61z" />
    <glyph glyph-name="aacute" unicode="&#xe1;" horiz-adv-x="612" 
d="M513 65q-75 -78 -192 -78q-118 0 -191 72q-76 75 -76 207v97q0 62 5 108q6 57 19 102q33 105 117 164q35 25 77 43q31 13 74 26l26 7q2 1 9 2q22 6 33 10q36 11 59 22q25 13 49 13q65 0 65 -68q0 -44 -44 -74q-36 -23 -99 -42l-123 -34q-40 -11 -64 -21q-32 -14 -53 -34
q-50 -46 -50 -140q35 46 75 69q50 30 112 30q106 0 173 -68q73 -75 73 -212q0 -123 -74 -201zM216 268q0 -60 29 -98q29 -39 76 -39q104 0 104 137q0 57 -25 94q-28 40 -79 40q-105 0 -105 -134z" />
    <glyph glyph-name="acircumflex" unicode="&#xe2;" horiz-adv-x="572" 
d="M494 254q48 -37 48 -95q0 -76 -59 -119q-54 -40 -136 -40h-212q-81 0 -81 113v311q0 115 95 115h205q161 0 161 -125q0 -44 -34 -79q-30 -31 -71 -44q48 -8 84 -37zM211 327h91q63 0 63 49q0 18 -11 29q-14 15 -47 15h-96v-93zM211 126h98q78 0 78 58q0 49 -78 49h-98
v-107z" />
    <glyph glyph-name="atilde" unicode="&#xe3;" horiz-adv-x="432" 
d="M308 532q99 0 99 -70q0 -65 -99 -65h-97v-289q0 -115 -78 -115q-79 0 -79 115v286q0 138 98 138h156z" />
    <glyph glyph-name="adieresis" unicode="&#xe4;" horiz-adv-x="635" 
d="M463 532q42 0 62 -23q22 -27 22 -92v-282q76 0 76 -100v-102q0 -115 -75 -115t-75 115v67h-318v-67q0 -115 -76 -115q-74 0 -74 115v102q0 54 13 74q16 26 63 26q31 47 31 104v178q0 68 22 94q18 21 61 21h268zM257 397v-182q0 -18 -9 -46q-4 -12 -8 -21q-5 -10 -9 -13
h159v262h-133z" />
    <glyph glyph-name="aring" unicode="&#xe5;" horiz-adv-x="572" 
d="M187 223q12 -98 119 -98q27 0 54 8q20 6 45 18l37 17q18 8 30 8q63 0 63 -61q0 -49 -67 -87q-71 -41 -170 -41q-117 0 -195 79q-78 80 -78 200t76 200t189 80q111 0 185 -77q72 -74 72 -182q0 -64 -78 -64h-282zM394 325q-7 93 -103 93q-87 0 -105 -93h208z" />
    <glyph glyph-name="ae" unicode="&#xe6;" horiz-adv-x="795" 
d="M476 425v-67l134 139q41 42 82 42q65 0 65 -60q0 -39 -40 -76l-106 -98l147 -173q31 -37 31 -76q0 -63 -74 -63q-46 0 -82 47l-157 210v-142q0 -115 -80 -115q-77 0 -77 114v142l-157 -210q-35 -46 -82 -46q-74 0 -74 62q0 39 31 76l147 173l-106 98q-40 37 -40 76
q0 61 66 61q39 0 81 -43l134 -139v67q0 115 77 115q80 0 80 -114z" />
    <glyph glyph-name="ccedilla" unicode="&#xe7;" horiz-adv-x="533" 
d="M429 512q57 -37 57 -104q0 -41 -28 -74q-23 -28 -64 -47q109 -24 109 -121q0 -80 -70 -130q-70 -49 -181 -49q-92 0 -160 41q-67 40 -67 92q0 62 59 62q26 0 43 -11q7 -5 14 -12q3 -2 7 -6l4 -4q1 -2 3 -3q18 -17 36 -25q27 -11 68 -11q87 0 87 70q0 49 -71 49h-35
q-57 0 -57 51q0 47 57 47h27q62 0 62 50q0 46 -70 46q-27 0 -52 -8q-18 -6 -38 -17l-16 -9q-9 -6 -15 -8q-15 -8 -26 -8q-25 0 -45 20q-20 19 -20 42q0 48 72 80q68 31 159 31q96 0 151 -34z" />
    <glyph glyph-name="egrave" unicode="&#xe8;" horiz-adv-x="583" 
d="M211 424v-172l161 241q31 46 78 46q79 0 79 -115v-316q0 -115 -79 -115q-78 0 -78 115v166l-182 -253q-20 -28 -58 -28q-78 0 -78 115v316q0 115 78 115q79 0 79 -115z" />
    <glyph glyph-name="eacute" unicode="&#xe9;" horiz-adv-x="583" 
d="M211 424v-172l161 241q31 46 78 46q79 0 79 -115v-316q0 -115 -79 -115q-78 0 -78 115v166l-182 -253q-20 -28 -58 -28q-78 0 -78 115v316q0 115 78 115q79 0 79 -115zM203 592q-45 32 -45 73q0 46 45 46q23 0 48 -27q25 -28 45 -28q19 0 45 28q26 27 53 27q44 0 44 -46
q0 -42 -44 -73q-43 -31 -96 -31q-52 0 -95 31z" />
    <glyph glyph-name="ecircumflex" unicode="&#xea;" horiz-adv-x="525" 
d="M211 424v-66l135 139q41 42 81 42q66 0 66 -60q0 -39 -40 -76l-106 -98l147 -173q31 -37 31 -76q0 -63 -74 -63q-46 0 -82 47l-158 210v-142q0 -115 -78 -115q-79 0 -79 115v316q0 115 79 115q78 0 78 -115z" />
    <glyph glyph-name="edieresis" unicode="&#xeb;" horiz-adv-x="559" 
d="M215 397v-182q0 -88 -35 -154q-38 -74 -98 -74q-64 0 -64 66q0 16 8 34q3 7 8 16l10 17q12 22 18 37q8 23 8 46v214q0 115 83 115h268q84 0 84 -115v-309q0 -115 -79 -115q-78 0 -78 115v289h-133z" />
    <glyph glyph-name="igrave" unicode="&#xec;" horiz-adv-x="809" 
d="M242 482l167 -287l165 298q25 46 74 46q42 0 62 -21q24 -26 29 -94l25 -337q0 -94 -70 -94q-77 0 -86 115l-13 163l-116 -216q-33 -62 -75 -62q-39 0 -75 67l-114 211l-14 -163q-10 -115 -86 -115q-70 0 -70 93l26 338q5 64 29 91q20 24 61 24q48 0 81 -57z" />
    <glyph glyph-name="iacute" unicode="&#xed;" horiz-adv-x="585" 
d="M374 342v82q0 115 80 115q77 0 77 -115v-316q0 -115 -79 -115q-78 0 -78 115v108h-163v-107q0 -116 -79 -116q-78 0 -78 115v316q0 115 83 115q74 0 74 -114v-83h163z" />
    <glyph glyph-name="icircumflex" unicode="&#xee;" horiz-adv-x="583" 
d="M484 468q74 -79 74 -202t-74 -201q-75 -78 -192 -78t-192 78t-75 201t75 202q76 78 192 78q117 0 192 -78zM218 365q-31 -38 -31 -98q0 -136 105 -136q104 0 104 137q0 59 -30 97q-30 37 -74 37q-45 0 -74 -37z" />
    <glyph glyph-name="idieresis" unicode="&#xef;" horiz-adv-x="585" 
d="M531 108q0 -115 -78 -115q-79 0 -79 115v289h-163v-289q0 -115 -77 -115q-80 0 -80 115v309q0 64 21 91q18 24 59 24h319q40 0 57 -21q21 -27 21 -94v-309z" />
    <glyph glyph-name="eth" unicode="&#xf0;" horiz-adv-x="603" 
d="M338 546q101 0 170 -77q70 -79 70 -199q0 -118 -71 -201q-71 -82 -171 -82q-70 0 -125 47v-135q0 -115 -78 -115q-79 0 -79 115v530q0 110 79 110q49 0 75 -46q48 53 130 53zM211 267q0 -136 102 -136q103 0 103 137q0 59 -30 97q-29 37 -73 37q-102 0 -102 -135z" />
    <glyph glyph-name="ntilde" unicode="&#xf1;" horiz-adv-x="497" 
d="M424 518q48 -28 48 -73q0 -67 -65 -67q-9 0 -23 4q-5 1 -13 4q-2 0 -7 2q-5 1 -6 2q-37 12 -62 12q-48 0 -78 -38q-31 -38 -31 -99q0 -134 115 -134q26 0 62 12l6 2q5 2 7 2q7 3 12 4q13 4 21 4q61 0 61 -68q0 -42 -51 -71q-53 -29 -134 -29q-116 0 -188 77
q-73 77 -73 202q0 124 74 201q75 79 197 79q79 0 128 -28z" />
    <glyph glyph-name="ograve" unicode="&#xf2;" horiz-adv-x="500" 
d="M395 532q95 0 95 -67q0 -68 -96 -68h-66v-289q0 -115 -77 -115q-80 0 -80 115v289h-70q-91 0 -91 68q0 67 89 67h296z" />
    <glyph glyph-name="oacute" unicode="&#xf3;" horiz-adv-x="500" 
d="M162 463l89 -238l97 251q25 63 69 63q78 0 78 -75q0 -25 -13 -55l-240 -570q-27 -64 -69 -64q-78 0 -78 76q0 25 13 54l65 141l-159 371q-9 19 -9 44q0 78 77 78q52 0 80 -76z" />
    <glyph glyph-name="ocircumflex" unicode="&#xf4;" horiz-adv-x="939" 
d="M548 649v-157q49 54 126 54q101 0 170 -80q70 -81 70 -200q0 -117 -70 -198t-172 -81q-74 0 -124 42v-134q0 -115 -79 -115q-78 0 -78 115v134q-51 -42 -125 -42q-101 0 -171 82t-70 199q0 119 70 199q69 79 171 79q76 0 125 -54v157q0 115 78 115q79 0 79 -115zM576 362
q-28 -39 -28 -98q0 -133 101 -133q103 0 103 133q0 58 -29 98t-74 40q-44 0 -73 -40zM216 362q-29 -39 -29 -97q0 -134 102 -134t102 133q0 59 -28 98q-28 40 -73 40t-74 -40z" />
    <glyph glyph-name="otilde" unicode="&#xf5;" horiz-adv-x="513" 
d="M163 506l96 -111l88 108q30 36 64 36q33 0 57 -23t24 -54q0 -30 -35 -68l-104 -111l123 -139q19 -21 26 -34q11 -20 11 -44q0 -73 -72 -73q-37 0 -72 41l-113 134l-112 -134q-35 -41 -68 -41q-76 0 -76 78q0 33 33 69l131 144l-110 112q-30 32 -30 64q0 31 22 55t52 24
q36 0 65 -33z" />
    <glyph glyph-name="odieresis" unicode="&#xf6;" horiz-adv-x="622" 
d="M373 135v289q0 115 79 115q78 0 78 -119v-285q37 0 55 -20q22 -24 22 -80v-102q0 -119 -72 -119q-78 0 -78 115v71h-324q-79 0 -79 115v309q0 115 79 115q78 0 78 -115v-289h162z" />
    <glyph glyph-name="divide" unicode="&#xf7;" horiz-adv-x="561" 
d="M187 424v-53q0 -83 75 -83q88 0 88 66v70q0 115 78 115q79 0 79 -115v-316q0 -115 -79 -115q-78 0 -78 115v91q0 -3 -31 -13q-18 -6 -38 -9q-25 -4 -51 -4q-86 0 -139 43q-61 48 -61 141v67q0 115 80 115q77 0 77 -115z" />
    <glyph glyph-name="oslash" unicode="&#xf8;" horiz-adv-x="899" 
d="M371 135v289q0 115 78 115q79 0 79 -115v-289h160v289q0 115 78 115q79 0 79 -115v-309q0 -115 -76 -115h-638q-77 0 -77 115v308q0 116 77 116q80 0 80 -115v-289h160z" />
    <glyph glyph-name="ugrave" unicode="&#xf9;" horiz-adv-x="937" 
d="M371 135v289q0 115 78 115q79 0 79 -115v-289h160v289q0 115 78 115q79 0 79 -115v-289q37 0 55 -20q22 -24 22 -80v-102q0 -119 -72 -119q-78 0 -78 115v71h-641q-77 0 -77 115v308q0 116 77 116q80 0 80 -115v-289h160z" />
    <glyph glyph-name="uacute" unicode="&#xfa;" horiz-adv-x="663" 
d="M239 532q78 0 78 -115v-56h84q127 0 186 -49q51 -42 51 -121q0 -84 -64 -137q-65 -54 -172 -54h-163q-79 0 -79 113v284h-67q-88 0 -88 65q0 70 95 70h139zM317 126h87q77 0 77 64q0 59 -77 59h-87v-123z" />
    <glyph glyph-name="ucircumflex" unicode="&#xfb;" horiz-adv-x="796" 
d="M742 425v-317q0 -115 -78 -115q-79 0 -79 115v317q0 114 79 114q78 0 78 -114zM211 424v-63h84q127 0 186 -49q51 -42 51 -121q0 -84 -64 -137q-65 -54 -172 -54h-163q-79 0 -79 113v311q0 115 79 115q78 0 78 -115zM211 126h87q77 0 77 64q0 59 -77 59h-87v-123z" />
    <glyph glyph-name="udieresis" unicode="&#xfc;" horiz-adv-x="557" 
d="M211 424v-63h84q127 0 186 -49q51 -42 51 -121q0 -84 -64 -137q-65 -54 -172 -54h-163q-79 0 -79 113v311q0 115 79 115q78 0 78 -115zM211 126h87q77 0 77 64q0 59 -77 59h-87v-123z" />
    <glyph glyph-name="yacute" unicode="&#xfd;" horiz-adv-x="503" 
d="M403 468q75 -77 75 -202q0 -116 -73 -196q-75 -83 -189 -83q-79 0 -132 31t-53 74q0 59 59 59q16 0 30 -5q8 -2 23 -9q15 -8 24 -10q15 -5 32 -5q87 0 117 94h-103q-89 0 -89 58q0 68 101 68h91q-28 69 -107 69q-22 0 -40 -4q-12 -3 -26 -9l-21 -10q-12 -4 -25 -4
q-67 0 -67 63q0 47 58 75q50 24 119 24q121 0 196 -78z" />
    <glyph glyph-name="thorn" unicode="&#xfe;" horiz-adv-x="835" 
d="M284 332q16 96 89 155q72 59 171 59q117 0 191 -78q75 -78 75 -202q0 -123 -74 -201q-75 -78 -192 -78q-101 0 -170 54q-74 58 -90 165h-73v-98q0 -115 -79 -115q-78 0 -78 115v316q0 115 83 115q74 0 74 -115v-92h73zM440 268q0 -137 103 -137q105 0 105 137
q0 134 -104 134t-104 -134z" />
    <glyph glyph-name="ydieresis" unicode="&#xff;" horiz-adv-x="572" 
d="M518 93q0 -100 -80 -100q-38 0 -59 31q-18 28 -18 69v114h-54l-140 -173q-34 -41 -75 -41q-62 0 -62 67q0 39 50 91l87 88q-120 32 -120 153q0 66 50 107q50 40 127 40h200q94 0 94 -115v-331zM361 424h-85q-41 0 -58 -18q-14 -15 -14 -40t14 -40q18 -21 58 -21h85v119z
" />
    <glyph glyph-name="Amacron" unicode="&#x100;" horiz-adv-x="637" 
d="M399 284l-81 263l-88 -263h169zM441 629l180 -511q11 -31 11 -51q0 -76 -80 -76q-60 0 -85 79l-20 64h-263l-24 -70q-24 -73 -78 -73q-77 0 -77 78q0 27 8 47l185 502q38 105 124 105q85 0 119 -94zM421 886q78 0 78 -69q0 -66 -79 -66h-203q-78 0 -78 67q0 68 79 68h203
z" />
    <glyph glyph-name="amacron" unicode="&#x101;" horiz-adv-x="603" 
d="M217 364q-30 -38 -30 -96q0 -60 29 -98q29 -39 73 -39t73 39q30 40 30 98q0 57 -30 96q-30 38 -73 38t-72 -38zM264 -13q-99 0 -168 78q-71 80 -71 201q0 119 72 200q71 80 173 80q78 0 126 -57q28 50 75 50q78 0 78 -114v-317q0 -115 -78 -115q-50 0 -75 55
q-50 -61 -132 -61zM389 702q78 0 78 -69q0 -66 -79 -66h-203q-78 0 -78 67q0 68 79 68h203z" />
    <glyph glyph-name="Abreve" unicode="&#x102;" horiz-adv-x="637" 
d="M399 284l-81 263l-88 -263h169zM441 629l180 -511q11 -31 11 -51q0 -76 -80 -76q-60 0 -85 79l-20 64h-263l-24 -70q-24 -73 -78 -73q-77 0 -77 78q0 27 8 47l185 502q38 105 124 105q85 0 119 -94zM224 759q-45 32 -45 73q0 46 45 46q23 0 48 -27q25 -28 45 -28
q19 0 45 28q26 27 53 27q44 0 44 -46q0 -42 -44 -73q-43 -31 -96 -31q-52 0 -95 31z" />
    <glyph glyph-name="abreve" unicode="&#x103;" horiz-adv-x="603" 
d="M217 364q-30 -38 -30 -96q0 -60 29 -98q29 -39 73 -39t73 39q30 40 30 98q0 57 -30 96q-30 38 -73 38t-72 -38zM264 -13q-99 0 -168 78q-71 80 -71 201q0 119 72 200q71 80 173 80q78 0 126 -57q28 50 75 50q78 0 78 -114v-317q0 -115 -78 -115q-50 0 -75 55
q-50 -61 -132 -61zM192 575q-45 32 -45 73q0 46 45 46q23 0 48 -27q25 -28 45 -28q19 0 45 28q26 27 53 27q44 0 44 -46q0 -42 -44 -73q-43 -31 -96 -31q-52 0 -95 31z" />
    <glyph glyph-name="Aogonek" unicode="&#x104;" horiz-adv-x="637" 
d="M399 284l-81 263l-88 -263h169zM441 629l180 -511q11 -31 11 -51q0 -76 -80 -76q-60 0 -85 79l-20 64h-263l-24 -70q-24 -73 -78 -73q-77 0 -77 78q0 27 8 47l185 502q38 105 124 105q85 0 119 -94zM632 -46.25q0 -15.75 -16 -38.25l-79 -108q-30 -41.25 -70 -41.25
q-66 0 -66 47.25q0 16.5 16 37.5l79 108q30 41.25 70 41.25q66 0 66 -46.5z" />
    <glyph glyph-name="aogonek" unicode="&#x105;" horiz-adv-x="603" 
d="M217 364q-30 -38 -30 -96q0 -60 29 -98q29 -39 73 -39t73 39q30 40 30 98q0 57 -30 96q-30 38 -73 38t-72 -38zM264 -13q-99 0 -168 78q-71 80 -71 201q0 119 72 200q71 80 173 80q78 0 126 -57q28 50 75 50q78 0 78 -114v-317q0 -115 -78 -115q-50 0 -75 55
q-50 -61 -132 -61zM549 -46.25q0 -15.75 -16 -38.25l-79 -108q-30 -41.25 -70 -41.25q-66 0 -66 47.25q0 16.5 16 37.5l79 108q30 41.25 70 41.25q66 0 66 -46.5z" />
    <glyph glyph-name="Cacute" unicode="&#x106;" horiz-adv-x="630" 
d="M534 699q59 -31 59 -75q0 -29 -21 -52q-21 -24 -49 -24q-12 0 -29 5q-7 1 -17 4l-17 6q-22 6 -37 9q-22 5 -42 5q-78 0 -126 -62q-49 -62 -49 -164q0 -99 49 -158t131 -59q23 0 47 6q17 4 40 14l13 5q3 1 4 2q10 4 17 6q18 6 30 6q25 0 45 -21q20 -22 20 -50
q0 -49 -62 -85q-65 -38 -162 -38q-156 0 -251 102q-97 103 -97 274q0 168 102 274q99 103 249 103q92 0 153 -33zM456 826q0 -27 -26 -56l-76 -84q-28 -31 -54 -31q-54 0 -54 55q0 20 17 44l73 100q22 32 57 32q63 0 63 -60z" />
    <glyph glyph-name="cacute" unicode="&#x107;" horiz-adv-x="497" 
d="M424 518q48 -28 48 -73q0 -67 -65 -67q-9 0 -23 4q-5 1 -13 4q-2 0 -7 2q-5 1 -6 2q-37 12 -62 12q-48 0 -78 -38q-31 -38 -31 -99q0 -134 115 -134q26 0 62 12l6 2q5 2 7 2q7 3 12 4q13 4 21 4q61 0 61 -68q0 -42 -51 -71q-53 -29 -134 -29q-116 0 -188 77
q-73 77 -73 202q0 124 74 201q75 79 197 79q79 0 128 -28zM389 642q0 -27 -26 -56l-76 -84q-28 -31 -54 -31q-54 0 -54 55q0 20 17 44l73 100q22 32 57 32q63 0 63 -60z" />
    <glyph glyph-name="Ccircumflex" unicode="&#x108;" horiz-adv-x="630" 
d="M534 699q59 -31 59 -75q0 -29 -21 -52q-21 -24 -49 -24q-12 0 -29 5q-7 1 -17 4l-17 6q-22 6 -37 9q-22 5 -42 5q-78 0 -126 -62q-49 -62 -49 -164q0 -99 49 -158t131 -59q23 0 47 6q17 4 40 14l13 5q3 1 4 2q10 4 17 6q18 6 30 6q25 0 45 -21q20 -22 20 -50
q0 -49 -62 -85q-65 -38 -162 -38q-156 0 -251 102q-97 103 -97 274q0 168 102 274q99 103 249 103q92 0 153 -33zM229 691q-25 -15 -46 -15q-47 0 -47 51q0 30 30 54l109 85q21 16 41 16t41 -16l109 -85q30 -24 30 -54q0 -51 -47 -51q-20 0 -46 15l-87 53z" />
    <glyph glyph-name="ccircumflex" unicode="&#x109;" horiz-adv-x="497" 
d="M424 518q48 -28 48 -73q0 -67 -65 -67q-9 0 -23 4q-5 1 -13 4q-2 0 -7 2q-5 1 -6 2q-37 12 -62 12q-48 0 -78 -38q-31 -38 -31 -99q0 -134 115 -134q26 0 62 12l6 2q5 2 7 2q7 3 12 4q13 4 21 4q61 0 61 -68q0 -42 -51 -71q-53 -29 -134 -29q-116 0 -188 77
q-73 77 -73 202q0 124 74 201q75 79 197 79q79 0 128 -28zM162 507q-25 -15 -46 -15q-47 0 -47 51q0 30 30 54l109 85q21 16 41 16t41 -16l109 -85q30 -24 30 -54q0 -51 -47 -51q-20 0 -46 15l-87 53z" />
    <glyph glyph-name="Cdotaccent" unicode="&#x10a;" horiz-adv-x="630" 
d="M534 699q59 -31 59 -75q0 -29 -21 -52q-21 -24 -49 -24q-12 0 -29 5q-7 1 -17 4l-17 6q-22 6 -37 9q-22 5 -42 5q-78 0 -126 -62q-49 -62 -49 -164q0 -99 49 -158t131 -59q23 0 47 6q17 4 40 14l13 5q3 1 4 2q10 4 17 6q18 6 30 6q25 0 45 -21q20 -22 20 -50
q0 -49 -62 -85q-65 -38 -162 -38q-156 0 -251 102q-97 103 -97 274q0 168 102 274q99 103 249 103q92 0 153 -33zM370.845 885.797q22.9502 -22.9502 22.9502 -54.3984q0 -33.1494 -22.9502 -55.249q-22.9492 -22.0996 -54.3984 -22.0996q-31.4482 0 -53.5479 21.25
q-23.7998 21.249 -23.7998 56.0986q0 31.4482 22.9492 54.3984q22.9502 22.9492 54.3984 22.9492q31.4492 0 54.3984 -22.9492z" />
    <glyph glyph-name="cdotaccent" unicode="&#x10b;" horiz-adv-x="497" 
d="M424 518q48 -28 48 -73q0 -67 -65 -67q-9 0 -23 4q-5 1 -13 4q-2 0 -7 2q-5 1 -6 2q-37 12 -62 12q-48 0 -78 -38q-31 -38 -31 -99q0 -134 115 -134q26 0 62 12l6 2q5 2 7 2q7 3 12 4q13 4 21 4q61 0 61 -68q0 -42 -51 -71q-53 -29 -134 -29q-116 0 -188 77
q-73 77 -73 202q0 124 74 201q75 79 197 79q79 0 128 -28zM302.845 701.797q22.9502 -22.9502 22.9502 -54.3984q0 -33.1494 -22.9502 -55.249q-22.9492 -22.0996 -54.3984 -22.0996q-31.4482 0 -53.5479 21.25q-23.7998 21.249 -23.7998 56.0986q0 31.4482 22.9492 54.3984
q22.9502 22.9492 54.3984 22.9492q31.4492 0 54.3984 -22.9492z" />
    <glyph glyph-name="Ccaron" unicode="&#x10c;" horiz-adv-x="630" 
d="M534 699q59 -31 59 -75q0 -29 -21 -52q-21 -24 -49 -24q-12 0 -29 5q-7 1 -17 4l-17 6q-22 6 -37 9q-22 5 -42 5q-78 0 -126 -62q-49 -62 -49 -164q0 -99 49 -158t131 -59q23 0 47 6q17 4 40 14l13 5q3 1 4 2q10 4 17 6q18 6 30 6q25 0 45 -21q20 -22 20 -50
q0 -49 -62 -85q-65 -38 -162 -38q-156 0 -251 102q-97 103 -97 274q0 168 102 274q99 103 249 103q92 0 153 -33zM316 817l87 53q26 15 46 15q47 0 47 -51q0 -30 -30 -54l-109 -85q-21 -16 -41 -16t-41 16l-109 85q-30 24 -30 54q0 51 47 51q21 0 46 -15z" />
    <glyph glyph-name="ccaron" unicode="&#x10d;" horiz-adv-x="497" 
d="M424 518q48 -28 48 -73q0 -67 -65 -67q-9 0 -23 4q-5 1 -13 4q-2 0 -7 2q-5 1 -6 2q-37 12 -62 12q-48 0 -78 -38q-31 -38 -31 -99q0 -134 115 -134q26 0 62 12l6 2q5 2 7 2q7 3 12 4q13 4 21 4q61 0 61 -68q0 -42 -51 -71q-53 -29 -134 -29q-116 0 -188 77
q-73 77 -73 202q0 124 74 201q75 79 197 79q79 0 128 -28zM249 633l87 53q26 15 46 15q47 0 47 -51q0 -30 -30 -54l-109 -85q-21 -16 -41 -16t-41 16l-109 85q-30 24 -30 54q0 51 47 51q21 0 46 -15z" />
    <glyph glyph-name="Dcaron" unicode="&#x10e;" horiz-adv-x="698" 
d="M321 711q152 0 249 -94q98 -97 98 -254q0 -167 -92 -264q-93 -99 -255 -99h-148q-64 0 -87 22t-23 80v495q0 62 22 87q25 27 90 27h146zM225 150h74q193 0 193 214q0 197 -196 197h-71v-411zM366 817l87 53q26 15 46 15q47 0 47 -51q0 -30 -30 -54l-109 -85
q-21 -16 -41 -16t-41 16l-109 85q-30 24 -30 54q0 51 47 51q21 0 46 -15z" />
    <glyph glyph-name="dcaron" unicode="&#x10f;" horiz-adv-x="603" 
d="M268 -13q-98 0 -170 82q-73 83 -73 202q0 118 72 198q70 77 171 77q75 0 124 -42v144q0 115 79 115q78 0 78 -115v-540q0 -115 -78 -115q-47 0 -75 51q-52 -57 -128 -57zM187 268q0 -60 30 -98q29 -39 74 -39q101 0 101 137q0 134 -101 134q-104 0 -104 -134zM791 700
q0 -27 -26 -56l-76 -84q-28 -31 -54 -31q-54 0 -54 55q0 20 17 44l73 100q22 32 57 32q63 0 63 -60z" />
    <glyph glyph-name="Dcroat" unicode="&#x110;" horiz-adv-x="698" 
d="M321 711q152 0 249 -94q98 -97 98 -254q0 -167 -92 -264q-93 -99 -255 -99h-148q-64 0 -87 22t-23 80v495q0 62 22 87q25 27 90 27h146zM225 150h74q193 0 193 214q0 197 -196 197h-71v-411zM377 311q-21 -16 -60 -14l-113 8q-42 3 -58 23q-33 43 10 77q16 12 45 13
l124 5q39 2 60 -25q39 -50 -8 -87z" />
    <glyph glyph-name="dcroat" unicode="&#x111;" horiz-adv-x="603" 
d="M268 -13q-98 0 -170 82q-73 83 -73 202q0 118 72 198q70 77 171 77q75 0 124 -42v144q0 115 79 115q78 0 78 -115v-540q0 -115 -78 -115q-47 0 -75 51q-52 -57 -128 -57zM187 268q0 -60 30 -98q29 -39 74 -39q101 0 101 137q0 134 -101 134q-104 0 -104 -134zM717 668
q70 0 70 -51t-71 -51h-499q-71 0 -71 51t71 51h500z" />
    <glyph glyph-name="Emacron" unicode="&#x112;" horiz-adv-x="505" 
d="M225 433h114q115 0 115 -75t-115 -75h-114v-133h137q115 0 115 -75t-115 -75h-189q-64 0 -87 22t-23 80v495q0 62 22 87q25 27 90 27h182q115 0 115 -76q0 -74 -115 -74h-132v-128zM372 886q78 0 78 -69q0 -66 -79 -66h-203q-78 0 -78 67q0 68 79 68h203z" />
    <glyph glyph-name="emacron" unicode="&#x113;" horiz-adv-x="572" 
d="M187 223q12 -98 119 -98q27 0 54 8q20 6 45 18l37 17q18 8 30 8q63 0 63 -61q0 -49 -67 -87q-71 -41 -170 -41q-117 0 -195 79q-78 80 -78 200t76 200t189 80q111 0 185 -77q72 -74 72 -182q0 -64 -78 -64h-282zM394 325q-7 93 -103 93q-87 0 -105 -93h208zM388 702
q78 0 78 -69q0 -66 -79 -66h-203q-78 0 -78 67q0 68 79 68h203z" />
    <glyph glyph-name="Ebreve" unicode="&#x114;" horiz-adv-x="505" 
d="M225 433h114q115 0 115 -75t-115 -75h-114v-133h137q115 0 115 -75t-115 -75h-189q-64 0 -87 22t-23 80v495q0 62 22 87q25 27 90 27h182q115 0 115 -76q0 -74 -115 -74h-132v-128zM175 759q-45 32 -45 73q0 46 45 46q23 0 48 -27q25 -28 45 -28q19 0 45 28q26 27 53 27
q44 0 44 -46q0 -42 -44 -73q-43 -31 -96 -31q-52 0 -95 31z" />
    <glyph glyph-name="ebreve" unicode="&#x115;" horiz-adv-x="572" 
d="M187 223q12 -98 119 -98q27 0 54 8q20 6 45 18l37 17q18 8 30 8q63 0 63 -61q0 -49 -67 -87q-71 -41 -170 -41q-117 0 -195 79q-78 80 -78 200t76 200t189 80q111 0 185 -77q72 -74 72 -182q0 -64 -78 -64h-282zM394 325q-7 93 -103 93q-87 0 -105 -93h208zM191 575
q-45 32 -45 73q0 46 45 46q23 0 48 -27q25 -28 45 -28q19 0 45 28q26 27 53 27q44 0 44 -46q0 -42 -44 -73q-43 -31 -96 -31q-52 0 -95 31z" />
    <glyph glyph-name="Edotaccent" unicode="&#x116;" horiz-adv-x="505" 
d="M225 433h114q115 0 115 -75t-115 -75h-114v-133h137q115 0 115 -75t-115 -75h-189q-64 0 -87 22t-23 80v495q0 62 22 87q25 27 90 27h182q115 0 115 -76q0 -74 -115 -74h-132v-128zM324.845 885.797q22.9502 -22.9502 22.9502 -54.3984q0 -33.1494 -22.9502 -55.249
q-22.9492 -22.0996 -54.3984 -22.0996q-31.4482 0 -53.5479 21.25q-23.7998 21.249 -23.7998 56.0986q0 31.4482 22.9492 54.3984q22.9502 22.9492 54.3984 22.9492q31.4492 0 54.3984 -22.9492z" />
    <glyph glyph-name="edotaccent" unicode="&#x117;" horiz-adv-x="572" 
d="M187 223q12 -98 119 -98q27 0 54 8q20 6 45 18l37 17q18 8 30 8q63 0 63 -61q0 -49 -67 -87q-71 -41 -170 -41q-117 0 -195 79q-78 80 -78 200t76 200t189 80q111 0 185 -77q72 -74 72 -182q0 -64 -78 -64h-282zM394 325q-7 93 -103 93q-87 0 -105 -93h208z
M340.845 701.797q22.9502 -22.9502 22.9502 -54.3984q0 -33.1494 -22.9502 -55.249q-22.9492 -22.0996 -54.3984 -22.0996q-31.4482 0 -53.5479 21.25q-23.7998 21.249 -23.7998 56.0986q0 31.4482 22.9492 54.3984q22.9502 22.9492 54.3984 22.9492
q31.4492 0 54.3984 -22.9492z" />
    <glyph glyph-name="Eogonek" unicode="&#x118;" horiz-adv-x="505" 
d="M225 433h114q115 0 115 -75t-115 -75h-114v-133h137q115 0 115 -75t-115 -75h-189q-64 0 -87 22t-23 80v495q0 62 22 87q25 27 90 27h182q115 0 115 -76q0 -74 -115 -74h-132v-128zM477 -46.25q0 -15.75 -16 -38.25l-79 -108q-30 -41.25 -70 -41.25q-66 0 -66 47.25
q0 16.5 16 37.5l79 108q30 41.25 70 41.25q66 0 66 -46.5z" />
    <glyph glyph-name="eogonek" unicode="&#x119;" horiz-adv-x="572" 
d="M187 223q12 -98 119 -98q27 0 54 8q20 6 45 18l37 17q18 8 30 8q63 0 63 -61q0 -49 -67 -87q-71 -41 -170 -41q-117 0 -195 79q-78 80 -78 200t76 200t189 80q111 0 185 -77q72 -74 72 -182q0 -64 -78 -64h-282zM394 325q-7 93 -103 93q-87 0 -105 -93h208zM547 34.75
q0 -15.75 -16 -38.25l-79 -108q-30 -41.25 -70 -41.25q-66 0 -66 47.25q0 16.5 16 37.5l79 108q30 41.25 70 41.25q66 0 66 -46.5z" />
    <glyph glyph-name="Ecaron" unicode="&#x11a;" horiz-adv-x="505" 
d="M225 433h114q115 0 115 -75t-115 -75h-114v-133h137q115 0 115 -75t-115 -75h-189q-64 0 -87 22t-23 80v495q0 62 22 87q25 27 90 27h182q115 0 115 -76q0 -74 -115 -74h-132v-128zM270 817l87 53q26 15 46 15q47 0 47 -51q0 -30 -30 -54l-109 -85q-21 -16 -41 -16
t-41 16l-109 85q-30 24 -30 54q0 51 47 51q21 0 46 -15z" />
    <glyph glyph-name="ecaron" unicode="&#x11b;" horiz-adv-x="572" 
d="M187 223q12 -98 119 -98q27 0 54 8q20 6 45 18l37 17q18 8 30 8q63 0 63 -61q0 -49 -67 -87q-71 -41 -170 -41q-117 0 -195 79q-78 80 -78 200t76 200t189 80q111 0 185 -77q72 -74 72 -182q0 -64 -78 -64h-282zM394 325q-7 93 -103 93q-87 0 -105 -93h208zM286 633
l87 53q26 15 46 15q47 0 47 -51q0 -30 -30 -54l-109 -85q-21 -16 -41 -16t-41 16l-109 85q-30 24 -30 54q0 51 47 51q21 0 46 -15z" />
    <glyph glyph-name="Gcircumflex" unicode="&#x11c;" horiz-adv-x="729" 
d="M579 684q72 -44 72 -100q0 -76 -69 -76q-15 0 -37 11q-5 2 -10 5q-5 2 -11 6l-22 13q-29 15 -52 23q-33 11 -66 11q-178 0 -178 -218q0 -104 49 -165q48 -60 128 -60q64 0 104 39q40 40 40 104h-57q-114 0 -114 75t114 75h119q114 0 114 -106q0 -150 -90 -245
q-93 -97 -243 -97q-149 0 -244 104q-96 105 -96 273q0 173 98 275q97 101 261 101q113 0 190 -48zM280 691q-25 -15 -46 -15q-47 0 -47 51q0 30 30 54l109 85q21 16 41 16t41 -16l109 -85q30 -24 30 -54q0 -51 -47 -51q-20 0 -46 15l-87 53z" />
    <glyph glyph-name="gcircumflex" unicode="&#x11d;" horiz-adv-x="599" 
d="M217 364q-30 -39 -30 -98q0 -129 103 -129q105 0 105 129q0 59 -31 98q-30 38 -74 38t-73 -38zM466 539q79 0 79 -114v-317q0 -168 -59 -248q-66 -90 -218 -90q-104 0 -169 35q-62 34 -62 82q0 69 68 69q13 0 31 -7l22 -8q4 -1 5 -2l10 -4q25 -10 45 -14q28 -7 56 -7
q121 0 121 133v19q-51 -73 -142 -73q-95 0 -160 77q-68 78 -68 196q0 119 72 200q71 80 172 80q79 0 127 -57q27 50 70 50zM198 507q-25 -15 -46 -15q-47 0 -47 51q0 30 30 54l109 85q21 16 41 16t41 -16l109 -85q30 -24 30 -54q0 -51 -47 -51q-20 0 -46 15l-87 53z" />
    <glyph glyph-name="Gbreve" unicode="&#x11e;" horiz-adv-x="729" 
d="M579 684q72 -44 72 -100q0 -76 -69 -76q-15 0 -37 11q-5 2 -10 5q-5 2 -11 6l-22 13q-29 15 -52 23q-33 11 -66 11q-178 0 -178 -218q0 -104 49 -165q48 -60 128 -60q64 0 104 39q40 40 40 104h-57q-114 0 -114 75t114 75h119q114 0 114 -106q0 -150 -90 -245
q-93 -97 -243 -97q-149 0 -244 104q-96 105 -96 273q0 173 98 275q97 101 261 101q113 0 190 -48zM272 759q-45 32 -45 73q0 46 45 46q23 0 48 -27q25 -28 45 -28q19 0 45 28q26 27 53 27q44 0 44 -46q0 -42 -44 -73q-43 -31 -96 -31q-52 0 -95 31z" />
    <glyph glyph-name="gbreve" unicode="&#x11f;" horiz-adv-x="599" 
d="M217 364q-30 -39 -30 -98q0 -129 103 -129q105 0 105 129q0 59 -31 98q-30 38 -74 38t-73 -38zM466 539q79 0 79 -114v-317q0 -168 -59 -248q-66 -90 -218 -90q-104 0 -169 35q-62 34 -62 82q0 69 68 69q13 0 31 -7l22 -8q4 -1 5 -2l10 -4q25 -10 45 -14q28 -7 56 -7
q121 0 121 133v19q-51 -73 -142 -73q-95 0 -160 77q-68 78 -68 196q0 119 72 200q71 80 172 80q79 0 127 -57q27 50 70 50zM190 575q-45 32 -45 73q0 46 45 46q23 0 48 -27q25 -28 45 -28q19 0 45 28q26 27 53 27q44 0 44 -46q0 -42 -44 -73q-43 -31 -96 -31q-52 0 -95 31z
" />
    <glyph glyph-name="Gdotaccent" unicode="&#x120;" horiz-adv-x="729" 
d="M579 684q72 -44 72 -100q0 -76 -69 -76q-15 0 -37 11q-5 2 -10 5q-5 2 -11 6l-22 13q-29 15 -52 23q-33 11 -66 11q-178 0 -178 -218q0 -104 49 -165q48 -60 128 -60q64 0 104 39q40 40 40 104h-57q-114 0 -114 75t114 75h119q114 0 114 -106q0 -150 -90 -245
q-93 -97 -243 -97q-149 0 -244 104q-96 105 -96 273q0 173 98 275q97 101 261 101q113 0 190 -48zM420.845 885.797q22.9502 -22.9502 22.9502 -54.3984q0 -33.1494 -22.9502 -55.249q-22.9492 -22.0996 -54.3984 -22.0996q-31.4482 0 -53.5479 21.25
q-23.7998 21.249 -23.7998 56.0986q0 31.4482 22.9492 54.3984q22.9502 22.9492 54.3984 22.9492q31.4492 0 54.3984 -22.9492z" />
    <glyph glyph-name="gdotaccent" unicode="&#x121;" horiz-adv-x="599" 
d="M217 364q-30 -39 -30 -98q0 -129 103 -129q105 0 105 129q0 59 -31 98q-30 38 -74 38t-73 -38zM466 539q79 0 79 -114v-317q0 -168 -59 -248q-66 -90 -218 -90q-104 0 -169 35q-62 34 -62 82q0 69 68 69q13 0 31 -7l22 -8q4 -1 5 -2l10 -4q25 -10 45 -14q28 -7 56 -7
q121 0 121 133v19q-51 -73 -142 -73q-95 0 -160 77q-68 78 -68 196q0 119 72 200q71 80 172 80q79 0 127 -57q27 50 70 50zM339.845 701.797q22.9502 -22.9502 22.9502 -54.3984q0 -33.1494 -22.9502 -55.249q-22.9492 -22.0996 -54.3984 -22.0996
q-31.4482 0 -53.5479 21.25q-23.7998 21.249 -23.7998 56.0986q0 31.4482 22.9492 54.3984q22.9502 22.9492 54.3984 22.9492q31.4492 0 54.3984 -22.9492z" />
    <glyph glyph-name="Gcommaaccent" unicode="&#x122;" horiz-adv-x="729" 
d="M579 684q72 -44 72 -100q0 -76 -69 -76q-15 0 -37 11q-5 2 -10 5q-5 2 -11 6l-22 13q-29 15 -52 23q-33 11 -66 11q-178 0 -178 -218q0 -104 49 -165q48 -60 128 -60q64 0 104 39q40 40 40 104h-57q-114 0 -114 75t114 75h119q114 0 114 -106q0 -150 -90 -245
q-93 -97 -243 -97q-149 0 -244 104q-96 105 -96 273q0 173 98 275q97 101 261 101q113 0 190 -48z" />
    <glyph glyph-name="gcommaaccent" unicode="&#x123;" horiz-adv-x="599" 
d="M217 364q-30 -39 -30 -98q0 -129 103 -129q105 0 105 129q0 59 -31 98q-30 38 -74 38t-73 -38zM466 539q79 0 79 -114v-317q0 -168 -59 -248q-66 -90 -218 -90q-104 0 -169 35q-62 34 -62 82q0 69 68 69q13 0 31 -7l22 -8q4 -1 5 -2l10 -4q25 -10 45 -14q28 -7 56 -7
q121 0 121 133v19q-51 -73 -142 -73q-95 0 -160 77q-68 78 -68 196q0 119 72 200q71 80 172 80q79 0 127 -57q27 50 70 50z" />
    <glyph glyph-name="Hcircumflex" unicode="&#x124;" horiz-adv-x="748" 
d="M523 437v171q0 115 81 115t81 -115v-502q0 -115 -81 -115t-81 115v181h-298v-181q0 -115 -81 -115t-81 115v502q0 115 81 115t81 -115v-171h298zM287 691q-25 -15 -46 -15q-47 0 -47 51q0 30 30 54l109 85q21 16 41 16t41 -16l109 -85q30 -24 30 -54q0 -51 -47 -51
q-20 0 -46 15l-87 53z" />
    <glyph glyph-name="hcircumflex" unicode="&#x125;" horiz-adv-x="592" 
d="M212 493q43 46 134 46q192 0 192 -204v-226q0 -116 -78 -116q-79 0 -79 115v178q0 118 -84 118q-86 0 -86 -115v-180q0 -116 -78 -116q-79 0 -79 115v540q0 115 79 115q78 0 78 -115v-155h1zM265 790q-25 -15 -46 -15q-47 0 -47 51q0 30 30 54l109 85q21 16 41 16t41 -16
l109 -85q30 -24 30 -54q0 -51 -47 -51q-20 0 -46 15l-87 53z" />
    <glyph glyph-name="Hbar" unicode="&#x126;" horiz-adv-x="748" 
d="M523 437v171q0 115 81 115t81 -115v-502q0 -115 -81 -115t-81 115v181h-298v-181q0 -115 -81 -115t-81 115v502q0 115 81 115t81 -115v-171h298zM634 625q70 0 70 -51t-71 -51h-499q-71 0 -71 51t71 51h500z" />
    <glyph glyph-name="hbar" unicode="&#x127;" horiz-adv-x="592" 
d="M212 493q43 46 134 46q192 0 192 -204v-226q0 -116 -78 -116q-79 0 -79 115v178q0 118 -84 118q-86 0 -86 -115v-180q0 -116 -78 -116q-79 0 -79 115v540q0 115 79 115q78 0 78 -115v-155h1zM408 676q70 0 70 -51t-71 -51h-499q-71 0 -71 51t71 51h500z" />
    <glyph glyph-name="Itilde" unicode="&#x128;" horiz-adv-x="296" 
d="M229 608v-502q0 -115 -81 -115t-81 115v502q0 115 81 115t81 -115zM78 794l-17 -5q-5 -2 -11 -3q-22 0 -32 14q-12 14 -12 39q0 37 24 62q25 25 60 25q18 0 47 -10q30 -7 45 -9q14 0 35 9q20 9 29 9q19 0 32 -15q12 -15 12 -39q0 -36 -24 -62q-24 -25 -60 -25
q-17 0 -47 9q-29 10 -46 10q-15 0 -35 -9z" />
    <glyph glyph-name="itilde" unicode="&#x129;" horiz-adv-x="275" 
d="M217 425v-317q0 -115 -78 -115q-79 0 -79 115v317q0 114 79 114q78 0 78 -114zM68 610l-17 -5q-5 -2 -11 -3q-22 0 -32 14q-12 14 -12 39q0 37 24 62q25 25 60 25q18 0 47 -10q30 -7 45 -9q14 0 35 9q20 9 29 9q19 0 32 -15q12 -15 12 -39q0 -36 -24 -62q-24 -25 -60 -25
q-17 0 -47 9q-29 10 -46 10q-15 0 -35 -9z" />
    <glyph glyph-name="Imacron" unicode="&#x12a;" horiz-adv-x="296" 
d="M229 608v-502q0 -115 -81 -115t-81 115v502q0 115 81 115t81 -115zM250 886q78 0 78 -69q0 -66 -79 -66h-203q-78 0 -78 67q0 68 79 68h203z" />
    <glyph glyph-name="imacron" unicode="&#x12b;" horiz-adv-x="275" 
d="M217 425v-317q0 -115 -78 -115q-79 0 -79 115v317q0 114 79 114q78 0 78 -114zM240 702q78 0 78 -69q0 -66 -79 -66h-203q-78 0 -78 67q0 68 79 68h203z" />
    <glyph glyph-name="Ibreve" unicode="&#x12c;" horiz-adv-x="296" 
d="M229 608v-502q0 -115 -81 -115t-81 115v502q0 115 81 115t81 -115zM53 759q-45 32 -45 73q0 46 45 46q23 0 48 -27q25 -28 45 -28q19 0 45 28q26 27 53 27q44 0 44 -46q0 -42 -44 -73q-43 -31 -96 -31q-52 0 -95 31z" />
    <glyph glyph-name="ibreve" unicode="&#x12d;" horiz-adv-x="275" 
d="M217 425v-317q0 -115 -78 -115q-79 0 -79 115v317q0 114 79 114q78 0 78 -114zM43 575q-45 32 -45 73q0 46 45 46q23 0 48 -27q25 -28 45 -28q19 0 45 28q26 27 53 27q44 0 44 -46q0 -42 -44 -73q-43 -31 -96 -31q-52 0 -95 31z" />
    <glyph glyph-name="Iogonek" unicode="&#x12e;" horiz-adv-x="296" 
d="M229 608v-502q0 -115 -81 -115t-81 115v502q0 115 81 115t81 -115zM229 -46.25q0 -15.75 -16 -38.25l-79 -108q-30 -41.25 -70 -41.25q-66 0 -66 47.25q0 16.5 16 37.5l79 108q30 41.25 70 41.25q66 0 66 -46.5z" />
    <glyph glyph-name="iogonek" unicode="&#x12f;" horiz-adv-x="275" 
d="M216 425v-317q0 -115 -78 -115q-79 0 -79 115v317q0 114 79 114q78 0 78 -114zM202 738q26 -26 26 -64t-26 -65q-26 -26 -64 -26t-65 26q-26 27 -26 65q0 37 27 64q26 26 64 26t64 -26zM228 -46.25q0 -15.75 -16 -38.25l-79 -108q-30 -41.25 -70 -41.25q-66 0 -66 47.25
q0 16.5 16 37.5l79 108q30 41.25 70 41.25q66 0 66 -46.5z" />
    <glyph glyph-name="Idotaccent" unicode="&#x130;" horiz-adv-x="296" 
d="M229 608v-502q0 -115 -81 -115t-81 115v502q0 115 81 115t81 -115zM202.845 885.797q22.9502 -22.9502 22.9502 -54.3984q0 -33.1494 -22.9502 -55.249q-22.9492 -22.0996 -54.3984 -22.0996q-31.4482 0 -53.5479 21.25q-23.7998 21.249 -23.7998 56.0986
q0 31.4482 22.9492 54.3984q22.9502 22.9492 54.3984 22.9492q31.4492 0 54.3984 -22.9492z" />
    <glyph glyph-name="dotlessi" unicode="&#x131;" horiz-adv-x="275" 
d="M216 425v-317q0 -115 -78 -115q-79 0 -79 115v317q0 114 79 114q78 0 78 -114z" />
    <glyph glyph-name="IJ" unicode="&#x132;" horiz-adv-x="754" 
d="M229 608v-502q0 -115 -81 -115t-81 115v502q0 115 81 115t81 -115zM691 608v-391q0 -238 -208 -238q-81 0 -134 36q-51 35 -51 83q0 73 75 73q21 0 54 -18q33 -19 49 -19q53 0 53 135v339q0 115 81 115t81 -115z" />
    <glyph glyph-name="ij" unicode="&#x133;" horiz-adv-x="550" 
d="M216 425v-317q0 -115 -78 -115q-79 0 -79 115v317q0 114 79 114q78 0 78 -114zM202 738q26 -26 26 -64t-26 -65q-26 -26 -64 -26t-65 26q-26 27 -26 65q0 37 27 64q26 26 64 26t64 -26zM491 425v-530q0 -115 -78 -115q-79 0 -79 115v530q0 114 79 114q78 0 78 -114z
M349 738q26 26 64 26t64 -26t26 -64t-26 -65q-26 -26 -64 -26t-65 26q-26 27 -26 65q0 37 27 64z" />
    <glyph glyph-name="Jcircumflex" unicode="&#x134;" horiz-adv-x="458" 
d="M395 608v-391q0 -238 -208 -238q-81 0 -134 36q-51 35 -51 83q0 73 75 73q21 0 54 -18q33 -19 49 -19q53 0 53 135v339q0 115 81 115t81 -115zM219 717q-25 -15 -46 -15q-47 0 -47 51q0 30 30 54l109 85q21 16 41 16t41 -16l109 -85q30 -24 30 -54q0 -51 -47 -51
q-20 0 -46 15l-87 53z" />
    <glyph glyph-name="jcircumflex" unicode="&#x135;" horiz-adv-x="275" 
d="M216 425v-530q0 -115 -78 -115q-79 0 -79 115v530q0 114 79 114q78 0 78 -114z" />
    <glyph glyph-name="Kcommaaccent" unicode="&#x136;" horiz-adv-x="635" 
d="M225 608v-179l210 238q50 56 84 56q29 0 51 -22t22 -52q0 -37 -41 -80l-179 -187l217 -236q41 -46 41 -80q0 -31 -24 -53q-22 -22 -51 -22q-24 0 -45 16q-14 10 -42 41l-243 268v-210q0 -115 -81 -115t-81 115v502q0 115 81 115t81 -115zM408 -15q0 -27 -26 -56l-76 -84
q-28 -31 -54 -31q-54 0 -54 55q0 20 17 44l73 100q22 32 57 32q63 0 63 -60z" />
    <glyph glyph-name="kcommaaccent" unicode="&#x137;" horiz-adv-x="525" 
d="M211 648v-290l135 139q41 42 81 42q66 0 66 -60q0 -39 -40 -76l-106 -98l147 -173q31 -37 31 -76q0 -63 -74 -63q-46 0 -82 47l-158 210v-142q0 -115 -78 -115q-79 0 -79 115v540q0 115 79 115q78 0 78 -115zM353 -53q0 -27 -26 -56l-76 -84q-28 -31 -54 -31
q-54 0 -54 55q0 20 17 44l73 100q22 32 57 32q63 0 63 -60z" />
    <glyph glyph-name="kgreenlandic" unicode="&#x138;" horiz-adv-x="525" 
d="M211 648v-290l135 139q41 42 81 42q66 0 66 -60q0 -39 -40 -76l-106 -98l147 -173q31 -37 31 -76q0 -63 -74 -63q-46 0 -82 47l-158 210v-142q0 -115 -78 -115q-79 0 -79 115v540q0 115 79 115q78 0 78 -115z" />
    <glyph glyph-name="Lacute" unicode="&#x139;" horiz-adv-x="477" 
d="M225 608v-458h137q115 0 115 -75t-115 -75h-189q-64 0 -87 22t-23 80v506q0 115 81 115t81 -115zM410 826q0 -27 -26 -56l-76 -84q-28 -31 -54 -31q-54 0 -54 55q0 20 17 44l73 100q22 32 57 32q63 0 63 -60z" />
    <glyph glyph-name="lacute" unicode="&#x13a;" horiz-adv-x="275" 
d="M217 649v-541q0 -115 -78 -115q-79 0 -79 115v541q0 114 79 114q78 0 78 -114zM243 955q0 -27 -26 -56l-76 -84q-28 -31 -54 -31q-54 0 -54 55q0 20 17 44l73 100q22 32 57 32q63 0 63 -60z" />
    <glyph glyph-name="Lcommaaccent" unicode="&#x13b;" horiz-adv-x="477" 
d="M225 608v-458h137q115 0 115 -75t-115 -75h-189q-64 0 -87 22t-23 80v506q0 115 81 115t81 -115zM342 -76q0 -27 -26 -56l-76 -84q-28 -31 -54 -31q-54 0 -54 55q0 20 17 44l73 100q22 32 57 32q63 0 63 -60z" />
    <glyph glyph-name="lcommaaccent" unicode="&#x13c;" horiz-adv-x="275" 
d="M217 649v-541q0 -115 -78 -115q-79 0 -79 115v541q0 114 79 114q78 0 78 -114zM238 -83q0 -27 -26 -56l-76 -84q-28 -31 -54 -31q-54 0 -54 55q0 20 17 44l73 100q22 32 57 32q63 0 63 -60z" />
    <glyph glyph-name="Lcaron" unicode="&#x13d;" horiz-adv-x="477" 
d="M225 608v-458h137q115 0 115 -75t-115 -75h-189q-64 0 -87 22t-23 80v506q0 115 81 115t81 -115zM474 673q0 -27 -26 -56l-76 -84q-28 -31 -54 -31q-54 0 -54 55q0 20 17 44l73 100q22 32 57 32q63 0 63 -60z" />
    <glyph glyph-name="lcaron" unicode="&#x13e;" horiz-adv-x="275" 
d="M216 649v-541q0 -115 -78 -115q-79 0 -79 115v541q0 114 79 114q78 0 78 -114zM455 704q0 -27 -26 -56l-76 -84q-28 -31 -54 -31q-54 0 -54 55q0 20 17 44l73 100q22 32 57 32q63 0 63 -60z" />
    <glyph glyph-name="Ldot" unicode="&#x13f;" horiz-adv-x="477" 
d="M225 608v-458h137q115 0 115 -75t-115 -75h-189q-64 0 -87 22t-23 80v506q0 115 81 115t81 -115zM407.845 415.797q22.9502 -22.9502 22.9502 -54.3984q0 -33.1494 -22.9502 -55.249q-22.9492 -22.0996 -54.3984 -22.0996q-31.4482 0 -53.5479 21.25
q-23.7998 21.249 -23.7998 56.0986q0 31.4482 22.9492 54.3984q22.9502 22.9492 54.3984 22.9492q31.4492 0 54.3984 -22.9492z" />
    <glyph glyph-name="ldot" unicode="&#x140;" horiz-adv-x="430" 
d="M216 649v-541q0 -115 -78 -115q-79 0 -79 115v541q0 114 79 114q78 0 78 -114zM347.845 432.797q22.9502 -22.9502 22.9502 -54.3984q0 -33.1494 -22.9502 -55.249q-22.9492 -22.0996 -54.3984 -22.0996q-31.4482 0 -53.5479 21.25q-23.7998 21.249 -23.7998 56.0986
q0 31.4482 22.9492 54.3984q22.9502 22.9492 54.3984 22.9492q31.4492 0 54.3984 -22.9492z" />
    <glyph glyph-name="Lslash" unicode="&#x141;" horiz-adv-x="477" 
d="M225 608v-458h137q115 0 115 -75t-115 -75h-189q-64 0 -87 22t-23 80v506q0 115 81 115t81 -115zM302.711 585.382q49.4961 49.4961 85.5576 13.4346t-14.1416 -86.2656l-352.839 -352.839q-50.2041 -50.2031 -86.2656 -14.1416t14.1416 86.2656z" />
    <glyph glyph-name="lslash" unicode="&#x142;" horiz-adv-x="275" 
d="M216 649v-541q0 -115 -78 -115q-79 0 -79 115v541q0 114 79 114q78 0 78 -114zM298.711 613.382q49.4961 49.4961 85.5576 13.4346t-14.1416 -86.2656l-352.839 -352.839q-50.2041 -50.2031 -86.2656 -14.1416t14.1416 86.2656z" />
    <glyph glyph-name="Nacute" unicode="&#x143;" horiz-adv-x="748" 
d="M224 667l299 -395v336q0 115 81 115t81 -115v-520q0 -97 -74 -97q-52 0 -112 80l-274 362v-327q0 -115 -81 -115t-81 115v505q0 112 75 112q43 0 86 -56zM514 826q0 -27 -26 -56l-76 -84q-28 -31 -54 -31q-54 0 -54 55q0 20 17 44l73 100q22 32 57 32q63 0 63 -60z" />
    <glyph glyph-name="nacute" unicode="&#x144;" horiz-adv-x="592" 
d="M208 489q46 50 138 50q192 0 192 -204v-226q0 -116 -78 -116q-79 0 -79 115v178q0 118 -84 118q-86 0 -86 -115v-180q0 -116 -78 -116q-79 0 -79 115v317q0 114 79 114q47 0 75 -50zM436 642q0 -27 -26 -56l-76 -84q-28 -31 -54 -31q-54 0 -54 55q0 20 17 44l73 100
q22 32 57 32q63 0 63 -60z" />
    <glyph glyph-name="Ncommaaccent" unicode="&#x145;" horiz-adv-x="748" 
d="M224 667l299 -395v336q0 115 81 115t81 -115v-520q0 -97 -74 -97q-52 0 -112 80l-274 362v-327q0 -115 -81 -115t-81 115v505q0 112 75 112q43 0 86 -56zM430 40q0 -21 -16 -51l-79 -144q-30 -55 -70 -55q-66 0 -66 63q0 22 16 50l79 144q30 55 70 55q66 0 66 -62z" />
    <glyph glyph-name="ncommaaccent" unicode="&#x146;" horiz-adv-x="592" 
d="M208 489q46 50 138 50q192 0 192 -204v-226q0 -116 -78 -116q-79 0 -79 115v178q0 118 -84 118q-86 0 -86 -115v-180q0 -116 -78 -116q-79 0 -79 115v317q0 114 79 114q47 0 75 -50zM367 -14q0 -21 -16 -51l-79 -144q-30 -55 -70 -55q-66 0 -66 63q0 22 16 50l79 144
q30 55 70 55q66 0 66 -62z" />
    <glyph glyph-name="Ncaron" unicode="&#x147;" horiz-adv-x="748" 
d="M224 667l299 -395v336q0 115 81 115t81 -115v-520q0 -97 -74 -97q-52 0 -112 80l-274 362v-327q0 -115 -81 -115t-81 115v505q0 112 75 112q43 0 86 -56zM374 817l87 53q26 15 46 15q47 0 47 -51q0 -30 -30 -54l-109 -85q-21 -16 -41 -16t-41 16l-109 85q-30 24 -30 54
q0 51 47 51q21 0 46 -15z" />
    <glyph glyph-name="ncaron" unicode="&#x148;" horiz-adv-x="592" 
d="M208 489q46 50 138 50q192 0 192 -204v-226q0 -116 -78 -116q-79 0 -79 115v178q0 118 -84 118q-86 0 -86 -115v-180q0 -116 -78 -116q-79 0 -79 115v317q0 114 79 114q47 0 75 -50zM296 633l87 53q26 15 46 15q47 0 47 -51q0 -30 -30 -54l-109 -85q-21 -16 -41 -16
t-41 16l-109 85q-30 24 -30 54q0 51 47 51q21 0 46 -15z" />
    <glyph glyph-name="napostrophe" unicode="&#x149;" horiz-adv-x="592" 
d="M208 489q46 50 138 50q192 0 192 -204v-226q0 -116 -78 -116q-79 0 -79 115v178q0 118 -84 118q-86 0 -86 -115v-180q0 -116 -78 -116q-79 0 -79 115v317q0 114 79 114q47 0 75 -50zM82 628q0 -21 -16 -51l-79 -144q-30 -55 -70 -55q-66 0 -66 63q0 22 16 50l79 144
q30 55 70 55q66 0 66 -62z" />
    <glyph glyph-name="Eng" unicode="&#x14a;" horiz-adv-x="748" 
d="M224 667l299 -395v336q0 115 81 115t81 -115v-520q0 -97 -74 -97q-52 0 -112 80l-274 362v-327q0 -115 -81 -115t-81 115v505q0 112 75 112q43 0 86 -56zM685 100q0 -21 -16 -51l-79 -144q-30 -55 -70 -55q-66 0 -66 63q0 22 16 50l79 144q30 55 70 55q66 0 66 -62z" />
    <glyph glyph-name="eng" unicode="&#x14b;" horiz-adv-x="592" 
d="M208 489q46 50 138 50q192 0 192 -204v-226q0 -116 -78 -116q-79 0 -79 115v178q0 118 -84 118q-86 0 -86 -115v-180q0 -116 -78 -116q-79 0 -79 115v317q0 114 79 114q47 0 75 -50zM538 100q0 -21 -16 -51l-79 -144q-30 -55 -70 -55q-66 0 -66 63q0 22 16 50l79 144
q30 55 70 55q66 0 66 -62z" />
    <glyph glyph-name="Omacron" unicode="&#x14c;" horiz-adv-x="758" 
d="M631 629q97 -104 97 -274q0 -168 -96 -272t-253 -104t-253 104q-96 103 -96 272t97 273q96 104 252 104t252 -103zM254 518q-48 -61 -48 -165q0 -100 48 -160q48 -59 125 -59t125 59q48 60 48 160q0 104 -48 165q-47 59 -125 59t-125 -59zM481 886q78 0 78 -69
q0 -66 -79 -66h-203q-78 0 -78 67q0 68 79 68h203z" />
    <glyph glyph-name="omacron" unicode="&#x14d;" horiz-adv-x="583" 
d="M484 468q74 -79 74 -202t-74 -201q-75 -78 -192 -78t-192 78t-75 201t75 202q76 78 192 78q117 0 192 -78zM218 365q-31 -38 -31 -98q0 -136 105 -136q104 0 104 137q0 59 -30 97q-30 37 -74 37q-45 0 -74 -37zM394 702q78 0 78 -69q0 -66 -79 -66h-203q-78 0 -78 67
q0 68 79 68h203z" />
    <glyph glyph-name="Obreve" unicode="&#x14e;" horiz-adv-x="758" 
d="M631 629q97 -104 97 -274q0 -168 -96 -272t-253 -104t-253 104q-96 103 -96 272t97 273q96 104 252 104t252 -103zM254 518q-48 -61 -48 -165q0 -100 48 -160q48 -59 125 -59t125 59q48 60 48 160q0 104 -48 165q-47 59 -125 59t-125 -59zM284 759q-45 32 -45 73
q0 46 45 46q23 0 48 -27q25 -28 45 -28q19 0 45 28q26 27 53 27q44 0 44 -46q0 -42 -44 -73q-43 -31 -96 -31q-52 0 -95 31z" />
    <glyph glyph-name="obreve" unicode="&#x14f;" horiz-adv-x="583" 
d="M484 468q74 -79 74 -202t-74 -201q-75 -78 -192 -78t-192 78t-75 201t75 202q76 78 192 78q117 0 192 -78zM218 365q-31 -38 -31 -98q0 -136 105 -136q104 0 104 137q0 59 -30 97q-30 37 -74 37q-45 0 -74 -37zM197 575q-45 32 -45 73q0 46 45 46q23 0 48 -27
q25 -28 45 -28q19 0 45 28q26 27 53 27q44 0 44 -46q0 -42 -44 -73q-43 -31 -96 -31q-52 0 -95 31z" />
    <glyph glyph-name="Ohungarumlaut" unicode="&#x150;" horiz-adv-x="758" 
d="M631 629q97 -104 97 -274q0 -168 -96 -272t-253 -104t-253 104q-96 103 -96 272t97 273q96 104 252 104t252 -103zM254 518q-48 -61 -48 -165q0 -100 48 -160q48 -59 125 -59t125 59q48 60 48 160q0 104 -48 165q-47 59 -125 59t-125 -59zM379 826q0 -27 -26 -56l-76 -84
q-28 -31 -54 -31q-54 0 -54 55q0 20 17 44l73 100q22 32 57 32q63 0 63 -60zM589 826q0 -27 -26 -56l-76 -84q-28 -31 -54 -31q-54 0 -54 55q0 20 17 44l73 100q22 32 57 32q63 0 63 -60z" />
    <glyph glyph-name="ohungarumlaut" unicode="&#x151;" horiz-adv-x="583" 
d="M484 468q74 -79 74 -202t-74 -201q-75 -78 -192 -78t-192 78t-75 201t75 202q76 78 192 78q117 0 192 -78zM218 365q-31 -38 -31 -98q0 -136 105 -136q104 0 104 137q0 59 -30 97q-30 37 -74 37q-45 0 -74 -37zM292 642q0 -27 -26 -56l-76 -84q-28 -31 -54 -31
q-54 0 -54 55q0 20 17 44l73 100q22 32 57 32q63 0 63 -60zM502 642q0 -27 -26 -56l-76 -84q-28 -31 -54 -31q-54 0 -54 55q0 20 17 44l73 100q22 32 57 32q63 0 63 -60z" />
    <glyph glyph-name="OE" unicode="&#x152;" horiz-adv-x="963" 
d="M631 629q97 -104 97 -274q0 -168 -96 -272t-253 -104t-253 104q-96 103 -96 272t97 273q96 104 252 104t252 -103zM254 518q-48 -61 -48 -165q0 -100 48 -160q48 -59 125 -59t125 59q48 60 48 160q0 104 -48 165q-47 59 -125 59t-125 -59zM683 433h114q115 0 115 -75
t-115 -75h-114v-133h137q115 0 115 -75t-115 -75h-189q-64 0 -87 22t-23 80v495q0 62 22 87q25 27 90 27h182q115 0 115 -76q0 -74 -115 -74h-132v-128z" />
    <glyph glyph-name="oe" unicode="&#x153;" horiz-adv-x="1001" 
d="M484 468q74 -79 74 -202t-74 -201q-75 -78 -192 -78t-192 78t-75 201t75 202q76 78 192 78q117 0 192 -78zM218 365q-31 -38 -31 -98q0 -136 105 -136q104 0 104 137q0 59 -30 97q-30 37 -74 37q-45 0 -74 -37zM616 223q12 -98 119 -98q27 0 54 8q20 6 45 18l37 17
q18 8 30 8q63 0 63 -61q0 -49 -67 -87q-71 -41 -170 -41q-117 0 -195 79q-78 80 -78 200t76 200t189 80q111 0 185 -77q72 -74 72 -182q0 -64 -78 -64h-282zM823 325q-7 93 -103 93q-87 0 -105 -93h208z" />
    <glyph glyph-name="Racute" unicode="&#x154;" horiz-adv-x="608" 
d="M225 389h75q103 0 103 88q0 84 -101 84h-77v-172zM301 711q129 0 201 -62q70 -59 70 -160q0 -163 -170 -192l128 -142q48 -54 48 -93q0 -71 -77 -71q-44 0 -87 53l-189 237v-175q0 -115 -81 -115t-81 115v491q0 62 22 87q25 27 90 27h126zM461 826q0 -27 -26 -56l-76 -84
q-28 -31 -54 -31q-54 0 -54 55q0 20 17 44l73 100q22 32 57 32q63 0 63 -60z" />
    <glyph glyph-name="racute" unicode="&#x155;" horiz-adv-x="395" 
d="M315 546q32 0 57 -25q23 -25 23 -57q0 -40 -43 -61q-9 -5 -20 -9l-23 -9q-32 -12 -48 -19q-50 -24 -50 -94v-164q0 -115 -78 -115q-79 0 -79 115v317q0 114 79 114q47 0 75 -50q54 57 107 57zM365 642q0 -27 -26 -56l-76 -84q-28 -31 -54 -31q-54 0 -54 55q0 20 17 44
l73 100q22 32 57 32q63 0 63 -60z" />
    <glyph glyph-name="Rcommaaccent" unicode="&#x156;" horiz-adv-x="608" 
d="M225 389h75q103 0 103 88q0 84 -101 84h-77v-172zM301 711q129 0 201 -62q70 -59 70 -160q0 -163 -170 -192l128 -142q48 -54 48 -93q0 -71 -77 -71q-44 0 -87 53l-189 237v-175q0 -115 -81 -115t-81 115v491q0 62 22 87q25 27 90 27h126zM376 -8q0 -27 -26 -56l-76 -84
q-28 -31 -54 -31q-54 0 -54 55q0 20 17 44l73 100q22 32 57 32q63 0 63 -60z" />
    <glyph glyph-name="rcommaaccent" unicode="&#x157;" horiz-adv-x="395" 
d="M315 546q32 0 57 -25q23 -25 23 -57q0 -40 -43 -61q-9 -5 -20 -9l-23 -9q-32 -12 -48 -19q-50 -24 -50 -94v-164q0 -115 -78 -115q-79 0 -79 115v317q0 114 79 114q47 0 75 -50q54 57 107 57zM318 -47q0 -27 -26 -56l-76 -84q-28 -31 -54 -31q-54 0 -54 55q0 20 17 44
l73 100q22 32 57 32q63 0 63 -60z" />
    <glyph glyph-name="Rcaron" unicode="&#x158;" horiz-adv-x="608" 
d="M225 389h75q103 0 103 88q0 84 -101 84h-77v-172zM301 711q129 0 201 -62q70 -59 70 -160q0 -163 -170 -192l128 -142q48 -54 48 -93q0 -71 -77 -71q-44 0 -87 53l-189 237v-175q0 -115 -81 -115t-81 115v491q0 62 22 87q25 27 90 27h126zM321 817l87 53q26 15 46 15
q47 0 47 -51q0 -30 -30 -54l-109 -85q-21 -16 -41 -16t-41 16l-109 85q-30 24 -30 54q0 51 47 51q21 0 46 -15z" />
    <glyph glyph-name="rcaron" unicode="&#x159;" horiz-adv-x="395" 
d="M316 546q32 0 57 -25q23 -25 23 -57q0 -40 -43 -61q-9 -5 -20 -9l-23 -9q-32 -12 -48 -19q-50 -24 -50 -94v-164q0 -115 -78 -115q-79 0 -79 115v317q0 114 79 114q47 0 75 -50q54 57 107 57zM225 633l87 53q26 15 46 15q47 0 47 -51q0 -30 -30 -54l-109 -85
q-21 -16 -41 -16t-41 16l-109 85q-30 24 -30 54q0 51 47 51q21 0 46 -15z" />
    <glyph glyph-name="Sacute" unicode="&#x15a;" horiz-adv-x="566" 
d="M437 700q53 -31 53 -75q0 -69 -73 -69q-13 0 -30 4q-10 2 -32 9l-32 9q-19 4 -33 4q-79 0 -79 -62q0 -34 34 -51q14 -7 41 -16q5 -1 12 -4q2 0 7 -2q5 -1 6 -2l29 -9q196 -65 196 -216q0 -105 -74 -172q-77 -69 -202 -69q-97 0 -165 36q-65 35 -65 80q0 73 80 73
q14 0 35 -6l41 -13q27 -10 46 -14q27 -6 51 -6q80 0 80 76q0 39 -33 62q-24 16 -91 36q-107 32 -152 75q-49 46 -49 127q0 98 70 162q72 65 188 65q86 0 141 -32zM423 826q0 -27 -26 -56l-76 -84q-28 -31 -54 -31q-54 0 -54 55q0 20 17 44l73 100q22 32 57 32q63 0 63 -60z
" />
    <glyph glyph-name="sacute" unicode="&#x15b;" horiz-adv-x="456" 
d="M370 513q52 -31 52 -74q0 -66 -65 -66q-13 0 -30 6q-7 2 -16 6l-12 5q0 1 -2 1q-1 1 -2 1q-21 9 -32 13q-19 6 -33 6q-36 0 -36 -27q0 -19 29 -33q10 -5 34 -15l45 -18q129 -58 129 -153q0 -76 -58 -126q-60 -52 -153 -52q-87 0 -141 32q-54 31 -54 80q0 69 60 69
q19 0 39 -7q8 -3 18 -8q4 -1 8 -4l17 -8q5 -3 9 -4q9 -5 17 -8q20 -7 39 -7q44 0 44 37q0 26 -87 58q-150 55 -150 161q0 72 55 119q55 49 142 49q80 0 134 -33zM368 642q0 -27 -26 -56l-76 -84q-28 -31 -54 -31q-54 0 -54 55q0 20 17 44l73 100q22 32 57 32q63 0 63 -60z
" />
    <glyph glyph-name="Scircumflex" unicode="&#x15c;" horiz-adv-x="566" 
d="M437 700q53 -31 53 -75q0 -69 -73 -69q-13 0 -30 4q-10 2 -32 9l-32 9q-19 4 -33 4q-79 0 -79 -62q0 -34 34 -51q14 -7 41 -16q5 -1 12 -4q2 0 7 -2q5 -1 6 -2l29 -9q196 -65 196 -216q0 -105 -74 -172q-77 -69 -202 -69q-97 0 -165 36q-65 35 -65 80q0 73 80 73
q14 0 35 -6l41 -13q27 -10 46 -14q27 -6 51 -6q80 0 80 76q0 39 -33 62q-24 16 -91 36q-107 32 -152 75q-49 46 -49 127q0 98 70 162q72 65 188 65q86 0 141 -32zM196 691q-25 -15 -46 -15q-47 0 -47 51q0 30 30 54l109 85q21 16 41 16t41 -16l109 -85q30 -24 30 -54
q0 -51 -47 -51q-20 0 -46 15l-87 53z" />
    <glyph glyph-name="scircumflex" unicode="&#x15d;" horiz-adv-x="456" 
d="M370 513q52 -31 52 -74q0 -66 -65 -66q-13 0 -30 6q-7 2 -16 6l-12 5q0 1 -2 1q-1 1 -2 1q-21 9 -32 13q-19 6 -33 6q-36 0 -36 -27q0 -19 29 -33q10 -5 34 -15l45 -18q129 -58 129 -153q0 -76 -58 -126q-60 -52 -153 -52q-87 0 -141 32q-54 31 -54 80q0 69 60 69
q19 0 39 -7q8 -3 18 -8q4 -1 8 -4l17 -8q5 -3 9 -4q9 -5 17 -8q20 -7 39 -7q44 0 44 37q0 26 -87 58q-150 55 -150 161q0 72 55 119q55 49 142 49q80 0 134 -33zM141 507q-25 -15 -46 -15q-47 0 -47 51q0 30 30 54l109 85q21 16 41 16t41 -16l109 -85q30 -24 30 -54
q0 -51 -47 -51q-20 0 -46 15l-87 53z" />
    <glyph glyph-name="Scedilla" unicode="&#x15e;" horiz-adv-x="566" 
d="M437 700q53 -31 53 -75q0 -69 -73 -69q-13 0 -30 4q-10 2 -32 9l-32 9q-19 4 -33 4q-79 0 -79 -62q0 -34 34 -51q14 -7 41 -16q5 -1 12 -4q2 0 7 -2q5 -1 6 -2l29 -9q196 -65 196 -216q0 -105 -74 -172q-77 -69 -202 -69q-97 0 -165 36q-65 35 -65 80q0 73 80 73
q14 0 35 -6l41 -13q27 -10 46 -14q27 -6 51 -6q80 0 80 76q0 39 -33 62q-24 16 -91 36q-107 32 -152 75q-49 46 -49 127q0 98 70 162q72 65 188 65q86 0 141 -32zM271 -154q-54 -12 -84 15q-35 30 -5 64q15 17 52 18t50 16q13 14 10 52q-4 38 14 58q29 33 63 2
q32 -27 26 -81q-5 -53 -40 -93q-34 -39 -86 -51z" />
    <glyph glyph-name="scedilla" unicode="&#x15f;" horiz-adv-x="456" 
d="M370 513q52 -31 52 -74q0 -66 -65 -66q-13 0 -30 6q-7 2 -16 6l-12 5q0 1 -2 1q-1 1 -2 1q-21 9 -32 13q-19 6 -33 6q-36 0 -36 -27q0 -19 29 -33q10 -5 34 -15l45 -18q129 -58 129 -153q0 -76 -58 -126q-60 -52 -153 -52q-87 0 -141 32q-54 31 -54 80q0 69 60 69
q19 0 39 -7q8 -3 18 -8q4 -1 8 -4l17 -8q5 -3 9 -4q9 -5 17 -8q20 -7 39 -7q44 0 44 37q0 26 -87 58q-150 55 -150 161q0 72 55 119q55 49 142 49q80 0 134 -33zM216 -154q-54 -12 -84 15q-35 30 -5 64q15 17 52 18t50 16q13 14 10 52q-4 38 14 58q29 33 63 2q32 -27 26 -81
q-5 -53 -40 -93q-34 -39 -86 -51z" />
    <glyph glyph-name="Scaron" unicode="&#x160;" horiz-adv-x="566" 
d="M437 700q53 -31 53 -75q0 -69 -73 -69q-13 0 -30 4q-10 2 -32 9l-32 9q-19 4 -33 4q-79 0 -79 -62q0 -34 34 -51q14 -7 41 -16q5 -1 12 -4q2 0 7 -2q5 -1 6 -2l29 -9q196 -65 196 -216q0 -105 -74 -172q-77 -69 -202 -69q-97 0 -165 36q-65 35 -65 80q0 73 80 73
q14 0 35 -6l41 -13q27 -10 46 -14q27 -6 51 -6q80 0 80 76q0 39 -33 62q-24 16 -91 36q-107 32 -152 75q-49 46 -49 127q0 98 70 162q72 65 188 65q86 0 141 -32zM283 817l87 53q26 15 46 15q47 0 47 -51q0 -30 -30 -54l-109 -85q-21 -16 -41 -16t-41 16l-109 85
q-30 24 -30 54q0 51 47 51q21 0 46 -15z" />
    <glyph glyph-name="scaron" unicode="&#x161;" horiz-adv-x="456" 
d="M370 513q52 -31 52 -74q0 -66 -65 -66q-13 0 -30 6q-7 2 -16 6l-12 5q0 1 -2 1q-1 1 -2 1q-21 9 -32 13q-19 6 -33 6q-36 0 -36 -27q0 -19 29 -33q10 -5 34 -15l45 -18q129 -58 129 -153q0 -76 -58 -126q-60 -52 -153 -52q-87 0 -141 32q-54 31 -54 80q0 69 60 69
q19 0 39 -7q8 -3 18 -8q4 -1 8 -4l17 -8q5 -3 9 -4q9 -5 17 -8q20 -7 39 -7q44 0 44 37q0 26 -87 58q-150 55 -150 161q0 72 55 119q55 49 142 49q80 0 134 -33zM228 633l87 53q26 15 46 15q47 0 47 -51q0 -30 -30 -54l-109 -85q-21 -16 -41 -16t-41 16l-109 85
q-30 24 -30 54q0 51 47 51q21 0 46 -15z" />
    <glyph glyph-name="Tcommaaccent" unicode="&#x162;" horiz-adv-x="512" 
d="M397 711q115 0 115 -76q0 -74 -115 -74h-60v-455q0 -115 -81 -115t-81 115v455h-60q-115 0 -115 74q0 76 115 76h282zM244 -154q-54 -12 -84 15q-35 30 -5 64q15 17 52 18t50 16q13 14 10 52q-4 38 14 58q29 33 63 2q32 -27 26 -81q-5 -53 -40 -93q-34 -39 -86 -51z" />
    <glyph glyph-name="tcommaaccent" unicode="&#x163;" horiz-adv-x="383" 
d="M257 595v-73h21q100 0 100 -67q0 -68 -100 -68h-21v-279q0 -115 -78 -115q-79 0 -79 115v279h-6q-89 0 -89 68q0 67 95 67v73q0 114 79 114q78 0 78 -114zM179 -154q-54 -12 -84 15q-35 30 -5 64q15 17 52 18t50 16q13 14 10 52q-4 38 14 58q29 33 63 2q32 -27 26 -81
q-5 -53 -40 -93q-34 -39 -86 -51z" />
    <glyph glyph-name="Tcaron" unicode="&#x164;" horiz-adv-x="512" 
d="M397 711q115 0 115 -76q0 -74 -115 -74h-60v-455q0 -115 -81 -115t-81 115v455h-60q-115 0 -115 74q0 76 115 76h282zM256 817l87 53q26 15 46 15q47 0 47 -51q0 -30 -30 -54l-109 -85q-21 -16 -41 -16t-41 16l-109 85q-30 24 -30 54q0 51 47 51q21 0 46 -15z" />
    <glyph glyph-name="tcaron" unicode="&#x165;" horiz-adv-x="383" 
d="M257 595v-73h21q100 0 100 -67q0 -68 -100 -68h-21v-279q0 -115 -78 -115q-79 0 -79 115v279h-6q-89 0 -89 68q0 67 95 67v73q0 114 79 114q78 0 78 -114zM481 476q-53 -12 -84 15q-35 30 -5 64q15 17 52 18q38 1 51 16q13 14 9 52q-3 38 14 58q29 33 64 2q31 -27 26 -81
q-5 -53 -40 -93q-35 -39 -87 -51z" />
    <glyph glyph-name="Tbar" unicode="&#x166;" horiz-adv-x="512" 
d="M398 711q115 0 115 -76q0 -74 -115 -74h-60v-455q0 -115 -81 -115t-81 115v455h-60q-115 0 -115 74q0 76 115 76h282zM507 402q70 0 70 -51t-71 -51h-499q-71 0 -71 51t71 51h500z" />
    <glyph glyph-name="tbar" unicode="&#x167;" horiz-adv-x="383" 
d="M257 595v-73h21q100 0 100 -67q0 -68 -100 -68h-21v-279q0 -115 -78 -115q-79 0 -79 115v279h-6q-89 0 -89 68q0 67 95 67v73q0 114 79 114q78 0 78 -114zM442 330q70 0 70 -51t-71 -51h-499q-71 0 -71 51t71 51h500z" />
    <glyph glyph-name="Utilde" unicode="&#x168;" horiz-adv-x="736" 
d="M225 608v-285q0 -189 143 -189t143 189v285q0 115 81 115t81 -115v-303q0 -157 -83 -242q-80 -84 -222 -84t-222 84q-83 85 -83 242v303q0 115 81 115t81 -115zM298 794l-17 -5q-5 -2 -11 -3q-22 0 -32 14q-12 14 -12 39q0 37 24 62q25 25 60 25q18 0 47 -10q30 -7 45 -9
q14 0 35 9q20 9 29 9q19 0 32 -15q12 -15 12 -39q0 -36 -24 -62q-24 -25 -60 -25q-17 0 -47 9q-29 10 -46 10q-15 0 -35 -9z" />
    <glyph glyph-name="utilde" unicode="&#x169;" horiz-adv-x="584" 
d="M211 425v-178q0 -116 81 -116t81 116v178q0 114 79 114q78 0 78 -114v-210q0 -228 -238 -228t-238 228v210q0 114 79 114q78 0 78 -114zM222 610l-17 -5q-5 -2 -11 -3q-22 0 -32 14q-12 14 -12 39q0 37 24 62q25 25 60 25q18 0 47 -10q30 -7 45 -9q14 0 35 9q20 9 29 9
q19 0 32 -15q12 -15 12 -39q0 -36 -24 -62q-24 -25 -60 -25q-17 0 -47 9q-29 10 -46 10q-15 0 -35 -9z" />
    <glyph glyph-name="Umacron" unicode="&#x16a;" horiz-adv-x="736" 
d="M225 608v-285q0 -189 143 -189t143 189v285q0 115 81 115t81 -115v-303q0 -157 -83 -242q-80 -84 -222 -84t-222 84q-83 85 -83 242v303q0 115 81 115t81 -115zM470 886q78 0 78 -69q0 -66 -79 -66h-203q-78 0 -78 67q0 68 79 68h203z" />
    <glyph glyph-name="umacron" unicode="&#x16b;" horiz-adv-x="584" 
d="M211 425v-178q0 -116 81 -116t81 116v178q0 114 79 114q78 0 78 -114v-210q0 -228 -238 -228t-238 228v210q0 114 79 114q78 0 78 -114zM394 702q78 0 78 -69q0 -66 -79 -66h-203q-78 0 -78 67q0 68 79 68h203z" />
    <glyph glyph-name="Ubreve" unicode="&#x16c;" horiz-adv-x="736" 
d="M225 608v-285q0 -189 143 -189t143 189v285q0 115 81 115t81 -115v-303q0 -157 -83 -242q-80 -84 -222 -84t-222 84q-83 85 -83 242v303q0 115 81 115t81 -115zM273 759q-45 32 -45 73q0 46 45 46q23 0 48 -27q25 -28 45 -28q19 0 45 28q26 27 53 27q44 0 44 -46
q0 -42 -44 -73q-43 -31 -96 -31q-52 0 -95 31z" />
    <glyph glyph-name="ubreve" unicode="&#x16d;" horiz-adv-x="584" 
d="M211 425v-178q0 -116 81 -116t81 116v178q0 114 79 114q78 0 78 -114v-210q0 -228 -238 -228t-238 228v210q0 114 79 114q78 0 78 -114zM197 575q-45 32 -45 73q0 46 45 46q23 0 48 -27q25 -28 45 -28q19 0 45 28q26 27 53 27q44 0 44 -46q0 -42 -44 -73q-43 -31 -96 -31
q-52 0 -95 31z" />
    <glyph glyph-name="Uring" unicode="&#x16e;" horiz-adv-x="736" 
d="M225 608v-285q0 -189 143 -189t143 189v285q0 115 81 115t81 -115v-303q0 -157 -83 -242q-80 -84 -222 -84t-222 84q-83 85 -83 242v303q0 115 81 115t81 -115zM366 840q-31 0 -54 -22q-23 -23 -23 -55q0 -34 23 -56q22 -21 54 -21t55 22t23 55q0 31 -23 54t-55 23z
M477 864q45 -43 45 -102q0 -62 -46 -104q-45 -41 -108 -41q-64 0 -108 39q-47 42 -47 106q0 60 46 103q46 42 109 42t109 -43z" />
    <glyph glyph-name="uring" unicode="&#x16f;" horiz-adv-x="584" 
d="M211 425v-178q0 -116 81 -116t81 116v178q0 114 79 114q78 0 78 -114v-210q0 -228 -238 -228t-238 228v210q0 114 79 114q78 0 78 -114zM290 656q-31 0 -54 -22q-23 -23 -23 -55q0 -34 23 -56q22 -21 54 -21t55 22t23 55q0 31 -23 54t-55 23zM401 680q45 -43 45 -102
q0 -62 -46 -104q-45 -41 -108 -41q-64 0 -108 39q-47 42 -47 106q0 60 46 103q46 42 109 42t109 -43z" />
    <glyph glyph-name="Uhungarumlaut" unicode="&#x170;" horiz-adv-x="736" 
d="M225 608v-285q0 -189 143 -189t143 189v285q0 115 81 115t81 -115v-303q0 -157 -83 -242q-80 -84 -222 -84t-222 84q-83 85 -83 242v303q0 115 81 115t81 -115zM368 826q0 -27 -26 -56l-76 -84q-28 -31 -54 -31q-54 0 -54 55q0 20 17 44l73 100q22 32 57 32q63 0 63 -60z
M578 826q0 -27 -26 -56l-76 -84q-28 -31 -54 -31q-54 0 -54 55q0 20 17 44l73 100q22 32 57 32q63 0 63 -60z" />
    <glyph glyph-name="uhungarumlaut" unicode="&#x171;" horiz-adv-x="584" 
d="M211 425v-178q0 -116 81 -116t81 116v178q0 114 79 114q78 0 78 -114v-210q0 -228 -238 -228t-238 228v210q0 114 79 114q78 0 78 -114zM292 642q0 -27 -26 -56l-76 -84q-28 -31 -54 -31q-54 0 -54 55q0 20 17 44l73 100q22 32 57 32q63 0 63 -60zM502 642q0 -27 -26 -56
l-76 -84q-28 -31 -54 -31q-54 0 -54 55q0 20 17 44l73 100q22 32 57 32q63 0 63 -60z" />
    <glyph glyph-name="Uogonek" unicode="&#x172;" horiz-adv-x="736" 
d="M225 608v-285q0 -189 143 -189t143 189v285q0 115 81 115t81 -115v-303q0 -157 -83 -242q-80 -84 -222 -84t-222 84q-83 85 -83 242v303q0 115 81 115t81 -115zM534 26.75q0 -15.75 -16 -38.25l-79 -108q-30 -41.25 -70 -41.25q-66 0 -66 47.25q0 16.5 16 37.5l79 108
q30 41.25 70 41.25q66 0 66 -46.5z" />
    <glyph glyph-name="uogonek" unicode="&#x173;" horiz-adv-x="584" 
d="M211 425v-178q0 -116 81 -116t81 116v178q0 114 79 114q78 0 78 -114v-210q0 -228 -238 -228t-238 228v210q0 114 79 114q78 0 78 -114zM530 -46.25q0 -15.75 -16 -38.25l-79 -108q-30 -41.25 -70 -41.25q-66 0 -66 47.25q0 16.5 16 37.5l79 108q30 41.25 70 41.25
q66 0 66 -46.5z" />
    <glyph glyph-name="Wcircumflex" unicode="&#x174;" horiz-adv-x="914" 
d="M165 650l85 -452l118 454q19 71 90 71q69 0 88 -73l116 -452l85 441q17 84 82 84q80 0 80 -78q0 -24 -10 -64l-120 -483q-15 -59 -35 -81q-24 -26 -77 -26q-85 0 -108 91l-106 406l-100 -397q-25 -100 -117 -100q-87 0 -111 107l-114 497q-6 30 -6 53q0 75 82 75
q64 0 78 -73zM370 691q-25 -15 -46 -15q-47 0 -47 51q0 30 30 54l109 85q21 16 41 16t41 -16l109 -85q30 -24 30 -54q0 -51 -47 -51q-20 0 -46 15l-87 53z" />
    <glyph glyph-name="wcircumflex" unicode="&#x175;" horiz-adv-x="763" 
d="M157 462l83 -288l67 289q18 76 73 76q61 0 80 -78l72 -283l83 294q19 67 74 67q74 0 74 -79q0 -18 -12 -52l-121 -344q-28 -77 -90 -77q-73 0 -95 82l-65 251l-61 -256q-18 -77 -90 -77q-65 0 -95 82l-125 349q-9 26 -9 43q0 78 76 78q59 0 81 -77zM295 507
q-25 -15 -46 -15q-47 0 -47 51q0 30 30 54l109 85q21 16 41 16t41 -16l109 -85q30 -24 30 -54q0 -51 -47 -51q-20 0 -46 15l-87 53z" />
    <glyph glyph-name="Ycircumflex" unicode="&#x176;" horiz-adv-x="563" 
d="M161 658l121 -173l123 175q44 63 87 63q27 0 49 -23q22 -22 22 -49q0 -30 -37 -82l-164 -234v-229q0 -115 -81 -115t-81 115v229l-164 232q-36 50 -36 82q0 28 21 51q23 23 56 23q38 0 84 -65zM195 691q-25 -15 -46 -15q-47 0 -47 51q0 30 30 54l109 85q21 16 41 16
t41 -16l109 -85q30 -24 30 -54q0 -51 -47 -51q-20 0 -46 15l-87 53z" />
    <glyph glyph-name="ycircumflex" unicode="&#x177;" horiz-adv-x="500" 
d="M162 463l89 -238l97 251q25 63 69 63q78 0 78 -75q0 -25 -13 -55l-240 -570q-27 -64 -69 -64q-78 0 -78 76q0 25 13 54l65 141l-159 371q-9 19 -9 44q0 78 77 78q52 0 80 -76zM163 507q-25 -15 -46 -15q-47 0 -47 51q0 30 30 54l109 85q21 16 41 16t41 -16l109 -85
q30 -24 30 -54q0 -51 -47 -51q-20 0 -46 15l-87 53z" />
    <glyph glyph-name="Ydieresis" unicode="&#x178;" horiz-adv-x="563" 
d="M161 658l121 -173l123 175q44 63 87 63q27 0 49 -23q22 -22 22 -49q0 -30 -37 -82l-164 -234v-229q0 -115 -81 -115t-81 115v229l-164 232q-36 50 -36 82q0 28 21 51q23 23 56 23q38 0 84 -65zM246 807q0 -72 -73 -72q-72 0 -72 72q0 73 72 73q73 0 73 -73zM463 807
q0 -72 -73 -72q-72 0 -72 72q0 73 72 73q73 0 73 -73z" />
    <glyph glyph-name="Zacute" unicode="&#x179;" horiz-adv-x="546" 
d="M401 711q139 0 139 -79q0 -36 -47 -99l-283 -383h221q115 0 115 -75t-115 -75h-317q-114 0 -114 81q0 26 13 51q8 16 32 47l288 382h-207q-115 0 -115 76q0 74 115 74h275zM413 826q0 -27 -26 -56l-76 -84q-28 -31 -54 -31q-54 0 -54 55q0 20 17 44l73 100q22 32 57 32
q63 0 63 -60z" />
    <glyph glyph-name="zacute" unicode="&#x17a;" horiz-adv-x="480" 
d="M376 144q99 0 99 -72t-100 -72h-287q-83 0 -83 49q0 29 24 60l216 279h-136q-99 0 -99 73q0 71 100 71h253q99 0 99 -48q0 -26 -32 -69l-210 -271h156zM380 642q0 -27 -26 -56l-76 -84q-28 -31 -54 -31q-54 0 -54 55q0 20 17 44l73 100q22 32 57 32q63 0 63 -60z" />
    <glyph glyph-name="Zdotaccent" unicode="&#x17b;" horiz-adv-x="546" 
d="M401 711q139 0 139 -79q0 -36 -47 -99l-283 -383h221q115 0 115 -75t-115 -75h-317q-114 0 -114 81q0 26 13 51q8 16 32 47l288 382h-207q-115 0 -115 76q0 74 115 74h275zM327.845 885.797q22.9502 -22.9502 22.9502 -54.3984q0 -33.1494 -22.9502 -55.249
q-22.9492 -22.0996 -54.3984 -22.0996q-31.4482 0 -53.5479 21.25q-23.7998 21.249 -23.7998 56.0986q0 31.4482 22.9492 54.3984q22.9502 22.9492 54.3984 22.9492q31.4492 0 54.3984 -22.9492z" />
    <glyph glyph-name="zdotaccent" unicode="&#x17c;" horiz-adv-x="480" 
d="M376 144q99 0 99 -72t-100 -72h-287q-83 0 -83 49q0 29 24 60l216 279h-136q-99 0 -99 73q0 71 100 71h253q99 0 99 -48q0 -26 -32 -69l-210 -271h156zM294.845 701.797q22.9502 -22.9502 22.9502 -54.3984q0 -33.1494 -22.9502 -55.249
q-22.9492 -22.0996 -54.3984 -22.0996q-31.4482 0 -53.5479 21.25q-23.7998 21.249 -23.7998 56.0986q0 31.4482 22.9492 54.3984q22.9502 22.9492 54.3984 22.9492q31.4492 0 54.3984 -22.9492z" />
    <glyph glyph-name="Zcaron" unicode="&#x17d;" horiz-adv-x="546" 
d="M401 711q139 0 139 -79q0 -36 -47 -99l-283 -383h221q115 0 115 -75t-115 -75h-317q-114 0 -114 81q0 26 13 51q8 16 32 47l288 382h-207q-115 0 -115 76q0 74 115 74h275zM273 817l87 53q26 15 46 15q47 0 47 -51q0 -30 -30 -54l-109 -85q-21 -16 -41 -16t-41 16
l-109 85q-30 24 -30 54q0 51 47 51q21 0 46 -15z" />
    <glyph glyph-name="zcaron" unicode="&#x17e;" horiz-adv-x="480" 
d="M376 144q99 0 99 -72t-100 -72h-287q-83 0 -83 49q0 29 24 60l216 279h-136q-99 0 -99 73q0 71 100 71h253q99 0 99 -48q0 -26 -32 -69l-210 -271h156zM240 633l87 53q26 15 46 15q47 0 47 -51q0 -30 -30 -54l-109 -85q-21 -16 -41 -16t-41 16l-109 85q-30 24 -30 54
q0 51 47 51q21 0 46 -15z" />
    <glyph glyph-name="longs" unicode="&#x17f;" horiz-adv-x="370" 
d="M370 684q0 -54 -72 -65q-38 -6 -38 -59v-38h26q100 0 100 -67q0 -68 -100 -68h-26v-279q0 -115 -78 -115q-79 0 -79 115v279h-6q-89 0 -89 68q0 67 95 67v30q0 211 163 211q104 0 104 -79z" />
    <glyph glyph-name="florin" unicode="&#x192;" horiz-adv-x="522" 
d="M203 571q12 70 22.5 100t31.5 55.5t56 40t86 14.5q56 0 114 -9l-12 -81q-39 10 -75 10q-31 0 -48 -14.5t-23.5 -34t-18.5 -81.5h113l-14 -79h-114l-90 -483q-18 -98 -69 -136.5t-155 -38.5v78q40 0 59.5 16.5t29.5 72.5l92 491h-104l13 79h106z" />
    <glyph glyph-name="Ohorn" unicode="&#x1a0;" horiz-adv-x="758" 
d="M631 629q97 -104 97 -274q0 -168 -96 -272t-253 -104t-253 104q-96 103 -96 272t97 273q96 104 252 104t252 -103zM254 518q-48 -61 -48 -165q0 -100 48 -160q48 -59 125 -59t125 59q48 60 48 160q0 104 -48 165q-47 59 -125 59t-125 -59zM808 515q-53 -12 -84 16
q-34 30 -4 64q15 17 52 18q37 0 51 15q13 14 9 52q-3 38 15 58q29 32 63 2q32 -28 26 -82q-6 -52 -41 -92q-35 -39 -87 -51z" />
    <glyph glyph-name="ohorn" unicode="&#x1a1;" horiz-adv-x="583" 
d="M484 468q74 -79 74 -202t-74 -201q-75 -78 -192 -78t-192 78t-75 201t75 202q76 78 192 78q117 0 192 -78zM218 365q-31 -38 -31 -98q0 -136 105 -136q104 0 104 137q0 59 -30 97q-30 37 -74 37q-45 0 -74 -37zM625 417q-53 -12 -84 16q-34 30 -4 64q15 17 52 18
q37 0 51 15q13 14 9 52q-3 38 15 58q29 32 63 2q32 -28 26 -82q-6 -52 -41 -92q-35 -39 -87 -51z" />
    <glyph glyph-name="Uhorn" unicode="&#x1af;" horiz-adv-x="736" 
d="M225 608v-285q0 -189 143 -189t143 189v285q0 115 81 115t81 -115v-303q0 -157 -83 -242q-80 -84 -222 -84t-222 84q-83 85 -83 242v303q0 115 81 115t81 -115zM808 515q-53 -12 -84 16q-34 30 -4 64q15 17 52 18q37 0 51 15q13 14 9 52q-3 38 15 58q29 32 63 2
q32 -28 26 -82q-6 -52 -41 -92q-35 -39 -87 -51z" />
    <glyph glyph-name="uhorn" unicode="&#x1b0;" horiz-adv-x="584" 
d="M211 425v-178q0 -116 81 -116t81 116v178q0 114 79 114q78 0 78 -114v-210q0 -228 -238 -228t-238 228v210q0 114 79 114q78 0 78 -114zM672 430q-53 -12 -84 16q-34 30 -4 64q15 17 52 18q37 0 51 15q13 14 9 52q-3 38 15 58q29 32 63 2q32 -28 26 -82q-6 -52 -41 -92
q-35 -39 -87 -51z" />
    <glyph glyph-name="Aringacute" unicode="&#x1fa;" horiz-adv-x="637" 
d="M399 284l-81 263l-88 -263h169zM441 629l180 -511q11 -31 11 -51q0 -76 -80 -76q-60 0 -85 79l-20 64h-263l-24 -70q-24 -73 -78 -73q-77 0 -77 78q0 27 8 47l185 502q38 105 124 105q85 0 119 -94z" />
    <glyph glyph-name="aringacute" unicode="&#x1fb;" horiz-adv-x="603" 
d="M217 364q-30 -38 -30 -96q0 -60 29 -98q29 -39 73 -39t73 39q30 40 30 98q0 57 -30 96q-30 38 -73 38t-72 -38zM264 -13q-99 0 -168 78q-71 80 -71 201q0 119 72 200q71 80 173 80q78 0 126 -57q28 50 75 50q78 0 78 -114v-317q0 -115 -78 -115q-50 0 -75 55
q-50 -61 -132 -61zM285 656q-31 0 -54 -22q-23 -23 -23 -55q0 -34 23 -56q22 -21 54 -21t55 22t23 55q0 31 -23 54t-55 23zM396 680q45 -43 45 -102q0 -62 -46 -104q-45 -41 -108 -41q-64 0 -108 39q-47 42 -47 106q0 60 46 103q46 42 109 42t109 -43zM427 886
q0 -27 -26 -56l-76 -84q-28 -31 -54 -31q-54 0 -54 55q0 20 17 44l73 100q22 32 57 32q63 0 63 -60z" />
    <glyph glyph-name="AEacute" unicode="&#x1fc;" horiz-adv-x="0" 
 />
    <glyph glyph-name="aeacute" unicode="&#x1fd;" horiz-adv-x="0" 
 />
    <glyph glyph-name="Oslashacute" unicode="&#x1fe;" horiz-adv-x="0" 
 />
    <glyph glyph-name="oslashacute" unicode="&#x1ff;" horiz-adv-x="0" 
 />
    <glyph glyph-name="tonos" unicode="&#x384;" horiz-adv-x="500" 
d="M358 642q0 -27 -26 -56l-76 -84q-28 -31 -54 -31q-54 0 -54 55q0 20 17 44l73 100q22 32 57 32q63 0 63 -60z" />
    <glyph glyph-name="dieresistonos" unicode="&#x385;" horiz-adv-x="500" 
d="M358 642q0 -27 -26 -56l-76 -84q-28 -31 -54 -31q-54 0 -54 55q0 20 17 44l73 100q22 32 57 32q63 0 63 -60zM117 623q0 -72 -73 -72q-72 0 -72 72q0 73 72 73q73 0 73 -73zM543 623q0 -72 -73 -72q-72 0 -72 72q0 73 72 73q73 0 73 -73z" />
    <glyph glyph-name="Alphatonos" unicode="&#x386;" horiz-adv-x="637" 
d="M150 638q0 -27 -26 -56l-76 -84q-28 -31 -54 -31q-54 0 -54 55q0 20 17 44l73 100q22 32 57 32q63 0 63 -60zM399 284l-81 263l-88 -263h169zM441 629l180 -511q11 -31 11 -51q0 -76 -80 -76q-60 0 -85 79l-20 64h-263l-24 -70q-24 -73 -78 -73q-77 0 -77 78q0 27 8 47
l185 502q38 105 124 105q85 0 119 -94z" />
    <glyph glyph-name="anoteleia" unicode="&#x387;" horiz-adv-x="324" 
d="M184.845 670.797q22.9502 -22.9502 22.9502 -54.3984q0 -33.1494 -22.9502 -55.249q-22.9492 -22.0996 -54.3984 -22.0996q-31.4482 0 -53.5479 21.25q-23.7998 21.249 -23.7998 56.0986q0 31.4482 22.9492 54.3984q22.9502 22.9492 54.3984 22.9492
q31.4492 0 54.3984 -22.9492z" />
    <glyph glyph-name="Epsilontonos" unicode="&#x388;" horiz-adv-x="905" 
d="M358 642q0 -27 -26 -56l-76 -84q-28 -31 -54 -31q-54 0 -54 55q0 20 17 44l73 100q22 32 57 32q63 0 63 -60zM625 433h114q115 0 115 -75t-115 -75h-114v-133h137q115 0 115 -75t-115 -75h-189q-64 0 -87 22t-23 80v495q0 62 22 87q25 27 90 27h182q115 0 115 -76
q0 -74 -115 -74h-132v-128z" />
    <glyph glyph-name="Etatonos" unicode="&#x389;" horiz-adv-x="1148" 
d="M358 642q0 -27 -26 -56l-76 -84q-28 -31 -54 -31q-54 0 -54 55q0 20 17 44l73 100q22 32 57 32q63 0 63 -60zM923 437v171q0 115 81 115t81 -115v-502q0 -115 -81 -115t-81 115v181h-298v-181q0 -115 -81 -115t-81 115v502q0 115 81 115t81 -115v-171h298z" />
    <glyph glyph-name="Iotatonos" unicode="&#x38a;" horiz-adv-x="692" 
d="M358 642q0 -27 -26 -56l-76 -84q-28 -31 -54 -31q-54 0 -54 55q0 20 17 44l73 100q22 32 57 32q63 0 63 -60zM625 608v-502q0 -115 -81 -115t-81 115v502q0 115 81 115t81 -115z" />
    <glyph glyph-name="Omicrontonos" unicode="&#x38c;" horiz-adv-x="981" 
d="M273 637q0 -27 -26 -56l-76 -84q-28 -31 -54 -31q-54 0 -54 55q0 20 17 44l73 100q22 32 57 32q63 0 63 -60zM854 629q97 -104 97 -274q0 -168 -96 -272t-253 -104t-253 104q-96 103 -96 272t97 273q96 104 252 104t252 -103zM477 518q-48 -61 -48 -165q0 -100 48 -160
q48 -59 125 -59t125 59q48 60 48 160q0 104 -48 165q-47 59 -125 59t-125 -59z" />
    <glyph glyph-name="Upsilontonos" unicode="&#x38e;" horiz-adv-x="1026" 
d="M286 642q0 -27 -26 -56l-76 -84q-28 -31 -54 -31q-54 0 -54 55q0 20 17 44l73 100q22 32 57 32q63 0 63 -60zM552 658l121 -173l123 175q44 63 87 63q27 0 49 -23q22 -22 22 -49q0 -30 -37 -82l-164 -234v-229q0 -115 -81 -115t-81 115v229l-164 232q-36 50 -36 82
q0 28 21 51q23 23 56 23q38 0 84 -65z" />
    <glyph glyph-name="Omegatonos" unicode="&#x38f;" horiz-adv-x="1076" 
d="M239 646q0 -27 -26 -56l-76 -84q-28 -31 -54 -31q-54 0 -54 55q0 20 17 44l73 100q22 32 57 32q63 0 63 -60zM331 -25q-81 0 -81 115v303q0 157 83 243q80 83 222 83t222 -83q83 -86 83 -243v-303q0 -115 -81 -115t-81 115v285q0 189 -143 189t-143 -189v-285
q0 -115 -81 -115zM330 128q70 0 70 -75q0 -76 -71 -76h-205q-71 0 -71 76q0 75 71 75h206zM977 128q70 0 70 -75q0 -76 -71 -76h-205q-71 0 -71 76q0 75 71 75h206z" />
    <glyph glyph-name="iotadieresistonos" unicode="&#x390;" horiz-adv-x="498" 
d="M326 429v-317q0 -115 -78 -115q-79 0 -79 115v317q0 114 79 114q78 0 78 -114zM345 710q0 -27 -26 -56l-76 -84q-28 -31 -54 -31q-54 0 -54 55q0 20 17 44l73 100q22 32 57 32q63 0 63 -60zM104 691q0 -72 -73 -72q-72 0 -72 72q0 73 72 73q73 0 73 -73zM530 691
q0 -72 -73 -72q-72 0 -72 72q0 73 72 73q73 0 73 -73z" />
    <glyph glyph-name="Alpha" unicode="&#x391;" horiz-adv-x="637" 
d="M399 284l-81 263l-88 -263h169zM441 629l180 -511q11 -31 11 -51q0 -76 -80 -76q-60 0 -85 79l-20 64h-263l-24 -70q-24 -73 -78 -73q-77 0 -77 78q0 27 8 47l185 502q38 105 124 105q85 0 119 -94z" />
    <glyph glyph-name="Beta" unicode="&#x392;" horiz-adv-x="616" 
d="M308 711q222 0 222 -177q0 -102 -88 -140q144 -36 144 -180q0 -214 -253 -214h-160q-64 0 -87 22t-23 80v495q0 62 22 87q25 27 90 27h133zM225 138h80q111 0 111 81q0 80 -113 80h-78v-161zM225 434h68q80 0 80 69q0 70 -82 70h-66v-139z" />
    <glyph glyph-name="Gamma" unicode="&#x393;" horiz-adv-x="490" 
d="M225 433h114q115 0 115 -75t-115 -75h-114v-177q0 -115 -81 -115t-81 115v491q0 62 22 87q25 27 90 27h182q115 0 115 -76q0 -74 -115 -74h-132v-128z" />
    <glyph glyph-name="uni0394" unicode="&#x394;" horiz-adv-x="0" 
d="M586 0h-586l306 711zM470 40l-194 506l-215 -506h409z" />
    <glyph glyph-name="Epsilon" unicode="&#x395;" horiz-adv-x="505" 
d="M225 433h114q115 0 115 -75t-115 -75h-114v-133h137q115 0 115 -75t-115 -75h-189q-64 0 -87 22t-23 80v495q0 62 22 87q25 27 90 27h182q115 0 115 -76q0 -74 -115 -74h-132v-128z" />
    <glyph glyph-name="Zeta" unicode="&#x396;" horiz-adv-x="546" 
d="M401 711q139 0 139 -79q0 -36 -47 -99l-283 -383h221q115 0 115 -75t-115 -75h-317q-114 0 -114 81q0 26 13 51q8 16 32 47l288 382h-207q-115 0 -115 76q0 74 115 74h275z" />
    <glyph glyph-name="Eta" unicode="&#x397;" horiz-adv-x="748" 
d="M523 437v171q0 115 81 115t81 -115v-502q0 -115 -81 -115t-81 115v181h-298v-181q0 -115 -81 -115t-81 115v502q0 115 81 115t81 -115v-171h298z" />
    <glyph glyph-name="Theta" unicode="&#x398;" horiz-adv-x="758" 
d="M631 629q97 -104 97 -274q0 -168 -96 -272t-253 -104t-253 104q-96 103 -96 272t97 273q96 104 252 104t252 -103zM254 518q-48 -61 -48 -165q0 -100 48 -160q48 -59 125 -59t125 59q48 60 48 160q0 104 -48 165q-47 59 -125 59t-125 -59zM481 418q78 0 78 -69
q0 -66 -79 -66h-203q-78 0 -78 67q0 68 79 68h203z" />
    <glyph glyph-name="Iota" unicode="&#x399;" horiz-adv-x="296" 
d="M229 608v-502q0 -115 -81 -115t-81 115v502q0 115 81 115t81 -115z" />
    <glyph glyph-name="Kappa" unicode="&#x39a;" horiz-adv-x="635" 
d="M225 608v-179l210 238q50 56 84 56q29 0 51 -22t22 -52q0 -37 -41 -80l-179 -187l217 -236q41 -46 41 -80q0 -31 -24 -53q-22 -22 -51 -22q-24 0 -45 16q-14 10 -42 41l-243 268v-210q0 -115 -81 -115t-81 115v502q0 115 81 115t81 -115z" />
    <glyph glyph-name="Lambda" unicode="&#x39b;" horiz-adv-x="637" 
d="M399 284l-81 263l-88 -263h169zM441 629l180 -511q11 -31 11 -51q0 -76 -80 -76q-60 0 -85 79l-20 64h-263l-24 -70q-24 -73 -78 -73q-77 0 -77 78q0 27 8 47l185 502q38 105 124 105q85 0 119 -94z" />
    <glyph glyph-name="Mu" unicode="&#x39c;" horiz-adv-x="869" 
d="M334 624l108 -425l101 426q24 98 111 98q94 0 114 -120l79 -489q4 -23 4 -39q0 -84 -82 -84q-70 0 -80 94l-50 425h-1l-110 -438q-10 -39 -26 -57q-22 -24 -64 -24q-75 0 -95 81l-104 438h-1l-56 -415q-15 -104 -85 -104q-79 0 -79 84q0 18 6 49l87 485q20 114 110 114
q89 0 113 -99z" />
    <glyph glyph-name="Nu" unicode="&#x39d;" horiz-adv-x="748" 
d="M224 667l299 -395v336q0 115 81 115t81 -115v-520q0 -97 -74 -97q-52 0 -112 80l-274 362v-327q0 -115 -81 -115t-81 115v505q0 112 75 112q43 0 86 -56z" />
    <glyph glyph-name="Xi" unicode="&#x39e;" horiz-adv-x="512" 
d="M397 149q115 0 115 -76q0 -74 -115 -74h-282q-115 0 -115 74q0 76 115 76h282zM397 711q115 0 115 -76q0 -74 -115 -74h-282q-115 0 -115 74q0 76 115 76h282zM393 434q115 0 115 -76q0 -74 -115 -74h-282q-115 0 -115 74q0 76 115 76h282z" />
    <glyph glyph-name="Omicron" unicode="&#x39f;" horiz-adv-x="758" 
d="M631 629q97 -104 97 -274q0 -168 -96 -272t-253 -104t-253 104q-96 103 -96 272t97 273q96 104 252 104t252 -103zM254 518q-48 -61 -48 -165q0 -100 48 -160q48 -59 125 -59t125 59q48 60 48 160q0 104 -48 165q-47 59 -125 59t-125 -59z" />
    <glyph glyph-name="Pi" unicode="&#x3a0;" horiz-adv-x="748" 
d="M225 561v-455q0 -115 -81 -115t-81 115v491q0 64 25 89q24 25 87 25h398q63 0 88 -25q24 -25 24 -89v-491q0 -115 -81 -115t-81 115v455h-298z" />
    <glyph glyph-name="Rho" unicode="&#x3a1;" horiz-adv-x="612" 
d="M225 375h70q111 0 111 94q0 93 -111 93h-70v-187zM321 711q121 0 192 -66q69 -65 69 -176q0 -112 -65 -176q-66 -65 -183 -65h-109v-122q0 -115 -81 -115t-81 115v491q0 62 22 87q25 27 90 27h146z" />
    <glyph glyph-name="Sigma" unicode="&#x3a3;" horiz-adv-x="546" 
d="M352 352l-142 -197h221q115 0 115 -78q0 -77 -115 -77h-317q-114 0 -114 83q0 27 13 53q8 17 32 49l144 196zM185 321l-144 196q-24 32 -32 49q-13 26 -13 53q0 83 114 83h317q115 0 115 -77q0 -78 -115 -78h-221l142 -197z" />
    <glyph glyph-name="Tau" unicode="&#x3a4;" horiz-adv-x="512" 
d="M397 711q115 0 115 -76q0 -74 -115 -74h-60v-455q0 -115 -81 -115t-81 115v455h-60q-115 0 -115 74q0 76 115 76h282z" />
    <glyph glyph-name="Upsilon" unicode="&#x3a5;" horiz-adv-x="563" 
d="M161 658l121 -173l123 175q44 63 87 63q27 0 49 -23q22 -22 22 -49q0 -30 -37 -82l-164 -234v-229q0 -115 -81 -115t-81 115v229l-164 232q-36 50 -36 82q0 28 21 51q23 23 56 23q38 0 84 -65z" />
    <glyph glyph-name="Phi" unicode="&#x3a6;" horiz-adv-x="914" 
d="M538 625v-20h86q119 0 189 -64q71 -65 71 -178q0 -110 -71 -177q-69 -64 -176 -64h-99v-31q0 -100 -81 -100t-81 100v31h-99q-247 0 -247 241q0 113 70 178q70 64 190 64h86v20q0 98 81 98t81 -98zM538 259h60q110 0 110 104t-110 104h-60v-208zM376 467h-60
q-110 0 -110 -104t110 -104h60v208z" />
    <glyph glyph-name="Chi" unicode="&#x3a7;" horiz-adv-x="607" 
d="M205 658l100 -140l102 142q45 63 86 63q27 0 49 -23q22 -22 22 -49q0 -31 -36 -82l-131 -182l173 -244q37 -53 37 -82q0 -27 -22 -48q-22 -22 -52 -22q-45 0 -88 61l-144 202l-143 -201q-43 -62 -85 -62q-29 0 -51 22t-22 49q0 31 36 82l173 241l-130 182q-36 50 -36 80
q0 76 79 76q36 0 83 -65z" />
    <glyph glyph-name="Psi" unicode="&#x3a8;" horiz-adv-x="982" 
d="M572 608v-179l210 238q50 56 84 56q29 0 51 -22t22 -52q0 -37 -41 -80l-179 -187l-147 -66v-210q0 -115 -81 -115t-81 115v210l-147 66l-179 187q-41 43 -41 80q0 30 22 52t51 22q34 0 84 -56l210 -238v179q0 115 81 115t81 -115z" />
    <glyph glyph-name="uni03A9" unicode="&#x3a9;" horiz-adv-x="1001" 
d="M278 -21q-81 0 -81 115v303q0 157 83 243q80 83 222 83t222 -83q83 -86 83 -243v-303q0 -115 -81 -115t-81 115v285q0 189 -143 189t-143 -189v-285q0 -115 -81 -115zM277 132q70 0 70 -75q0 -76 -71 -76h-205q-71 0 -71 76q0 75 71 75h206zM924 132q70 0 70 -75
q0 -76 -71 -76h-205q-71 0 -71 76q0 75 71 75h206z" />
    <glyph glyph-name="Iotadieresis" unicode="&#x3aa;" horiz-adv-x="296" 
d="M229 608v-502q0 -115 -81 -115t-81 115v502q0 115 81 115t81 -115zM112 807q0 -72 -73 -72q-72 0 -72 72q0 73 72 73q73 0 73 -73zM329 807q0 -72 -73 -72q-72 0 -72 72q0 73 72 73q73 0 73 -73z" />
    <glyph glyph-name="Upsilondieresis" unicode="&#x3ab;" horiz-adv-x="563" 
d="M161 658l121 -173l123 175q44 63 87 63q27 0 49 -23q22 -22 22 -49q0 -30 -37 -82l-164 -234v-229q0 -115 -81 -115t-81 115v229l-164 232q-36 50 -36 82q0 28 21 51q23 23 56 23q38 0 84 -65zM246 807q0 -72 -73 -72q-72 0 -72 72q0 73 72 73q73 0 73 -73zM463 807
q0 -72 -73 -72q-72 0 -72 72q0 73 72 73q73 0 73 -73z" />
    <glyph glyph-name="alphatonos" unicode="&#x3ac;" horiz-adv-x="600" 
d="M217 364q-30 -38 -30 -96q0 -60 29 -98q29 -39 73 -39t73 39q30 40 30 98q0 57 -30 96q-30 38 -73 38t-72 -38zM264 -13q-99 0 -168 78q-71 80 -71 201q0 119 72 200q71 80 173 80q78 0 126 -57q28 50 75 50q78 0 78 -114v-317q0 -115 -78 -115q-50 0 -75 55
q-50 -61 -132 -61zM140 642q0 -27 -26 -56l-76 -84q-28 -31 -54 -31q-54 0 -54 55q0 20 17 44l73 100q22 32 57 32q63 0 63 -60z" />
    <glyph glyph-name="epsilontonos" unicode="&#x3ad;" horiz-adv-x="527" 
d="M250 546q91 0 159 -31q72 -32 72 -80q0 -23 -20 -42q-20 -20 -45 -20q-11 0 -26 8q-6 2 -15 8l-16 9q-20 11 -38 17q-25 8 -52 8q-70 0 -70 -46q0 -50 62 -50h27q57 0 57 -47q0 -51 -57 -51h-35q-71 0 -71 -49q0 -70 87 -70q41 0 68 11q18 8 36 25q2 1 3 3l4 4q4 4 7 6
q7 7 14 12q17 11 43 11q59 0 59 -62q0 -52 -67 -92q-68 -41 -160 -41q-111 0 -181 49q-70 50 -70 130q0 97 109 121q-41 19 -64 47q-28 33 -28 74q0 67 57 104q55 34 151 34zM140 642q0 -27 -26 -56l-76 -84q-28 -31 -54 -31q-54 0 -54 55q0 20 17 44l73 100q22 32 57 32
q63 0 63 -60z" />
    <glyph glyph-name="etatonos" unicode="&#x3ae;" horiz-adv-x="600" 
d="M208 489q46 50 138 50q192 0 192 -204v-430q0 -116 -78 -116q-79 0 -79 115v382q0 118 -84 118q-86 0 -86 -115v-180q0 -116 -78 -116q-79 0 -79 115v317q0 114 79 114q47 0 75 -50zM140 642q0 -27 -26 -56l-76 -84q-28 -31 -54 -31q-54 0 -54 55q0 20 17 44l73 100
q22 32 57 32q63 0 63 -60z" />
    <glyph glyph-name="iotatonos" unicode="&#x3af;" horiz-adv-x="277" 
d="M216 425v-317q0 -115 -78 -115q-79 0 -79 115v317q0 114 79 114q78 0 78 -114zM140 642q0 -27 -26 -56l-76 -84q-28 -31 -54 -31q-54 0 -54 55q0 20 17 44l73 100q22 32 57 32q63 0 63 -60z" />
    <glyph glyph-name="upsilondieresistonos" unicode="&#x3b0;" horiz-adv-x="515" 
d="M158 462l86 -274l85 284q20 67 74 67q74 0 74 -79q0 -20 -12 -52l-133 -344q-29 -77 -90 -77q-64 0 -95 82l-132 337q-14 37 -14 55q0 78 76 78q56 0 81 -77zM339 676q0 -27 -26 -56l-76 -84q-28 -31 -54 -31q-54 0 -54 55q0 20 17 44l73 100q22 32 57 32q63 0 63 -60z
M98 657q0 -72 -73 -72q-72 0 -72 72q0 73 72 73q73 0 73 -73zM524 657q0 -72 -73 -72q-72 0 -72 72q0 73 72 73q73 0 73 -73z" />
    <glyph glyph-name="alpha" unicode="&#x3b1;" horiz-adv-x="603" 
d="M217 364q-30 -38 -30 -96q0 -60 29 -98q29 -39 73 -39t73 39q30 40 30 98q0 57 -30 96q-30 38 -73 38t-72 -38zM264 -13q-99 0 -168 78q-71 80 -71 201q0 119 72 200q71 80 173 80q78 0 126 -57q28 50 75 50q78 0 78 -114v-317q0 -115 -78 -115q-50 0 -75 55
q-50 -61 -132 -61z" />
    <glyph glyph-name="beta" unicode="&#x3b2;" horiz-adv-x="0" 
 />
    <glyph glyph-name="gamma" unicode="&#x3b3;" horiz-adv-x="500" 
d="M162 463l89 -238l97 251q25 63 69 63q78 0 78 -75q0 -25 -13 -55l-240 -570q-27 -64 -69 -64q-78 0 -78 76q0 25 13 54l65 141l-159 371q-9 19 -9 44q0 78 77 78q52 0 80 -76z" />
    <glyph glyph-name="delta" unicode="&#x3b4;" horiz-adv-x="612" 
d="M513 65q-75 -78 -192 -78q-118 0 -191 72q-76 75 -76 207v97q0 62 5 108q6 57 19 102q33 105 117 164q35 25 77 43q31 13 74 26l26 7q2 1 9 2q22 6 33 10q36 11 59 22q25 13 49 13q65 0 65 -68q0 -44 -44 -74q-36 -23 -99 -42l-123 -34q-40 -11 -64 -21q-32 -14 -53 -34
q-50 -46 -50 -140q35 46 75 69q50 30 112 30q106 0 173 -68q73 -75 73 -212q0 -123 -74 -201zM216 268q0 -60 29 -98q29 -39 76 -39q104 0 104 137q0 57 -25 94q-28 40 -79 40q-105 0 -105 -134z" />
    <glyph glyph-name="epsilon" unicode="&#x3b5;" horiz-adv-x="533" 
d="M250 546q91 0 159 -31q72 -32 72 -80q0 -23 -20 -42q-20 -20 -45 -20q-11 0 -26 8q-6 2 -15 8l-16 9q-20 11 -38 17q-25 8 -52 8q-70 0 -70 -46q0 -50 62 -50h27q57 0 57 -47q0 -51 -57 -51h-35q-71 0 -71 -49q0 -70 87 -70q41 0 68 11q18 8 36 25q2 1 3 3l4 4q4 4 7 6
q7 7 14 12q17 11 43 11q59 0 59 -62q0 -52 -67 -92q-68 -41 -160 -41q-111 0 -181 49q-70 50 -70 130q0 97 109 121q-41 19 -64 47q-28 33 -28 74q0 67 57 104q55 34 151 34z" />
    <glyph glyph-name="zeta" unicode="&#x3b6;" horiz-adv-x="0" 
 />
    <glyph glyph-name="eta" unicode="&#x3b7;" horiz-adv-x="592" 
d="M208 489q46 50 138 50q192 0 192 -204v-430q0 -116 -78 -116q-79 0 -79 115v382q0 118 -84 118q-86 0 -86 -115v-180q0 -116 -78 -116q-79 0 -79 115v317q0 114 79 114q47 0 75 -50z" />
    <glyph glyph-name="theta" unicode="&#x3b8;" horiz-adv-x="583" 
d="M484 468q74 -79 74 -202t-74 -201q-75 -78 -192 -78t-192 78t-75 201t75 202q76 78 192 78q117 0 192 -78zM218 365q-31 -38 -31 -98q0 -136 105 -136q104 0 104 137q0 59 -30 97q-30 37 -74 37q-45 0 -74 -37zM394 332q78 0 78 -69q0 -66 -79 -66h-203q-78 0 -78 67
q0 68 79 68h203z" />
    <glyph glyph-name="iota" unicode="&#x3b9;" horiz-adv-x="275" 
d="M216 425v-317q0 -115 -78 -115q-79 0 -79 115v317q0 114 79 114q78 0 78 -114z" />
    <glyph glyph-name="kappa" unicode="&#x3ba;" horiz-adv-x="525" 
d="M211 424v-66l135 139q41 42 81 42q66 0 66 -60q0 -39 -40 -76l-106 -98l147 -173q31 -37 31 -76q0 -63 -74 -63q-46 0 -82 47l-158 210v-142q0 -115 -78 -115q-79 0 -79 115v316q0 115 79 115q78 0 78 -115z" />
    <glyph glyph-name="lambda" unicode="&#x3bb;" horiz-adv-x="500" 
d="M82 -3q-77 0 -77 78q0 25 9 44l159 371l-65 141q-13 29 -13 54q0 76 78 76q42 0 69 -64l240 -570q13 -30 13 -55q0 -75 -78 -75q-44 0 -69 63l-97 251l-89 -238q-28 -76 -80 -76z" />
    <glyph glyph-name="uni03BC" unicode="&#x3bc;" horiz-adv-x="809" 
d="M242 482l167 -287l165 298q25 46 74 46q42 0 62 -21q24 -26 29 -94l25 -337q0 -94 -70 -94q-77 0 -86 115l-13 163l-116 -216q-33 -62 -75 -62q-39 0 -75 67l-114 211l-31 -358q-10 -115 -86 -115q-70 0 -70 93l43 533q5 64 29 91q20 24 61 24q48 0 81 -57z" />
    <glyph glyph-name="nu" unicode="&#x3bd;" horiz-adv-x="476" 
d="M157 462l86 -274l85 284q20 67 74 67q74 0 74 -79q0 -20 -12 -52l-133 -344q-29 -77 -90 -77q-64 0 -95 82l-132 337q-14 37 -14 55q0 78 76 78q56 0 81 -77z" />
    <glyph glyph-name="xi" unicode="&#x3be;" horiz-adv-x="0" 
 />
    <glyph glyph-name="omicron" unicode="&#x3bf;" horiz-adv-x="583" 
d="M484 468q74 -79 74 -202t-74 -201q-75 -78 -192 -78t-192 78t-75 201t75 202q76 78 192 78q117 0 192 -78zM218 365q-31 -38 -31 -98q0 -136 105 -136q104 0 104 137q0 59 -30 97q-30 37 -74 37q-45 0 -74 -37z" />
    <glyph glyph-name="pi" unicode="&#x3c0;" horiz-adv-x="585" 
d="M531 108q0 -115 -78 -115q-79 0 -79 115v289h-163v-289q0 -115 -77 -115q-80 0 -80 115v309q0 64 21 91q18 24 59 24h319q40 0 57 -21q21 -27 21 -94v-309z" />
    <glyph glyph-name="rho" unicode="&#x3c1;" horiz-adv-x="603" 
d="M338 546q101 0 170 -77q70 -79 70 -199q0 -118 -71 -201q-71 -82 -171 -82q-70 0 -125 47v-135q0 -115 -78 -115q-79 0 -79 115v530q0 110 79 110q49 0 75 -46q48 53 130 53zM211 267q0 -136 102 -136q103 0 103 137q0 59 -30 97q-29 37 -73 37q-102 0 -102 -135z" />
    <glyph glyph-name="sigma1" unicode="&#x3c2;" horiz-adv-x="497" 
d="M424 518q48 -28 48 -73q0 -67 -65 -67q-9 0 -23 4q-5 1 -13 4q-2 0 -7 2q-5 1 -6 2q-37 12 -62 12q-48 0 -78 -38q-31 -38 -31 -99q0 -134 115 -134q26 0 62 12l6 2q5 2 7 2q7 3 12 4q13 4 21 4q61 0 61 -68q0 -42 -51 -71q-53 -29 -134 -29q-116 0 -188 77
q-73 77 -73 202q0 124 74 201q75 79 197 79q79 0 128 -28zM353 -136q-53 -12 -84 15q-35 30 -5 64q15 17 52 18q38 1 51 16q13 14 9 52q-3 38 14 58q29 33 64 2q31 -27 26 -81q-5 -53 -40 -93q-35 -39 -87 -51z" />
    <glyph glyph-name="sigma" unicode="&#x3c3;" horiz-adv-x="583" 
d="M484 468q74 -79 74 -202t-74 -201q-75 -78 -192 -78t-192 78t-75 201t75 202q76 78 192 78q117 0 192 -78zM218 365q-31 -38 -31 -98q0 -136 105 -136q104 0 104 137q0 59 -30 97q-30 37 -74 37q-45 0 -74 -37zM564 545q78 0 78 -69q0 -66 -79 -66h-203q-78 0 -78 67
q0 68 79 68h203z" />
    <glyph glyph-name="tau" unicode="&#x3c4;" horiz-adv-x="383" 
d="M257 522h21q100 0 100 -67q0 -68 -100 -68h-21v-279q0 -115 -78 -115q-79 0 -79 115v279h-6q-89 0 -89 68q0 67 95 67h157z" />
    <glyph glyph-name="upsilon" unicode="&#x3c5;" horiz-adv-x="476" 
d="M157 462l86 -274l85 284q20 67 74 67q74 0 74 -79q0 -20 -12 -52l-133 -344q-29 -77 -90 -77q-64 0 -95 82l-132 337q-14 37 -14 55q0 78 76 78q56 0 81 -77z" />
    <glyph glyph-name="phi" unicode="&#x3c6;" horiz-adv-x="939" 
d="M548 649v-157q49 54 126 54q101 0 170 -80q70 -81 70 -200q0 -117 -70 -198t-172 -81q-74 0 -124 42v-134q0 -115 -79 -115q-78 0 -78 115v134q-51 -42 -125 -42q-101 0 -171 82t-70 199q0 119 70 199q69 79 171 79q76 0 125 -54v157q0 115 78 115q79 0 79 -115zM576 362
q-28 -39 -28 -98q0 -133 101 -133q103 0 103 133q0 58 -29 98t-74 40q-44 0 -73 -40zM216 362q-29 -39 -29 -97q0 -134 102 -134t102 133q0 59 -28 98q-28 40 -73 40t-74 -40z" />
    <glyph glyph-name="chi" unicode="&#x3c7;" horiz-adv-x="607" 
d="M201 471l100 -140l102 142q45 63 86 63q27 0 49 -23q22 -22 22 -49q0 -31 -36 -82l-131 -182l173 -244q37 -53 37 -82q0 -27 -22 -48q-22 -22 -52 -22q-45 0 -88 61l-144 202l-143 -201q-43 -62 -85 -62q-29 0 -51 22t-22 49q0 31 36 82l173 241l-130 182q-36 50 -36 80
q0 76 79 76q36 0 83 -65z" />
    <glyph glyph-name="psi" unicode="&#x3c8;" horiz-adv-x="795" 
d="M396 -7q-77 0 -77 115v67l-135 53l-147 173q-31 37 -31 76q0 62 74 62q47 0 82 -46l157 -210v142q0 114 77 114q80 0 80 -115v-142l157 210q36 47 82 47q74 0 74 -63q0 -39 -31 -76l-147 -173l-135 -53v-67q0 -114 -80 -114z" />
    <glyph glyph-name="omega" unicode="&#x3c9;" horiz-adv-x="763" 
d="M157 462l83 -288l67 289q18 76 73 76q61 0 80 -78l72 -283l83 294q19 67 74 67q74 0 74 -79q0 -18 -12 -52l-121 -344q-28 -77 -90 -77q-73 0 -95 82l-65 251l-61 -256q-18 -77 -90 -77q-65 0 -95 82l-125 349q-9 26 -9 43q0 78 76 78q59 0 81 -77z" />
    <glyph glyph-name="iotadieresis" unicode="&#x3ca;" horiz-adv-x="275" 
d="M217 425v-317q0 -115 -78 -115q-79 0 -79 115v317q0 114 79 114q78 0 78 -114zM102 623q0 -72 -73 -72q-72 0 -72 72q0 73 72 73q73 0 73 -73zM319 623q0 -72 -73 -72q-72 0 -72 72q0 73 72 73q73 0 73 -73z" />
    <glyph glyph-name="upsilondieresis" unicode="&#x3cb;" horiz-adv-x="476" 
d="M157 462l86 -274l85 284q20 67 74 67q74 0 74 -79q0 -20 -12 -52l-133 -344q-29 -77 -90 -77q-64 0 -95 82l-132 337q-14 37 -14 55q0 78 76 78q56 0 81 -77zM202 623q0 -72 -73 -72q-72 0 -72 72q0 73 72 73q73 0 73 -73zM419 623q0 -72 -73 -72q-72 0 -72 72
q0 73 72 73q73 0 73 -73z" />
    <glyph glyph-name="omicrontonos" unicode="&#x3cc;" horiz-adv-x="583" 
d="M484 468q74 -79 74 -202t-74 -201q-75 -78 -192 -78t-192 78t-75 201t75 202q76 78 192 78q117 0 192 -78zM218 365q-31 -38 -31 -98q0 -136 105 -136q104 0 104 137q0 59 -30 97q-30 37 -74 37q-45 0 -74 -37zM432 642q0 -27 -26 -56l-76 -84q-28 -31 -54 -31
q-54 0 -54 55q0 20 17 44l73 100q22 32 57 32q63 0 63 -60z" />
    <glyph glyph-name="upsilontonos" unicode="&#x3cd;" horiz-adv-x="476" 
d="M157 462l86 -274l85 284q20 67 74 67q74 0 74 -79q0 -20 -12 -52l-133 -344q-29 -77 -90 -77q-64 0 -95 82l-132 337q-14 37 -14 55q0 78 76 78q56 0 81 -77zM378 642q0 -27 -26 -56l-76 -84q-28 -31 -54 -31q-54 0 -54 55q0 20 17 44l73 100q22 32 57 32q63 0 63 -60z
" />
    <glyph glyph-name="omegatonos" unicode="&#x3ce;" horiz-adv-x="763" 
d="M157 462l83 -288l67 289q18 76 73 76q61 0 80 -78l72 -283l83 294q19 67 74 67q74 0 74 -79q0 -18 -12 -52l-121 -344q-28 -77 -90 -77q-73 0 -95 82l-65 251l-61 -256q-18 -77 -90 -77q-65 0 -95 82l-125 349q-9 26 -9 43q0 78 76 78q59 0 81 -77zM522 642
q0 -27 -26 -56l-76 -84q-28 -31 -54 -31q-54 0 -54 55q0 20 17 44l73 100q22 32 57 32q63 0 63 -60z" />
    <glyph glyph-name="uniF70A" unicode="&#xf70a;" horiz-adv-x="383" 
d="M257 522h21q100 0 100 -67q0 -68 -100 -68h-21v-279q0 -115 -78 -115q-79 0 -79 115v279h-6q-89 0 -89 68q0 67 95 67h157z" />
    <glyph glyph-name="uniF70B" unicode="&#xf70b;" horiz-adv-x="476" 
d="M157 462l86 -274l85 284q20 67 74 67q74 0 74 -79q0 -20 -12 -52l-133 -344q-29 -77 -90 -77q-64 0 -95 82l-132 337q-14 37 -14 55q0 78 76 78q56 0 81 -77z" />
    <glyph glyph-name="SF100000" unicode="&#x2500;" 
d="M0 332v88h709v-88h-709z" />
    <glyph glyph-name="SF110000" unicode="&#x2502;" 
d="M310 -170v1091h88v-1091h-88z" />
    <glyph glyph-name="SF010000" unicode="&#x250c;" 
d="M310 -170v590h399v-88h-311v-502h-88z" />
    <glyph glyph-name="SF030000" unicode="&#x2510;" 
d="M310 -170v502h-310v88h398v-590h-88z" />
    <glyph glyph-name="SF020000" unicode="&#x2514;" 
d="M310 332v589h88v-501h311v-88h-399z" />
    <glyph glyph-name="SF040000" unicode="&#x2518;" 
d="M0 332v88h310v501h88v-589h-398z" />
    <glyph glyph-name="SF080000" unicode="&#x251c;" 
d="M310 -170v1091h88v-501h311v-88h-311v-502h-88z" />
    <glyph glyph-name="SF090000" unicode="&#x2524;" 
d="M310 -170v502h-310v88h310v501h88v-1091h-88z" />
    <glyph glyph-name="SF060000" unicode="&#x252c;" 
d="M310 -170v502h-310v88h709v-88h-311v-502h-88z" />
    <glyph glyph-name="SF070000" unicode="&#x2534;" 
d="M0 332v88h310v501h88v-501h311v-88h-709z" />
    <glyph glyph-name="SF050000" unicode="&#x253c;" 
d="M310 -170v502h-310v88h310v501h88v-501h311v-88h-311v-502h-88z" />
    <glyph glyph-name="SF430000" unicode="&#x2550;" 
d="M0 332h709v-89h-709v89zM0 420v88h709v-88h-709z" />
    <glyph glyph-name="SF240000" unicode="&#x2551;" 
d="M309 -170h-88v1091h88v-1091zM398 921h88v-1091h-88v1091z" />
    <glyph glyph-name="SF510000" unicode="&#x2552;" 
d="M310 -170v678h399v-88h-311v-88h311v-89h-311v-413h-88z" />
    <glyph glyph-name="SF520000" unicode="&#x2553;" 
d="M309 -170h-88v590h487v-88h-222v-502h-88v502h-89v-502z" />
    <glyph glyph-name="SF390000" unicode="&#x2554;" 
d="M309 -170h-88v678h487v-88h-399v-590zM398 -170v502h310v-89h-222v-413h-88z" />
    </font>
</defs>
</svg>
